<mxfile host="65bd71144e">
    <diagram id="gbau2_m9VljSCOHmFo9e" name="PÃ¡gina-1">
        <mxGraphModel dx="832" dy="1737" grid="1" gridSize="10" guides="1" tooltips="1" connect="1" arrows="1" fold="1" page="1" pageScale="1" pageWidth="827" pageHeight="1169" math="0" shadow="0">
            <root>
                <mxCell id="0"/>
                <mxCell id="1" parent="0"/>
                <mxCell id="2" value="" style="rounded=0;whiteSpace=wrap;html=1;fillColor=#f9f7ed;strokeColor=#36393d;" vertex="1" parent="1">
                    <mxGeometry y="-40" width="810" height="430" as="geometry"/>
                </mxCell>
                <mxCell id="20" value="" style="ellipse;shape=cloud;whiteSpace=wrap;html=1;labelBackgroundColor=none;strokeColor=#0e8088;fillColor=#b0e3e6;" vertex="1" parent="1">
                    <mxGeometry x="605" y="-30" width="210" height="160" as="geometry"/>
                </mxCell>
                <mxCell id="18" style="edgeStyle=none;html=1;entryX=0.115;entryY=0.716;entryDx=0;entryDy=0;strokeColor=#000000;fontColor=#000000;entryPerimeter=0;" edge="1" parent="1" source="3" target="20">
                    <mxGeometry relative="1" as="geometry">
                        <mxPoint x="620" y="95" as="targetPoint"/>
                    </mxGeometry>
                </mxCell>
                <mxCell id="19" value="Push" style="edgeLabel;html=1;align=center;verticalAlign=middle;resizable=0;points=[];fontColor=#000000;labelBackgroundColor=none;" vertex="1" connectable="0" parent="18">
                    <mxGeometry x="-0.4718" y="1" relative="1" as="geometry">
                        <mxPoint y="-7" as="offset"/>
                    </mxGeometry>
                </mxCell>
                <mxCell id="3" value="" style="rounded=0;whiteSpace=wrap;html=1;fillColor=#cce5ff;strokeColor=#36393d;" vertex="1" parent="1">
                    <mxGeometry x="340" y="100" width="150" height="110" as="geometry"/>
                </mxCell>
                <mxCell id="4" value="" style="shape=image;verticalLabelPosition=bottom;labelBackgroundColor=default;verticalAlign=top;aspect=fixed;imageAspect=0;image=data:image/png,iVBORw0KGgoAAAANSUhEUgAAANEAAAD0CAYAAAAFW8NqAAAAAXNSR0IArs4c6QAAAARnQU1BAACxjwv8YQUAAAAJcEhZcwAAEnQAABJ0Ad5mH3gAAP+lSURBVHhe7P1nlGVXdt8J7ogXz7/wPjIjMyO9B5AJ7wtVAMqwyGIZkSLZlESxNTKcGY1Z81WzZs2H6VlrWi1R7JkesVucpujJoikHFKrgkQASSO+9C+8jnjcRMf/fvu9mBlCoAkAmVUwqT+TJe9815x6z/9sd17CiYHfD3XA3fGT4JPBorB/vhrvhbvhrhrsguhvuhr9huAuiu+Fu+BuGuyC6G+6Gv2G4C6K74W74G4a73rlPGaguYkNDQ/1KEFb/Dp8JYyQSuXn/o95dWlry601NTX5cXl6++VxjY+MHnucez9dqNU+Xd3jmowJphOkRPi4fPMe1j7oepsE90rkbboW7kug2hNVEFxLuhwNECOETQ9CEYfU7HFc/Gz4fEjJx9fOrw4evfxgMhA8/E/7mG2Fc/Z3w+OEQvnc33JVEf6MQVt2PAxHXifwOAcE5nDyMBAiVgEQJCTgkZt7n+oclEiG8Tgi/yzurnw3zQgjPw3vh8cPfI344jfB3eI3nCXel0l0Q/bUCVQbBhQS7mpC4R1xNgKvPCfzm3Q//rlarntaH0ySEaXw4rE6bNABqmHYYSYvnOA/TRg0MA9cJvMdzq7/FPdLkWpg3wl0Q3Qp3QfQpA9UFsa0mopCQwnscITaO4flqYl99JIQEDrGGRB4SaxhIN4wEQBASfPgd8hRKu/B7HFcTOr/D/ITPhCFMe/W3w3Q5ElaXhfDhfP7XGO6C6FMGqisk5pAgQ0KC2MJ7IafnPLz/4fcgbs65tjpd0kEqAYgQGMTwGs/EYjFPg/eJvB+e823uhzHMY5iPsMnD98MQ5oMQphWGsGyEMK0PP/Nfa7gLotsYQqKHsEIQhdW7GgQhcYfPVCoVv86zuVzO5ubmbGZmxmZnZy2bzVo+n7dCoWDFYtHK5bI/SwiJmXTi8bilUinLZDLW3t5+M7a0tPi3uE8EuHyHyPmHpR55JBJIlxjeX80kwm+vlnL/tYa7ILoNIazC1VUJkCB4AJJMJp3gQgIEGPPz8zY9PW2Tk5N+nJiYsBs3bjhYuA+YAA2EG6a7mohDAIZhNVFzL5FI+HeJ3d3d1tvb63FgYMC6urpuAgzgRaNRzy/pfli6cE66HMnH6si1uyC6C6JPHVYTUFh1HENCCwPSAgDB1bkPKBYXFx08w8PDHkdHR21qasoWFhZc6vAb4IURoiZdQAGxht8mco1jGPg2zwO0UBryDgDp7Oy8GQESoAJIRM7D383NzS6tSDtMf/U3Pgym8Np/7eEuiD5lCCVDSEwQLiHk5uE1VDDOeR7AnD9/3s6ePevHq1ev2tjYmIOHZyBcVC7SAHwhEMLvEAmkGwKFwP3VICNwD+DyXHgvBER4nd9IqLa2NtuwYYPt3LnT7rvvPtu+fbtfQ4qhFobvhapmKOUI/CaEefuvOdwF0acMKyJC/S/iaXSChSgJ0WhMtSn7plxxcExMTNrly5ft3LmzduHCBbty5YrUtikrSzqJAkXQFSuVSk7YDY2SGkqvUUfSrFVv2U9Ly3V1jgig+JiOAGQ5/L4u1u8oZ7ckFeBMJpIOCt4hTUIkEtg5pA8ImptbrF9qHoDas3uP7dm7x4aGNrqEAmzLyytW0buBZAvBGuQp0nRXEv39BZGX6hMWTY85MaoqGuuc1oMTLif8JwkjopWsccIzCL4miaBHeKws8IyPjQswl+zEiRNu56CeERcW5m1hcd6BE4shsUSEy4Ck6sCpVMpW1ftLItSUiD6TScteaZXd0matrW06b5btknSgNjXh0cN9HkilZR0BdiiBAGYun3PbqgxIBZTpqRmbX8j6PWokEU9YXMBqbIwIHDUvQzQWdzD19PbZ2sF1tmnTJkmnfbZV0qm/b0BgQdoBXtVVIAi9HF4fIY7Ih6JLRR5UxSwBVJWxUcANAjkIwq0zBa/nWyFkCndC+PsJIkr0aYpFY4sIV8Rxm6JqbP0OXq8DhqjfS8siCBEt9CGqsqVKVcZ/SXbOol27el3gOWWH3j9k7777nkCz4HYNpJBOp/S6AKj34vGoaA0PWNlqS1WLxZtE3EUTtVtKkmNARLxuXUDEQ0ND1t/fL3ul04GEREHtg0gBIFKHjNGESJVyWQCS7YVnzx0WM9PK24KdPnXWrt8YsTnZY7lc3ssTbYo7cOAdtSVAqLQaIlYslZVeg/X2D9gDDz5kjz3+hD362OOyp7od3OIBqgcVX2URNmxFPxoa9a7+LQtdgAi1NADRskvmRtTAuCR12CZBdf5I8GtUmE6od07vhHAXRB7qLScQwTkrkhhUS1Nd7eE2jRoRwGqSGjLhLSICrIlATp86ba+88pp966++Y+Pjk87txXdtcTEbgEQE1dbeKqlQsFK5qK8sieOn9L0lPVvQt0oi6IhtFHA++9TTtnXTZtu2bZuDqKW1RapdVVIlcHGjoiWSCQcT+STPzuUVkVCiVs/rigMK50RJ6mPVQT42NimV8qodl5Q8c/ac7LLrAtmcCH9FYEoI6C2WzjTr+ZqAVBGPiFpeDGLbtu329W/8oh+3btthg4N9+lZQY2FYUX2hdgLOJoHcAYRUEtAJgKiBlz4piPxwF0Q/3UCJPmmxREQQKdwzKkmwIomEV40A1wc8qE0kF4JobGzETpw8aSeOn7CzZ87axQuXbXh41HLZvEu0mNQuCAfVLa4YEduuCixIH6QQdgUaTyIRtYE1/XbfvXtt/z332u7tO6w5lRYxZ9z13KSHIE6kTmjPAGpAQyFpOtQ6JFIjnNsBhQcNGibPqFcrkpZSF6uofiu2mM0J7BN2/fqwbLardk3HEamcMIBF5R/wRGNJCcYlP48nUpZBzevps2c++6x9/vNfcIA7b1F6kUbUSdl1ErMNIZD1XUBE/hp4kPySqTDo9KNax6/VH7sLop92oESftFgiMjxpUQEkJulCWFoKDO5G1BKFmrh6oVAUhy6I+K7bqdMn7aBUtsOHDun3DSvkCm5PxKJx92rhLu7p7hHhVmSPTEm1GpdUKChPEKbp2bTsjG6pa+tt567tAtE9LoE6ZActSa1D+rhHDHDUQROAGa8dttBSoDLpfnAt8J55wZ1eed6zrsCFiKtuCdlbrrK5Crpg4xOTAtENMYFLgXS6dkNqaFYSqCxJmrNkMu1q3pzsqVQ6Y/c/8KA999xz9pQk5tq1a60lk9J3ALC+C1dYBaDg0/o2IKIkutbAM37dc/ojwa/V830XRD/tQIk+VbHUXJIgbhQ754TN0oRKQyCbn5+zkZFRu3T5kr3wwgt29Pgx98AtyMbIC0CN4sIb1m2wdTLIt27davfec49t2rzJLpw/Z99/8Xv27jtvC4RZSaWIdUi127p1sz322MMixsdtw4Z1/rkVnBQi2CWpU4ACSQKAsNFQ1Th3zx3gEqFiZ5FF8rys57kXSh/AF1RCQIYZgdMam6wqeyefL0jNXFJ6TZaU1OOZ+YVF2UzDKt9VO/D2u7LpDtqNkTHZM5KaUvWaW9v0bMptp/a2Dvvq175mX/ril2z79m3Kg74BODiqzldQ4XTuEojruhZ6Ed3e5Dke9Zx9MPi1IMs63AXRTzc4DX26YqHGLbuRjCcp4JhVqXV4106eOGnvvf+eHTp02K4N37Cp6SmXXmsG1tqWzZttO/bClq3WR0empFBHe7stzM3ZgQNv2gvf+44dev+gdXS0Cly77bPPyO7ZssnWrumzdl1rkqqH16tBzLsiIo9KVGH7uDdMhAggkDaAB3C5A0RlQ0WEHgnuqYOAkQIc9ee3IGb9uVtdR7x7OCWoGvEGV/WELt3iOw36bTY6Pm4XL12xixcv2w9ffsWP3MMtXpC9JyzYhqEN9sUvfMk+K/Vu//79AlhGyUhSKm94LJHqgeHUICle8vRvAoigw0e1jl+7+chdEP10AyX6pMXyxyQBpEZhf2DPlNTwo6NjdubMaTt37pzieTsvqXJW53D1dnr/uzrt3r1Sw7ZskQQatM6OTu/ryeeyNibgvX/wXTt96oRsjRFrbU4JQHvs/v33OZA6BZ5kQnaT1KBqrezOB96tyKDHKREGaM4hgbRRxDsIoBxEcHoeVf757UDiOamMwbsiQkVsJfp48Dzi0gZEHCFsnAp44lZ4ViCJRKLuiFjM5W1ubt6OHT9pR44et5Oy/8ZkR5Wk1jp56931G4bsoYcfsy996Wdt29Ydqo8uiyVkUyoP7kQgf8pXFQ+lANZU70fzcBdEd0CgRJ8YRIFHDg5aE6eno/Pqtavuqn7l1Vfs9OnTPiQHwx4JtVuq2j337bM9e/bYzh07rLWlxaXYotS7keFhO3v6lAB00A69d1BJ12zblo32M1/6gj3+6EOygdZZrEkSxERoInbJGIG3YrG47BvZKksC0VJt2fNBnlyyEERNEJQDCnVNMXQgEGhCB1ldDeRhwOP2lEusQEpQBoQPQAIwgAl1sCY1ElVNuRLBC2QAqon+rIidv3DRvv2d79rBg+/ZjOqB53C8LMhm6u9fZ88+9yV75rPP2d69e22N7CSJ1nqmgv8CL6KyRF7Ce8rfR7WOX6uX6S6IftqBEn3SYomIsG9wKpSKRXvrrbfsW9/+trjvCR/rxpAd+joGJW1+8Zd/ye7dt9+GpML19faJ6y65XTRy44YdP3bU3nj9NTspe2lmatJVtqeffMw+99nP2J5dO2SEJ0XYy1IRS5ZKMYJA316qyk4p6kRELFsoK6M+TkdofQgQoSobI3Q0NErtC+yjBh+cynvuFYMoAZIDLPDUAR5c9BE9X60EfVJIHmJIqahzqGqAJuYdsEnMMpdG9Be1yBbCsTA8MmKvv/6mffe737XDR07bwJouy+WLylvEmlu6BaLn3eHwyKOPSkp3eN0DZoBDJO+UI5FMOqD5/Ee1jl8LsqbDXRD9dAMl+oTFWpYEGhWRnJIEOXz4sL0vCXTp0kVXZ7A78ELtkMTZu2ev7dy927r7+qxJBJfP5+zGtWt27epVu3ThvB0+9L6Nj43KpmmwjRvW27Of+4w9sO9e2UwbrK0lI2kllUoxQsckHjVJIBwCce+EXLaypFAum9M3ZROhctVtHponjPwO3NsMcMWtrN+ungUTAFH1QnXPpZAiZWBExDIdxQJcIJ0Y9SDbiPIjwcgS5pQTOPaRVD1dA1y8g/RZzGbd4fDKq6/ayVOnLJstWHVJ9xvTsu16pdo9bM9/4fP21FNPuYeSgORjZATgBkixeFzp842giT4c/FpQvDsKRJH/q0L9/O9RUHOIkILWkpoiVcY5oN+qX9czDLVBVTt67Ji99NJL9uKL37dT0v/pKG1uztgW2TufefozkiafE5E8ZJ2dXa7KjIyOSM07Zadk85w8ccxOHD/qsaU5bfcLOD/75S/aY488aBs3rtO1lL6GwS17QoTcJJAhjSrlovc5NUm9Wxa4UCd9XJ6DAfsG13V4DUWLW8F1IsEBoRtIHsrDEByOH4h6B4mJ5yKQUKhyAbgC54Te1Text6pSZQMA6nFF/45+4yjo7u6yzu5Oqa/NNjMz7UOZCgXZcI0xm1/MW1a2IHXT29PjUywYWkSndZMkaigtQ4cNIWwOAt/0wMX69bsg+mkHtQkECNfmSO99VDp+wK0hpmDwJuPb6MH/5jf/zA68dcD7gLAr4lLtsHl+8Rf/oT399FM2uG5d4HFSI58+c9reP3TIjgs0UxMTLn0mJ8asKMn0maeesG98/av21a/8rLuzG2UTocIBnki9P2VF6UPYzu9FJRXlrVIueX7cK4f0UHQvIVTEO8q320LKux/1544F3Q+AxfVAAlF4gOGR1/mOHo0osYCRBHVAvWB7+bu6CqBQFUN1EUkXTOSTpFRgtAVTJQYH11pnR4ddvnzJrl0fFTASUunaJakWvf4AzJq1a3zKBWlTpkCt0/fJiALf89/KD3l2ZnHzmp7RjzD/d0L4e6rOQawh9yYGxnBERjONChFOTkzaCy++YL/927/tIKMXv1goSHpstK997Wv24EMP+ijmDhEM49GYvnD06FFx3QXL67mcOO/5c2dlM123ZDxq//hXf8UevH+/Da7tt3g0Yu2tzZI6ItgaHjeAJK6Od02EiyNixc91xK+s/EHuja5irSYdz7zn1889BsEJLihhPRLq5x9IYrWE0v8OJH5xDO7cPOoeKhzPFIol76BFvcR9jp2EahaVvTYn6f3uwffte9+X/fidV621vd9d2DwHg/rlX/ll+/mvfMX27N2rumIURJMlUilP/2bQKSBDzSO6s6MOOJiFM5LVz/8dDn9P1bmAy2GQAyAaFiqhodDPmX79gx/8wA3lgwcP+kxSVJDde3bbZz/3OXtUBjLTAlBJFuYX7OLFi1LdTvl0hoIkTrlUtEJu0S5eOGetUvuefvJx+6Vf/AfuTGjOJEUEVUsmo/ouXL96EzyB2iYDX+ChTwr+5WTi9Ixk8ROu1IPO65edMyu66vYjz9XDR1wOCfHW/4r1a+HVm0ddB0yAAfUy6K+S/SSCrmLT6Y9XGQ6VTqelAjbZ6NispFChDoRG1WVO6mrVJRoDaAEGwKPuAbQHMQACEsilEODTN4gEB+NdEP20gxpLDYH0oZFoDMbFcR0AHT9+3P7gD//AAUTgGSal/eyXf9aefe45ywgYvMtQHybSnTx10iWRq1ACYV4AGpddVJA0euLxR+2X/+Ev2K4dW12Fg1Yy6YQDCTsIEN0CUNBZGtgaSB+ICnlSR4rT2CrC0alLGy7pPtLHf36YuPx+cPpRgTSC2xBp/eEPpFE/17XA5R2oV9gzAAknh+dd+SbvELhPy4il9UzaLl2+7uocQEln0j56HOmNStfT2+PXwA+S56bKphB6EykP73r5CHr2Loh+yoHGKkkdUSt5wziXUyPNC0CHZM/81m/9ll27ds1HXPPsgw886AB66umnJUESlkqmnAhOnDhpR44cdtuJRma0NTbN+MiwnZRNhP3zD77xNdt37x6lPS27KCtyXLK4pNFSuSAglkR8gRcO4nO7Rd9zDTr4pwBRBcQSuJ+D68GZQkhHkmrBMTj4L879d/gQYfV5+EgIo1XRv/nBiBoXpBvUFwG7iblSAIu6DEZS6J5Uz2SqTfbPRoFmweuI6ReE0Klw5swZG1izxlVi3NshYILy3gKPA7UOGo+0F0dP7e9+CFjC37NAA9DPEk67DlUJhvAcO3ZcqlnQgcr9jUMb7fNf+Lx3FiYScW9EFgzB/gFAgAmiaM40W0x6PxKoUszbow8/YJ975inbsmmDqD9wICQTUQGtwaq5BamSkkJLrLFQFpDoowk8am5k4xUj6lyk5C5mIufIJ0z94Oh8wNUbjks60rcT9O8EQOKdm0flfUWUFxzr0e8TA9c1Tf6jR8iV8/pRIKLTlesAG+nEPdziLkUUqV8mDq5fv8G+/OUvu/eSWbBMBCwWg8VWqO933nnbLl285EAJwBKAE+ZFuAkc8urlDLyId1Kg5v7+BTUyqghqCA0DV8xK3YAzHj58yLKLi97IrHjzzGefsQfuf8A5JhyWeTsXLl7wKd1MYKPhmcODbYAkm5+dtq6OVvvGV79iu6XCZZIxq5bzFhN44tFGiwhMZYGsVi06kOgPwn0cetUCyYjqImIiriJ03fC8BzG4dgtMAZCCo6cUxJugCQH1EdGJkqZeBZyVD/3+0DvKgLIQgMmnkyuSL+5xnWE8OBqSqaQ9+OCD9vRTT7sjgcBYPZw11OWBA2/bkaNHbHFhUa/rXZgI36AsoVRWoEQAKJTGd1KgBv8eBjWEGge7hoGi2EG4X99++x1xxncsFo95j//69evt13/9133cly8vlUq5SgLnLOQLvnAHEgiCou/oxInjNL89uH+f/YLsoJQkV6mQk6a17P0/qG70ATU28u2ywCsQ4VRwYgEKypcI2gkJIEGkkpJ+DrE2RQN1CY7t13lOTVQnXsirnkoQbwKQ3x8+3npmNUgoy487+rleIqvQMnliJEdC6i1MiftO5AIDzgLyTz22trbak089Zb/4C6oT1SGOHMBB39G7775rb7z+hncNMPLDgz4FoHjmJoiULs6WUELdSeHvrXfOgxoo1LeZQPeq97af9Mb/smwg1BC8cBA83rcXX3zBvve9F1wK0aHKQiMA8PKVy3bm9BlbnJ+1n/nCc/bsZ56wlnRC6kxGBLMi20oSSyCqVIpuB2H7MEIAknfSdKIBDPBgAtycGIAJyUQ+XfUERAIQUjSQWHrmZiLBu0Gi9ev1FIMQnvsDHoMv6lmOiKsgsSDqfDWQVpQmY+oiAgykDWCYnBd0wrIOAyqypLKkks9JWixKOhfs7LlLNr8w7/dQkadkH2EjZdIZl5qhfcW092Cdu2CyI04WgttDApUDVNnx0Rr+d2eEv9fDflj4A87GGLjf+Z3fsT//5p/7kBV633/xF3/R7r3nXifYG8M3fKQy6t7U5JQ3JENWUEcYwhK4Yc16O1vt//Ab/8yefeJhgcYsnWEGaMWBk0iy3FVZqkwwGoFxbmQkkEABoQbEDPELJG5fhJFxbo0Ckbi9PkSTkO8gLkma4RJXVFqeHpkJEKQQNp8XOvjMzWv6KbWtUbEh0PvqV4NTfyo8KnAtkIDBwNQlfcvnKykCoHDVoAlJ63PnLtilKxM2PpEXYLLWpPsAhLo+fOSI20OowTWBEHf4th3b7Td+4zdc5aP/jVnCaAqAKRwniPOCMqJW+0TEoDB/58MdBSKySqWH5+FvYnju6gDnKhX9FTnZPleuXrF/+9//WzskeygvOwfX6/0P3O+NywBTRmqPjoxaQQZxS3OLNz7pASK4Ix47Zqtu2zxk/+LXf9Uee/Ae70QtSJWDycbjTRZ1ybHiaynMzkzrGg4N1CgTIZJX8shvuG5UahzTxrHbGE1NB7A4v9QZN8xLRdlVrH7KWDuIrNGYZh5On8DbB+kjP7ygOvLnoe7Fq//STwAkolQMLn7wuSDcfFvXJTEhYBEygqEGmBRZf4HpErNzs/bGWwfslVdfs/cOnbAr16b8Ob3oY+N6e3p13ijmwuKVTOqL0RzW0dlp//Sf/rqrfZs2b1Ydx71viQAjIwduEyk6qwFI5OUOCHcMiELOHLpCOcdFjfoQ/kYl4hpzg9LiivlsTkbtUfvWt75l3/zmN9VoVQcOdhKSBi4JhyfgfKDRuiSl+vr6nFvSAcvI6gsXL/oyv5uHBu3/8n/6DXv2mcdMJGalYl7NDecUUCSBGNqDCxwguYdQBNQkkOQKRdEVc2yierrJGpri4sQJce+EQCQiE9lMT8/aMamcZ86ctVMnj/us2HIxZ2sGer0P6oF999jjjz1sbS0p5WneokypcCCIadSPdVr2Y3huAGhZ31whcjG4W1fg6udB4FfgtCC7UauofiqVmoC0Yv1rB21MUvrV1163f/eb/8GmZ+esuiRpz9uSphmBzBc6kd1TKQOORkmulOoVVTBY227P3nvsn8oGffozTztWobybklbgYaS5qk3MgvGG/N0ZILpjbKLVICKCfTgZwHEXtgLAIMDRGZry9ttv2/e//317TQ3PqGsCTUM/EC5uhu5gh2zatNl27dptDz74gA84feCBB7zzFbc3NhMdjZOTEzY/P2P79u31gaXxBOpbMCICx8Iy3waQ+nYD+RSBhGoUkmAFSdAQE7eWHdWUtEgsI9pLWjZftXcPHbdvfe+H9pffetGOnjhnV6+P2Ox81krlqo8AmJqc9pHmLVItm9Mpa86kVQqkLR3JgEDfZIwe5O9ICY78OSGSD8E+KH8QIE9xUF0NwBTISKScCFrlpQ7jUcbO4ZmMSVVrtqPHT9q3v/OCHXzvpKRjk7V1tFlrR7NlmlngsSZVjkGpOW+fcA0I/vFVwMl08y1btrlthMOCyYL0Q5FPFoFEhQvWtpNKWf+7E8IdAyJAE0qbUH0juhGuRiMAIuyX2ZlZ98LhJDj47kGXIkkBh/tIKtyyrAzKqp+7d+2yp5580h555BF7+OGHfMwcwOnv6/e1q+GgM7MzPmKBcXL33bOrPr2h2efp+Ahp5UtUp/zoHHVEbe/5ExFAQ3jgmE4Ax2bBj4gM67I49IQ4++EjR+37L71kr7zysh07dtRVwWqlYDERUzzWaGUR5ezMpI2NDFt3V6ukZJekUzCXKQAPX6mDAzbO2aqj22AOItWRXwoA5iDkMc9lcAz+D/5Q0ZhjxGKWqHO4uBmse+TwEUmclK+Ses89u23bti22cYjR6i2SyI2WVj0zOxgQsp4D57QXqh1dBhvWr7fBdYPWpbqlPZBAOE9o12CJMmBNVu8cEN0x6hzgQPIgOUIAEUMpxDnP4BV69+137D/85m/aubNn1ThRcb5BSZFgFwYMX5ro+eefs6efftru33+/bdm61TtamdUKZ8TNzQKI9CV5X4dsAMbaXTh/yv75P/tV+6V/8BWBabdlF+a8H6hRhECHK4t0cI6TAKcGOkuD2zuNli/puSbZVn1rpNUl7cLl6/aDV16z//T/+12pRgt17h3z/BWZVqD3hSHo3aUaq/V+/eefsi9/6Xnv6JXeSK1Q8uCh4OxHHQYuDVHlQkkUPEs+HUjBW/UkkAjYaQK9UFSpLctOLNtiviiJ02nHT562M+cu2J577rMt27ZZjwAdi0d8hPf09JwvG3bhwmV7+WXZS+8dsRvDE86oqAOW45qbX7Svfe0b9su/8iv2hS9+wYElGe5i0UdDYFcKcDBLnAt3ijp3x9lEqwMAgssBLrgaAHvxxRftz/70T+3lH/xQxBxxYDEECCJta2/3ofws4P7kk0/5yjzMG4KOGO81Pj7us1xxay8sLApAebebWGvh2LFjNjUxYr/4jS/bL379yz5rdXFedoFsoQZJBeyhZQClxGLiqj74VWSA501JCDhSjZIZS7W026Wrw/bn3/qe/dGf/JlNyRYqye6gLC3NzQL8WkmafuuTbcZI8OWlspXyCwLsrO3dvcPu3bPTtm3d5B7AAEhh84mp1IHDMbhCAEQC0IdA5AC6CSRCcN2lgwCUlmQpV8W4dI4TJJZM29TMnK8MNDC43t3gTDAU5lTHOBFqDjiAMjoyaafPnLcDbx+0k6fOGAtCxmTnsJTxI488Zl/5+a/aLwlIrlUIOEgjnCmoiHgBXX7CgOo5+7se7qh+IgADKAihGgcPAFw0PtKDkdnff/H7LnlwT3OPwZGM37r33nt95uXjjz8hAG3x4Tz0abAUFrs1XLl8xRcyDCTRrK+bQLp4pEibgaebZQ9t2zoklW6jwFnwDlZUObxormKJFhnBzBg58oeXq6o8J0SE8WRS58v20g9/6BMAjxw9ATVbd0+30txsDz24zx577CF75KH9tv++ewSa7bq+0TYNbbANAtf6tQO+alAs1hSokHXCDwIEB2jrR35DiI4ozjlyxjsAR5HLfjX4TXDHgi7iFKkKHEgIxr0hGXmBDmm8lUworFaKwnElWBVW78E8ErJ1Bvr7xQiUVzEt6o0Zu/TFMe2dhSlZEYmO7Gg86rYTeWaEA21KPxm/w787IdwxIAqII1DrIM5QjQulE8TOqOzvfOc7duzoMcuk0y6JkLPYP3vv2WvPPPNZSaAnZfOs95527BwWnz9+/IQPSJ2bnVNjltTgLBgisOqTePN8p4d59hCatC2b1tvO7Zttax1EPk0bFU55QjKQyzBvThSKSLO4bAW4OuvX/f4f/KEdVR5RHTMtLXb//ffbFz7/rH31K192IDEer6e73drbMtYl472nu8NtoUw6GXgCVVaMcGyvD5NbcNRvr6/wTv2uEB6c1UEUXgP59ceYFwRhU8+4qf0RlY3OVIbzwLTKkoK43xlsi5dyqRqAKMI3dYR59fT02MZNm1yqYVMyYgSHDvXRrDJv3rLFn4v7eMVgTT1GRdCR69+s/90J4c5QOlcFAEQMAyCiYQEFqhyN1ey7KKScC+JZY5bq17/+dXccoDLh4mY4yuuvv2GXL11yLx1pBAslBtwxjOFiH2GvO8tbMZqbdG92fCpCPxBIIB0DKQRXpwORqRXo+xcvnrf/6X/6/9jo6LATYSwasS9+/jn7mS99XpJnrySjElkqWbm0aPnsrOUWZy27OGMFqXO4zskCUoDyBdMylKGb8RZg/MhvRIrjY9WDDhjO+RUew/+D/LI0FpPpqI94IqY6rum77BqBZzBp6VTc141ozaTcARJxJmKW0H9RHa9fuWSXVdaUJM03vvpz9tWf+7Kk6Xr3bjITeGJiXDbUlNdT0JeGLRaMLAHa4QDbOyXcMSCCyIlUNFyW81qdU+Jx80UWfX2ERTV40tUDxmNt3LTRvvKVr8gO2uU2E52rrOiD+jYnNQ0OSMSbxBHJAtmFHDlUFf26vpkSEad8QflAAoVqECGUPHBfH64jUYG+DwdnDN3U1KS98soPHUydkjCff/5Ze/65z9muHdusQ1InGlEZl4uyraQmLUu9aSR9ScQVyondF4yOcK+g8vLBsBo4wTGAlII/GoAkJM+VuvQJrt6KDLnx0QkqJyMoIPR8HiaDyqoyyg7CK8gI9QblKy7gxFFfpdYyjhAwtTanLSPwhb+3bBqyxx55SOpeRAwha7MzUzYyfMNVPNoSZwL1hkSiXMtLtLUyc4eEOwZEBCo4VOtC4ibgRWPWKVs3hkNJkEw9jEyQqvTMM8/4Xj/cB2ioe9g8gAaiovGCsWqSHqiH9e/gIfJOQIGVCChTAmhaKshyHVQhoRJ9uIrSCdy2Io66ZGJBxcXFBRsbH7Vr14tWLCy5a/grX/lZX06rq7NdUok0ZNTXBKIlnAZMZ5fqKvAAIqZaMNGPYUYsP+VS8GYI6iQ4Bga5/zmYuApFhjbUKiDxXz3zejSI+kkZgk5sQVff4puMlMB5gsrKZMNalU5t1bXqC+nTqOvLUut00SUUQKpK7cODCcN46MH7ra+32z2XC/Nz0gAu+mgSbMewrslIUP18h8zdGeGOAREV++EIiGgAnAgMGkXSEBiBjU3z6COP2BNPPOGjEAAXw3sOHT7sRMOwHECBNw6VAv2cPiGIJ0gbdzedmQID7lYdddld4QmekXqlBAIa9P8C4guAGAAT7xPPt7W12vUb132WLOt+7N690Z5+6knnzuwWsVQrOYdfdsK8FTHcffsVHfkGo8+TkoJO4PqOfzzIwapI+KhrHwwhjXKEFYQRqZlV/WEPsZYEIGKFn4yAEY/J6BcY3SMJiEXxJal9LDuGdOa5on7ns4suqbHhAB0q4OaNQ3bP3l3W3dUh8CzaqZNshFZnesqDq6fkRXXnaPard0a47SD6MKH/pPhpQkDMt7LLue/TI0LHm8Y6CEgLbxBJgI7ODl8vjk2y6B86fOiwjPoRfTcYLgTIAo6bcHcqgMSpQHAbSJIEAsKpcNPRoNAmoxhioWc/KpAwUa8JiaX7PAv4kEAlqSr0MRX1LQgycJ2zgqjZA/fvt+3bt+obK7IvEuLOSljqHnOSoriN9dtXShXnZ3gPIEeVI+8M7sFrhsePxUQg9LDDkki1lktMBET9YipDzK/jxGB5ZOoRkAd2T9HtD2XEAUQncFO4OImyRP1w7gxEgAm8jyuWQNWtOza8cxS6Vzq0CSvCAvhiMW/lYsGdENhUKdlRm6Rat7SkpTksSHO47GopXs0w4JhAUlGvpPFRNPNR8dOGj0rjx8VPEu4YSUSgUKhbRM7D0QsQK6MSsIPoXceWwTvEsraco+oxrQG1L3wHtAEe3NFuu8gmwotGutwP9XNUJ5a1ggjT4qz0KzEQNBgxIMLxZ4O8BWPAVPG6wBYoFYGnwvsCYbh227ZtbbZr907lr9M5OoBpEnCwf/wota0J1UktI5kGfXv0iX3UgSLf8O/UbzJdIRyw6eMBAUY9kA8iRE6ZggAAJDVhFkRGCjQx/YF6UXnEBDj3NJU+AKoJxL5plyRLVNeCDuagvpzodY06VAr+GzAAfBgBqiDr661d0y8QNSuditTpKR8iRH+aEvGCUY8OTBK5g0JYq3/nA8BxB0D9GJ5D8EgR7+mXHYQ0wjAeoJ+io90Bdvr0Ge/r4XnWlEMdQlrR4gHN64SoloQAAyDRmLheJbnEwUm3p7vbXefOPUVAwco9qHUB8HjeEw2DTiFeVCQGtO7fd5996Quft80ytBPxqCRGXmmURahIHxGvQAMwyUdwDANpKno+9Q0iUiaRdNc5fU+MsA4AhSTExsOeC7yWgZ3Y6K5+BoNyj8272B0vGg3GxrGFStXXAee7SEFU07qxrzLUKsFyxiz3RW4cWAJsTe9E40nVZ0zlXLJsrmDMek2mM14CZr/ieeMl1Oq2thZnXHQPsARzIZ/3tAI1zh8LSu7/3RnhjgERwbmeJIurKCIoXNW4sVHnGFAKoRNRY9asWeM2DtLn7NkzvlYC7/C+A4jmqjcU16FP0kdNC0AEscHZg3lFgJYloDra2yzK++LE9NfQW8/zt9YFEAhJWEC76WgQ4JBC9957jz3//LPOkVHT4Mg4DAIPHBElKiAkP3q+9KsOGo4rAoqo0gm3wABVqWQtbe0OIibVsTODL1Elwg3AFEqIBhG0bBQdAZKnqeZnPTlGFKgEAh0SlOkPDKGCmfD9AFBO5IruSYOJeF0hfU0g1i3vMWq02flFMawFgVdSVvkAsNQHEq2vr9cXfqT9isWajxOkQ9u7CwQkqo2A/yKsgzsh3DEggpggfgg2JHICnBYpFILEJZSIkcGjNDRz+xnGE75PCKUYjUsq3AvT8+t6jwDxwMWxoZAy6PQ4CVzd8HzQ8LekBt8N3lfFimiwreh3oq+J/h0k49q1Aw4gPG5kJ4JbewlVianTetG/Xc8XiULELhH0sAMpOAKaa8PDdubcef/N3kFIPMa+AUXWiUMFRX1lEClzl6IucSSF9QzpgQskjwNGIGBUBdMzVpaxB5H45IV6CwaH0nmN/UfHcqDGkrcm2VayBfVsJBq3ooB97sJFj3yH95GI1C/TyOnjwnUuvuIAQhI5aPgUGSfeYeGOARFEScTuQdoQ4GiochA5R0ASgqCtrc0n2bGLN6BBAvE+5zwbAIB/EGwAIOg3AAItqoZVwwOiwKaJ2kZJIjprQ5ULMDmg9Jwb/fo2Nhlpogo58QEk2UM+wkARAkK6YWwDJvF4Vwnd3vBQlxR+J5ACRAfQqsgeQDeGR+34yVM2KY6elbSsoFrqG7yO8wF7DJvH7UCVnXI1CUgAwonbeQCMh1EIOC6oYyQYq5nCUIL7EV0LmQH7KFFfOAEoX2NT3AqSZPrn5w1K/+SZc/b+4aNWYoCpnvMy6YhqF+6ATg3m8jkfvEq9hHUaHu6kcMeAiACRhrYPgQYBMAADgneuK2JBjWJCnQ8knV/wzldsIQIA8uf5g+D0/o+2WXCF9g9By/AUdoignwjVg4rDLcv3IBMHUF3C8boThiKJoNIAROY0sZwUnYyehm7XJIFY2FEZ8TyBAL3h77ka5edwfKLAIMIlIlHY3fvKtWt24N2DllO6TbL16PmKJqTuSo1bQkVUkgAayZLN5l0FC4FDRCKhzo1PTNnI6LjyV7ZY3cYhRxSHRFw1JT9CF1tjUupgPQYBJxI3WWICTMTa2rvs0pVr9vbB92xkbNzzjlpHPSORqAskNKFUYkWkqm+YTF1TB1714fEOCXcUiCBYFlUHPBAlQ3wYXc0YOIjX7R0IWwTEM6h4DF/hOhIG9zOEjsQKAedEoXdpZBoSYqEBQwdDODCyrbXNVUSG/YQA4FtwZCcABcjfT/VfCG4AiE3k6wfoiEqEp06v6r7sERESDgXyE9AOPJlUaJoAQNg6K6E6p8io6qjsmwGBOi1m8eJLL9mCbD9WeWVtukQq6SMOHLxII95RWmzfgjMA8CBpSB+QMk3h3LmL9sorr/r2kpFGFiRJKq+UVYwHicI7MoBwnbuDQQn4+hACW3NbpwCccmnU2RNsPTM+NW0H3z/kaibqJPIZKQ2AkESUn6nwMBQP1L8OYbyTwh0DIoiSgFQBMGNjYz58h3jp0iW/5wGirjcDAEDyBGoc6lYwQgFQADSkF6kCsCB9uGvAJQP1jNmYUuWkyrS1t1lzhjFw2GUY6qo8B1DwNYDkoxT0La6QR4jOj4p8l3uodvT7AJdgZzv2DcI2CvIShDqQBJ4gKk/1oxOu0iEH/WvWWk9fnx07ccJGxfVRX2+5v/W+XoHZkK9QpVMiHgEVthYqGcxlcmrKDh5833fGwykQqqOEqtARuslhILWq6tFRSB4jlsq0uHePPKWaW5SnAb0btXffe88lXDACnO8FU+YDj53sWYEIVVyV4OkCJE/S69U/fUcEavWOCBC5E6OOdJ6yQinrJrz++uu+YinEDcGEBItHjfOAyEWU9XdRkXiW67QYQHCpA2fVFVc1dBISDGsvMFKAhR5pfPfC1dP1QMN72wcAdBDqFhKIfiMC+UBqIRF9ixa94ICWukV/yuoOR3JxkyffBBDA0REQ6Ij0KAncXT29tnbdepubL9lFMZIRMRZpat4Bi5MB5kD+IXcm/CUkXQAHKw1535DO3UYSk0A6Xbx02S5JEk1Nzzho3BZTPnCbUxdBTdbrkqhz8ohKF5F62aB0kJqb2AR6YMAOyS66ePmyzUsFx1vIKG2mVaAlUE2o5ezEsVKX1vWKDOIdFH6qIELdDiMNTfQQ/qhf8FMRUKVhxYanJuzNdw7Yt7/9bXvj1ddsTpwuJVuhPZ2xglSa0OaYmw88cszlhytjIyAJsFUAU+CaRr1QFbgkohEDNQ0y5jd7rmKvMHAyIxXJBYjyAKESSMcxBDiVNtzeXcsiJFQ5bvKbfAQAw2Vec+7LEUOd6QF6QNw9cJZ4CNMPDn7/FrB0XZGO3Ljy1NvXb+uHBtxTd2NkxJKSljgZSroPYceUfrFckv2UVxpBn1dRxnxZdeQDY3U1JqJulaQFFtOzsw5G3ymcb6tcgWRT3VE+AYHzYFFIZUeZqbJhs8ocT6Xc5Q6w163faKOjM3ZBkm16asaBGhUzisleY49aXmdBF+wiplL4NHtKTB3X6zmogZCtfHQMnyEGf6uvfCh85MW/ebjtILrJoT8m0Aj0TuDYhXyIXo3icMsFifiyVABUBv2uiZgXlop2cWbM/vN3/tz+9Nt/ZUeOHLGYbsfLS5bMSuXKlw3XQUMjpCL7R7ZATeCoCQx4qiC8SBSjVgTOTg0OEuwUEZsLB+VghfFecRG3GkjnxoDPcl6VVLVUgs5KvFQBAZFXMW8nQmcEIjR0fqQO514PxLqUo/HcrqgxGkHpsGxWAx8WS15BMgbDXVivDmdDvpATEPEKRmSf6Fm1FHl2glayuK9Jv7u3x559/nlfieetd9+z85evKrcifKVfVdox1nQQ8S43LAlYMuR1taayVZdlH/l5zaLJmHX1dlsslbDrozfsyIljVmGEBFwDySzpuaxz4oryyO9GgQn7MK3ftXzOqpIq1EODrqHODQ2xr223HT101E4fO2m1ulrZGJfkiumoZEdGrtk7B96wH7zwgs3OzFhZQKqobAUxoArtozw3KDLwdrkmoDHA1dtJtU/+xOCIyzC7+p9qyOmqDklncn6yilMjTT9J+KS0fNtBRODjHxcJVZUQfgeAcPBWVXTveFOFW1FXZNBSCwVxz6uTY/bGqcP2u9/+pv3grddkA4xad0u7NYsAU7myNeYK3qCxGAQJcatC9S4LEPraaTrCafkfAnTSZ2S0GgBhFAzxX/JhNxEaT7lqWBGnrhR0f9maU+KgTdg84n9IGjXGTQAR9S3S9bT1rcCYR1VUc+qe20d6SbeUTlx0KPVHeQcLvqwVnjeXkjgjGKnNdAe9q/wE+YSg1GAiZBwGAZgaXKV77gtftLLqDY/YS6+8ZtmiVDipWMv6xpLyGokJhKL9ylJJEll5iKg+GkR4ShcQRVRnHb2d1tbVbhOzU3bo2BGbWZizovKxRHsJNDV9mwiQIpJcDUrT3d3KRpOkKCoZdbyicrd1dNrQxs22Z9c9dvHcJTt++JgvigmJO4gUoeOxset24I3X7M//9E/s3OnTNjM/b3kxnILyVFVcgZHpyJQLiStF0QUVRr1QHwIS950ZeovzfwCgsF3Azc0fNy9QdR+kx4+KnzT8rYDok4ZAt6bIApAqCYMWD1IkkeaCVQUMWDDLXx185x370z/+I5saHbGo7mUgyPlFS+u8RRwXlQ67Y1mIWFapsAWaxMWxZyA81Dcm3+Eiv+kYENGiZjEuDRc2kdHWDESlfyewwZattbXZp3CjAgUAVN5JwCtasX6o/+eBWz++HcIXbkW23i9IAi8u0mkcsa7OHtkOrDGXs4nxScurLlKptLETA4NmsWXS6Wbr6emzzbJB1m/YaGPjU/affud37dyFSypX3LeBHOVdSQnGsFEmJDFODADLpwE558zg3TA05HbL5atX7P3Dh32qfEn1iNhgaBFrLsBe0srDkipgMZuzwsKCxdo7rFnA4bk5/U4onxuGNtnOXbvdw3f18jVfFZV+I+6xax6ePPgA3RDHjx6373z7u3by5CnLKa8MhEWLwLMIMNGjGxlBjlSkPw2aoXJdcmPbqTyqxY8NdQDd7vBTnR5OpyNAiqsikEDix5YU92S9NqgUNWxmftZefu0V++HLL9nh9961lYWstRZr1qW67GqI2cbuPuvNtFo5JrA1VG1K0oPhLeull7e3tor4snbx/Hkbl57PINXZ6WlvuBvXr/uQIULYb4FGHawTjR2ASliz4eERX5SQZbR2bN9qwqXyx2jxH22RADS3mvPTcDQYAMtLMaqAcW0R1UMuJzlNB6iuMaKAztCy1NdigfUNdBTDgfFwHW8bDpKx0TFfkB9QtrW2W4vAkWC3CrFh8uI2Inkk+/qNPYcXLh5L+G4Z169dt4sXr9n83Ixt2bzFBteu9TYK+8CIobeuWl3RO0WB5KpdvHHNLo+N2LmLF+3IoSO+VBmrLY3IVmOM3LxUvk07ttnM4rxdv3rDzp6+4BMcG1eiVi5UbWxi2opKM5Zpsc1DG1QfgcoXVrMLZOXVBbAYZnATiQaAVB6vZ84C72j96s14MyA2fuTi3yz81EBEGeipZ14K062Xq4xiljoGQS/p7nKDTQtA7x56z178/gt29PD7Njcxbi2yKQDQ2oa4DbV22o51Q9YmyTUp22VMdtO0VBUWxGgT4S9LLWTRw/PnzonDLxjbq9B3xCo+vvBIns5HcVcRBlMD6EOB29NuECQEMz0z68Dq7umxB+/fp/wp75KaN9vAT261SIAZ/lMj6vBJQQRwcUwAImylmgg0ly/eXCU12NIRlRFCgvhlqQlIVUkHjHYGkRYkra5cuSoCPeuOirbWDtuxbauPCseuw7GCu568odlwBAyAiK4DbDc8nRfPX7TJyWnrlU3DoNuuzi5/mpcC8Ejd0neHh8ft1dfesnffP2xHzp6xk5cu2PFTp+20JMqF8xckQSdsTvVXVTvE0il7+MnHpWpKNb9yw06dOKu6lF3VmLDISpPaY8HmVN6yUIJnjwUh46p3qpJvAuIQ8PpPmYHROieoR4GnDqhbf8Edgh/DC6tv3IbwU5REskHUaAyplznihAGHkdB27lOWTXRGDfP7v/+f7eDbB2xRAGqXGOjUc/3LEduUbLa9G4Zs8/oNzqHOTY/ZjWreFlNRS6hxalILrl284ABiKSwm0gEYHA54z6BtOg1ZgANgEfFWsZ40HjUiDwEu1kdje5HPffYzPt9HietW2ID+2AcCv4NrKtOH7v2kgPRAlQMsRdk1jKqOCUSMKLh06YoDizqKyt6hvvTDbS80npnpGQFg2IavD1upWLZcNu82C/vJKkVrlHEedESrXPUA14ZxcI3FLZFS01OstjosQ39RaU46qFnYEqC61SiChjyZuPfG62/bf/ff/Qc7fvKEHT17yg6fPmmnzpy1nBhWtVR2bynSrVdA3PfQg/bZ55+zWTGy82fO24mjZ5WnFcvEM9bZ3KE2jNjoxKTdkCRlIuLGjRuss0vXgb80AoBLORm5LrINAIRhSj2EAHKJzJ/XvB8J/nv1D6TRbQw/VXUOtZxFLlg7m8GKonGrlEU4Uj8OHz5h3/7WX9p3/uovrVF6eauebdUD/dKxt0rk75HNsGXNWqrPRsbH7MjwVZuUFCq2piwhTlWcm3cgMcCR9bRZJ4BzpFAgkbJSjehLWfF+FaQRjcVqPM3S+Vta20SjDImRijgjI1tgun//fQKoVHF3POCBo3HqzbX6/GbQr9U/f1KAGEQEEEqTVLlMc4vsnw7ZaCP2wosv2X/4D/9v37H7rQPv2BtvsEbERV8o8bw4/vFjJ3zRlcPvH5KaOuzTFjKyl9YNrrMH9t2r/ErKy0j33IUZcuLDE0hZ6IxltEeT1wmL/l+5csnm57MOvN7efq8PJCX9SQ5i1fzcHNvuX7Os6rSkbzQkkIiNVqKfSpHZrg/u32+ff/7z9rnPPy91brtdk2Zw9tQ5u6x8p+Npi1vMItUGPZtG4fQRJpf17W5JwZauNmttb5cKzVoXAWDi0WBnChODYSRFwBBR6wI9LVhbgr960MnNNgiK/Mnb5BOGnx6IYORwExmJjWoYbAC8XuVyTZU4LBXuB/b6D39oNy5dsrZY1DpV8G69sqW52Xa1d9s2qSrt4p4T01N2VQbwhcUZm0s22XxakkSEsaJGjCptZlpu3DTk65ztUCPu3r3b9u7dYzt27rC+vn7n5BjXjG5gpmdRHBSpkxDHS0q1K8nuGJMtxaL09+i99uaEuOeqRiLQMDdbKDj3vw889JOC+K3yERNxOpdVRKVjGd+xsQk7euS46uMtAX/BHQ8L84u+6COS5/Kly646Xb8qG0/SqCTGUZRatGP7Dnv8scdsq8oeFegjDiIFBysnQUCyeI71ffIAkADW6TNnvE7EW3Ss+rSS5uZWX9QRIDG+LpBqkmZqx8ZkzJLtLdY/0G9D69fbHtXvIw89bI8/+qjdt/ceW7N+nTXEY3ZFNtLl8wL/qfPW09ajNmyxhAkkUk1haHgxF3OL7khoSsV9Nw4Wy/eBsfojfzBOmI2ronREO4BQ7yiRQv3o9R8Wt37ONU5vZ/ipqnMAyF2VELK4XFnFm52d9zW0fyAQXTl10pr1GEK9VxxxXTJu27q7bEixO5OyQq1ip2TQXpTaMS6dP6uGXNRzTWr8hNLvaWsVaHbZs5/7nK+3/eijj0g1ediefOIJ3+yYnfKYwEdgnYaZublgnTmpT8zu7OjodOk0LjUjJym2Y9smG+hus/YMIxdomlXNsbplOP9ULdUg4ojUB8lKOshWZKgM+n9WBjkOkXPnTukWxK6E9W9udsZXOGLVnLGxUYEd+w7ObJZWPX32mc/Ys1I/WzJJQVLXVyqqa+U5RDbVr8glT1CRPzp/kUrXrt0wppmzQyDOCkZr4AnsH1jr6iWMpjmdkb3UYYlUwlolNXrW9vq098ceuN+eefwx+4zitk0brbu9TZTWYMVK2canJm340jU7eeiorZeEW9PWaZ1xtSXTVaRyxpQVVYXNLsyZ9ATraOuwTrUDa0ugWq4IwKh4YX79T0DS4aNDWFwdXfgqcPhxj/91wk8ZRPg5xVKiUauoRUdkhB45ctT+0//8O3bhzDlLykbZIDUiLSmwLhG3e9f026bOdutUozUsV2wiO28nhq/ZSDFneRHOnAgkpwqOC5xt4nqfe+px+9kvf9m+8IXPS8ceEhF0y9hularU7CuiAiIWZoeTjcluGhexdsiInmXbEKmYcEFW/MwKQLi3WYF0aLDPutvquzJ4S9ym5lB1YDwHqeE8EHePsPFXMLGNZXbJ39j4nOwVnCNsMExnMEgwSSC2dKkIQBH7tX/yj3wprsHBNbJNqBEB0vtTVNcqK98APHByfgUbjuGswHuH6zxjPd29Ptrg6tVrLnkWFrLWpjrbsGGj30c6sXtEhxgVq8Hu2bfH7tl/jxjNFtsue2ZQ6liz7MtaqWQNKldEkiWWSvoQoBtSQ987cMj6W9ttS/8a2zYwaMuq42J2wSoFpvA32qyk0WKZKS41MYJmaRStvvWnO1WwpfXno03wdlOisBlUrpuhfnnFO+C9Vv03ZQ4fvx3hpwuietGgxgnZMK8fPGh/8ed/YSekviwVS9amymoT11unxtgu8OyQodlFf4EIolDO26Qq/OzUuI2KwLOSZDNq2IaU1L1NG+wbX/myPfPEY7Zr505fthYCYjAqqhuEQvXC/RnLxdJauLRnxQ1HxXWxj+hfYpoz07pRaxbEkavlgu3cvMHWDXTp7aC1AFLYJH8TUJEGw4KKMthRa1g0kUBemM6+bsN6nxS4996dtn8/uzFsknq6SSrmVnvowXvswfv32DOfedS+/DNftMcefVjE3eKSCZc8Nlwj1KYsY+OQUfCE2kYdIPFgJCGwOLaKeXEsiIFdvHxVNiWze2W16FmG9Pj4QyXIuhCxmMAuNTqRiVtS7ZPWR1OSPHH6b5T/RtW5UpWKFvXpEZdOn7OzR49bZzJtvcmMYtqam6RO1gT2mvQRgWNF6SxUy95J6zt4SPXu6+3zsYaA2utLRcGri12kAgYktTrQFNIYlok6JQ9cumNABCfFRRwasmEfA8Gv0Yr0PKtgDKN57/hx+94PAzuoms1ZUu93itN1ytC9V5W3tbvT+qSuodsXG2o2XSvYJUmis/MzNqHqqUgVmsuXbOOGLfaswPO1n/2Sq1/pdMqHlLCkFgs2Xrt21VfeYeAj+WEwZJ9ABFEw94ht9wFZsHTWsk9prikf7Bw+Lqm3b/c227J+jVQLCC8YvOodljQLRV1d7nrZP0ngUVTEsoAKQaBmLolZMIiV8WZr1gzYGkmWLVs22VZx+00b1/vadTt3bvOlqHbv3mH7993ja3h3yDZZkfrG2nDJODwbEAV58pEUAIYPAiqBAolHgFNjk5AZlhCjYxePJfvZFmRrASQ8lWsH18o2arZUXDaRz4eSqtgk+4RhdfpWVOCNqW1hAyvVimxehuXoXKAaHhmxK2fO2+WTp60zkRKAktarNuiIR41ZSU3SMFigclmgygvkbNSGp6+9jeWUu312sHtylX2yzSxcHxT84armdz2ixlE2/kIA3U4Y/a2CyIfhU0AFpACRAMH6bE5VNiMWpNTZ//qHf2A/eP1Vm5Ge3yW7JImqIAkw1BS3JzZvsvVtzRYTgZWknhRl2E/Kgjo6ft2uSmItxMXFxNHo+PviZ79ov/j1r9hWSQz6Gljb7J133ra/+qu/9MXu33jjDYHpnC+yznJX7R2B1wluhzR69513nIAZbQ2IWlpbHER0GF46d8H237Pddmxa5xtuQYx0GAfTLXAIBFMg+E0HrjfuJw5IgJq+G4woYBRFMKkOJkP/UEXXpaomor4G3MBAn4DVZwP9PVI7peJ2iKiTUfGlgKgZxhSNQmAAiPF6Ole9O4iUDhII24fefgIEpgz4NTp9oVLUWexVRi6wGwT2UU7Mh72W1gyssT5pBiu+Rl5RABEjiSqNpbKDiBhRGaqFvEVQG1Uf7Mk0LEl/4/xFu3jyrPVJPVvb3GL9AlFKzzZLoiXFIGfnZ20R2kmlfR4XneU4TAD2rl17pSHADDzTSlf5pwiOUkpSD1zzGNQf0og/wBMAKSj37Qi3HUShtCGEHDmMPspZDelBhcIGGJ8Yt9fefNP++Jt/ZpclJVr0TFOxYG0q4+72Dnt2+w4bEoGnVclRBiCKwAqpJhtvLNu5uRmBacnmJP4bGmO2a/Mu+7JA9OD990qSNKrxb9h3vv1t+83f/Pe+fT59QXT8Xbp00RdSZBF73N4s44RDgTA6OiKbaMb7N+gLYsjRpPKINCtk8/bEw/fYzi1DxtrUtJq7XhUgPOfoyjfqmKs7nwJEdH8yds+7QfVduug9ZSXhBE5SXIcQdAyqUb8FvGD8GEckO2ob53jjaq5O+av1/yEjJyde9f/4Fxz5L2wfRkLQPkzuWzc4aJcvX5FqJ0kkBoFbHSbRmk5Yj5gQA3NhhflSVp+vWIuYUEQSanJ42LplYyLZYaiifrsxMmqXT50ViC5Zf3PaBiXR1kgaNatMzQJHi6QZM2Hni2Wbxe5T++DACLop8jYkhsoKR8y8pR+NboEIef+oqgZoShdJFKp0AOh2gyiQ47cxhMNDICB6yMPAedhAcHa4OF6eK1dv2He//V27cfGiSTxYZrlq8WJW3KnRNnW12Lr2jFQ7cXqpBVEVnNEDS+KOOdHKgsR9RaDLS2IUdX/fPXttDwsENktKqMouXbpgk5PjrpKtZ4tDSZd5cTlmVE6MT9mxo4fthe99xw4fOmhzM5PGfqjbt27yYTI1Sb24uByLyi/OTVspL1CpseDqoarK0UlTZcFrFjKLQAJ92kaCEhQZ3xKy1fp5QPocw6jCi6msSPVhhDMxcNIE5+HAzeAaQzIhIIenj0XDzvI18nSf6OMX9RxPMC0BNTARY3BsWXURsR3bt9jPST3eriMdqfOqj0PvHZRUf1Ptd01pBUwE6UaL+1rhkkQtkpgObEW2XUnKztQHJazww5psJtmkqquYvg+DTCnfXWJ+m7rabEgaQI/0w6TU+XbRTWlm2s4dP2qvSeUfGxuxKhIXYIikhKOguldX+6rqr9fs31q47SCCuEJpFBJVGCE6QOZAU6mmZmbt5Omz9torr1lJnD+lBo6Xi9ZqVVvXIg7YlrKEbJ9opRjo2SJW+gkqYi2L4kKzquCi0i3ovbLUw93bt9v63m5vNDbcmpqakErSab/yy7/sO+Phji0Xl2xwLX0Z/W6DsH3iG1IjL18670byhsEBN45XWNpXxNooIouJ1bVJNVy3Bi9RsyRqXZrebJkAVEgl5+40oI6cfvLAewFognNeJgbXQvB4pHwAyNXhMAKGAEihdPLRzwBO6ZASZ0jJAEgMdyIdhtNA6EpfEQDVZJOkpDZi37BLelzM58tf+oIve9zamlEdZOzqlcv25ptv2NvvvGuTU7NKH/d4UuCLiQGV9LGatfR0CVHSHgQq3/0cO1P1xLQIepiSAlZCzIe2bRTTalJMSR3sVv1vlITbKFWuR+BMSvrFFBcmJ+0HL37XLl6UOl7ISX0UXSmhFZpjNYhWAWh1CGv0dofbDiJUNqQORBVKnxBEiHSIjGvsXvfewfftlR++YRPDY9YWiVuXQJIq5m17T4dt62m13lTEVooLIuoV54xQJdMJqhUZ4KUVpSFiYHy+ahJHwFqBg+kKpdlpqWTTvsHuQw89ZA+w3b4aGDWovT1hjzz8oH3j61+1Z55+0qfLvPyD79uhg+/4/qiDA73WJcO8Vl6ya5dGLLcwbz2dbfbMk4/a//n/+L+3B/bvc2Jxj5YIwMkcwpC+j33EGgTubABBnw5FCqsoQK+q1up/9d9iHsFdgcJBq2+JIYWj4YMo0NUBwZH69jzqzSACJH4HgEdG8RxXiKxAxHyqhfkZEUcwesQ38xJQP/vMU/a/+41/6f1QLBPMOL0XXvyBvfHWu761JB3miVTG0hkWaGyy6sKCRJTU3ibUOeb9sNZ3zd3jEF5M12NIL5VBF20pn7VaVu/kFmwglbKtnZ22js7duTlrlxRrS8bs6KH3BN7X7Nz5M7YkpgNjWFJijNz3ylkdPxB+5MJtC7fdJgIs4XG1OkdAAnENw5ut5r/77Rfs/XcPW0L6QKu4aIc44jpV1L51/bYuHTOZrdaihkxSSSIOtnYvqDIWVPGTOr8yOW0VEXNVunZfW6f9w5//mnfsVWScRqSnNwsMjFhAfWMmLLsRbNu+1b7ylZ+zvXtYXL1L+VmxkRvXZaD32c7t27xvJS07YOvm9fbow/vscyKcJx9/VOC5z+7dvcM625rFmWWUixGAESfkul0UYIb/ROz1hgzr4+NCoLL5K/oP1krdhTHwqHE30OgDdzSfcoEl+mf8oP/2p/jNUwTlU+mxEo9/wT+gwKnyRvY8+kUYnBifvoWUImlc4sFGXOySl3T7kecmJyYk6dn4a8lGJ6asJoJu7+60tJ5pUls1ipkg4JiExKj8paaElVaa7NDx03bm6GmbGp209d29NiB7p13fSCLxpYE0LUsSilE2xVHJJdWk+mcFLiZ91VSgeUmrop5NSmVft2mTxQQ2d3HXy+DlIOOcBFWmshODi6pJr8GQHd2O8LcCopBwOAKcUPoEKs+yT0V4+Qev2JuvHbDRG7JZVJGpQt7WRhpse3eb7exts+5IzVJSJRJSSRol7itqrHJ52RsiH03avBrn2uSM7CFpC1I3+jq67Oe/+EXraG1WZUvlkeRqqk9D5nvs44rH7RFJpmef/Zz1dHe57ZRRI5w+ddJSqYQNrhmw7Vs2616nALXVHpTUue+ePbZl85AN9HVbhwgIUoQ6aAhX3fSP0t4sd3hcfe0ThABERJ4PgAIAnBIcQOE1/1pAKKFkCvNAdPCEkQsBgIjkjQgjwyuH7eaXeC5I0K/5PCs9wxwsQMX640g5zlmEkp2/WXWWkd4L2ZKNT89bXsS9Ii2gU0wsI6mREKOrVZHQpBu15aak5Zca7ODRk3b2+Bmbn5qxjb1rJHHSAlGDZQTCAERS/8QUmiKMtGA5rkYrSSUsiQYKiktS9SYlrSIC9sCG9dYuRsgg3bAcYQ35f4q48gPvXFBCHP78+TO3KXg9/22EkHjgJKFrGy8N52y0xQIjs9Oz1pxosZQquVWK7fpks23vFHGrsppXKqpUtvmYsfnCnOVKOSvrXbWrxVdi1tKQtpYVcb2CACo7h/F3JTbAalILSFfOF1nkftwBRGBtAdbR7pfEaW1uVjpV97DRz7J2oM+yklJnTp2wRakxGUnDNX0siN/vtgEjt0WG3tlac8M7GJbj/UMqJ56qMCKhILZPCp5bQU2Bcv/hCJA+6jrWtCKjnyU7FBlTVj+XehtGeC+9I6hyrFPBcCZc3TfzrLz6pDZlFxUwWANvyRLYRCI+ljluEuHiemc7GdYM37N7p33++c/ZAw89LPtUpJ7psGOnL9j/93/5X+3AwcO2mJfNE09ZUYxPJ/pu1Eo1tY8AlS/V/HpDQ8zYTZ1pHowTZEiPr7KqPGL7Nkh7aFbOBwXKTWozOmOxrdplj+H8uHT5or154A2bnpvxqeyujKpKAMttRcgnCLcdRK5n1+PqgATiGvNVDhw4YBcvXLRSTrp2Zdlmh8etP9Vim6WS9cqQzEgCSZ7I8NQ7DWVbjsGaAiKAcJoqDZYoRay5FrdkRdeyAtssY99mLbckQpdOXxExsDNEKp0Sx5xQDla8o47hPvMLcyIWCKLRDeFHH3nYdu/cbq2ZtMV0DWO6VMhacUHpKWIrMT1Z9FMnOvJBGUmVoLxxXv9dlw+fLkiCBJIHkzuMq0Dj927FBt3/cGwUM4pAnJw3AAKdi4Bp5oC4lDPyD9hlswTLdwlUgMhzrnrGjhJRAhjsIRwUizNTuoVTAxs08AiyOP/nnnvetuzYI6nQIhkSs8VCzV5966BNzCyapdssmhDBKy9VtRlTLiuSRHkmFarNGwSuKJMPJUVQN5eUQUYiMDYuqnw24nwQkOLKR7ukTpekYbOOJal27MqBl/W1N16zQ0cP2cQ03e2e+6Aaw/hfKNx2EBFQ4ZBAgAaCgytzjVVu2Obk/ffft/nZOR9tXCtWLFJbtsGWDhvKtFmPuFG3GjcqyVMrLlg8GbFqY9WqDeJqavAGVbZwZbGCCWySSJaweFUGa7ZguWLOiix9EhM5SaWAqAlIQHayxiEAkTCLFhzQqcnGVffdu9f27NppfT1dbu8AmAor0Qg8PqxFzyGJIC4Wsyc9+oQCYQOYlKbKR3Rm4dcCkH3yAMHq21JXb0mbADAeb14TYHQMQLMaQAGIOEYEIMHEj0ijUFHUj0ASCUREGMJqSUTd6NQjm48hiXRb9VU2tolk23/qgLphd4eNm7fYjj33uapWlnXfEEsLNFErSo1bkeQxJE0sqWxLpwBAFdk3au+87FkWUolILY/41IYmd5P7kCPZl1GpgklJoyiOqFzOWmOyeSWRuqWqM9EyqkwVink7d/G8HT5+1MYmx2+CyNU2yqIQHv+2w8eCiIzhKEUhk7DX/yJmLEZVJqvhBH0RRKxIPUEDKDJD0QffR1kkg3koS95pee7MKTtz4piAU7RIYdYShWkbzMRsbUeztWXYt1TSJdmhSmqy7MKyJaPt1lARMQg4CSpYBN5YzUt9y1lSEiqZECGI7lCv5hfyAqo+GYmKa6nhcrPKYl42TosNrOkW52uwQiUrDQNiUiMrz8z63Lxu0HbLFtrMThJKLKbGbKhUfcgKc2LiUu+g7eqKSiQDlxENq8ebAZxbIApswABAnwpF3ujUMMcg8n4Q6341HQOJcDNK3fJ7PFuPwbsCjo666fdxV/u+Rzpn28hgBEMAIFDj78BZUJt03VVnFSKQXI2Wl2SuVIt6VLZpJS+VtmDNqSbbtnGtRZcFOKm6XZIU92zabC144xZyPukuIoa4LMZUEhUtFLO2kGeeV16quFmniKVD4GqTmpeUmmfVJaedFT0fZeKWKKicX7C0GNmalrQNCrjuaJI0bCwVrSgV/NTRo3bj6nXZzNIslGZUJAmThWAblKSqR+XHByl1XHmoqR5gcrczfCIQSfv3YemueYpIHDxL4vgqTLACSwAmhs3wPFTdIG5dFFHRpwOI0MPffON1e/O1V2zsxlVrlpaRWS7YmnjFnti90QbaM2pgFl2s2mJW32jqUHt22PRoXvpxVCqcCFbSJiZ9OCnJ1Jo26+8T6ASkBql9DZIWR46csOvXJmxJKsOSGjXeULVE05LUkmXr7Gq21vaUJTJRSzXHxfnKVlSjVliaSvbTQFu77Vi/Qfy7wRijnVZ+k01RcV01ljgwq88wx8UXii8zz0Zc05EiQhPBunqkSIejV4EI8sPeyZ8UnIhXH+v/h8AJj0Gs3TzCCFjfxle8UR4ZKlRTWxDJqy+sovNo47JUV9UhqwipvXxmrtpLifhXAAyrAjG+raqyNYr4UYlZs460WttVf61smS8mI5tzZUn2Z2nRqrJXI/W+vGalt3/LVhvq7lXdq66KJZ+wV0SLSERsRkxtNjtjjcrDUFub9aqwHWqr9vKypQSiJoFuSaCtqQpreqchojyDpVLe2tS+a2UPMfwrojaLy6btlIp36ugxe/eNA3bu5DnlQ8VhmXZpkyYNnOqhcKjhwKgkKq6Imn8qICIvfPqWJAoa76Y04pzrt57wI1wN+5dVXhjGf/LEcRsbvoGvxiKVgnVGl2x9ptHWpBstowrDTStNS8+zhnRKeFWsMMkuIQnUJP1YqrYaH4dDNIKjAOIVgcSlxKjRT5w8Y8PD00pH6UkSNa2UrVERabV+Q7+1C0jLAlaxkpOky3refSt5qXkZASCKOrGwaCtqfMZ7iVZctaHkcDAif94H5A1xqzFQh1wlIhLC4ycMnhrf+pGoOy5tQgAFtRscw0ht19XI+pH/ucr/dJYuiRGMj9yQeip7Uqou3JlhNKwExCBT9iRiFA1aGF9ZFgOISgrHkgmXRsw4LYkxoeJlMvS5LVt2ftrGrl+0ldKC9WQStn3tGtsmad7O5EIlBBOCsZZVcwUx27GZCalzi2q/JetUfbdJ7WuRatcqIKX1PJKkpu9WQxA1igFKY4jUZBtVStYiibS2pdl6lH+RjK6LKpV3xjQeOXjYCnMqACCCYCk8EqmiRJUHGQT6KgyHOuH/2xc+FkRqR38I/sq5j/71WL/hlKOgfKmMfskv148EJpadv3DOzp89a1kZ/83YFMWy9cUztqm5wzplACcl2hvrxMmQjvKyeAbgFBsBiGSgQYZuI+vK6ZmIns3E45ZSQ2WkMrLYycWrl+zCyBWbzC3YUly6ufJWFiXGEmnbvHm79XX1i9uJtZVpMHFUqY5MxWYdtaqkZ15SdlENUxLRLEvqLCFJlAZ07LNv1TBi6F62vxuBnIQxCEENroqyn5qaUjY3W7Yjh8/b4qKYQTUu9SdquRyd1sxkZXeNlI6MKEhJgjJvR0Z/Y4vqtc2PS3qmWhX7quq97IpdvTppJ09d8DUVCrKROru7bOOmTdYqCeMGp6QZ+7/6bhZSe+kUHh8ZsWJW6rSuMYIBaegLUjqxqFVDutJ/5J269856AdyqNYupLfvaOqyPVYykMjbIvkqr3cauXbPD779n4+OjvjKsuHTgl3F6UoPpQIrSE9xqvFVbtyeEdP5jg5evHvnlBfbChtFv3Gw1BjyGIeSRc/Ozdujw+3ZRhmBenD4djUl3XbK1mVbb2tYjEEVl7+gbrl4EG/uWJeXgHNggLg4EJkCE2oYhD4haUilrVWTyF6OWp/Sdk5fO2vGLZ22WofvKC33jTTJut2/baYP96/TtlGLa+jr7ZO9kbHp6zvIl6d7KZ1UcuyGdsnhHm0Vxg6PaYOcorxEVJikDOUp/y9+BcNNZUA9UfxC4tjrKClqJ2bXr0/bC996wM2eui9iytrgg20YAamjISD1rl9LQ6mBqbGj23yvLab9fKbMvUau1t6+1dKrXxA/t0Ptn7c/+7AX70z/9S3v/MCAq+rp869evcynNbGAnYKcPJhbGfezcjatXLTc/7x5QOrQpgS+qCZeifQGfrpIG5fGlmXGE6MeK2iAq4gNEA+2d1q42bSxXLKn2mBwZtRPHjtrlK5d9rTpfCpdmclWCNAEQbhcxaq+T2xsCbPyEwCd5KPw4hQs4B1EnVBT30D1ADEa5Ir34qAlz0l+vXr9qhw69rwYpWUzvRMRVOlUJg5k2W5eQsViTtKgFQ/ZJkpU5iTijGvGW8S0qWTp9RVKKaQKoJRlJtJ7WVmuTJGlQw7XJrjp//ZK9fOANm5H60ZjK2HIkalMz87IH0rZWIFrfv96k0alhxKEFXqFUz4hYZMsU1HhzlbLNiigWFAsyrpkKwNJO6PiN0necK/4tBGrxR8On+VYAqh+NjZI+JQFnwW5I1Z2bY4f0pKXTXVKBmyVdmqTasps4qnFGdcveq3SwdlssznyiRpuYXLQLF4btpZfesN/+7d+zf/+b/9G++50fSkWfkfQZsK9/42v23/yj/8Y+99xzPsnRHRQKJdUf9AEdTE9O2bVLl60kSZSU5sDa5sJXXRKprdWeHvW8A4ibkJXqu0nnaAFRnafVDt3JZutKpg0rOsIQIrU9KwsdY+VWMVKnQ33agVRPQ1D02sB+/Oi6/uuHoLQ/ITj9CiDoq3ycLDBcDS7tNx1ECo4uXZJu61EZ59b45LidOy9VThGnhAS8RcVB1qSbba0qo68xbunKki9Fi23l9S/W4yqcvoEL1j1OqpBlcRaZs6p0ZmSaz8fvyqStO560hACQkQo3MT5ih48esRNnz1hBRB+JszFwgwhJ+rx4UUuqVVxN6RToBFbZBGacH2V9eJkBkuKQjAyv6DdL8AKiiBquCSYhbqhWv+2NEAQq8MMxqPP66UeGj8sN95lQt7CYs/mFrF26ctUmp0VoKldzS5uPdWuSDeMbh6keAV1R7VOQuj08Om7HTpy0H77yqv3Vt7+r+B176Ycv25mz52UvJe2+/fvta1//mn3pZ75o9+27Typdp9tPWB4VaQF4+FjFCSLOSgOZGhuzZdmbaalyGdUzXkJAxPPB2DcxSn0fhQRCwKeIA6dJ0gYrLiq6ismG6mgU84yr3aOylUuyeSmnmB8gujZy3Zdbc1vSaUj3dIqH0m1KJc5XbmfgMz8xuKRVoZokfvijfNhtHkGJ50f/IZ5EaNgOTdgPusfw+Gs3rkt3PilOOOaMIaEYFzGub5VYVkV0KKGUKiaCSxlHhQDk0wqQPHoBhkQmlmVg0onq/UV6hv6bhmrF2kX43eJ+LZJYjLjOZufs4pVL9oPX3rDrE1MCX9RS6RabmZ633EJBUhI0RiyfZW8cqQjKQ1mIrQo4TAKLtrTYSoJ1rCX8lX9rxF8nMDt3q0uin0DUf5NAVcItV8dP8rEPvvGjEacBKyktKx49ftJOnj7jy4BF4wlf1hfbBacCk+YWcwVfepjR9W+8+ZZ96zvfsz/84z+1P/qTP7XX3zzgqwytWbfePvfs8/Yrv/qr9o9/7R/bgw8/YOnmtEC6oPpqkEq1ZHkRdVmqMBuPoZUszEltnluwJt3Dlk0nmDpB3hlEqj8KL+CgwlHFNDxVTt8RkigGkAQiyxWtWbTWI+bYn2KiZtXSMDqB8fTpE3b2wlkbm1O7w2GDCvWworI1MpVc5FO/dNvCx4+dU74BEpEFH5Z0gq3DDcrq469gIwyldZUOlSxiK7JluPT9135gb7/2qs0JRAlVaqZSsz4ZhQ+sWW8bZZ/0lFSJlZIkQc2KTVLjZLk7b0LaiIU0KSLVEPPgFPBK73DvEQMRl5pYmtAsW6vY5YlJK8ugjOsaK+GQwY6WDtuxeYcblY3KZ4MyxT49rCUNQBrVoInmDD2yVlIac4uLNj03azVx4zRqor4dIYox4MpmD1Lfh/R2t0TY4lTqjwv1Rz4Y9d9PiIAnKdtzIZeXRnDeGRo2arlStEpVqqvOR0aH7fyF83bx0gV779B79uprL9u3v/Nte/nVH9qJk8dtZnZGjChpO3ftsGc++4z9/Fd/zh557BFbu35NAAC1A9MnRPHW1dFpMzNSG2fnfHBoPJ22K9ev24HX37Rj7x/zTQc2t3bats5e10AYkcDCMnTq1KTuEPXD1W0kEqP2Uadx6OCGZ4MxVntF+S/p3lxWRpoYZU1Amp1fsK7eHutfu9aGNq+VjYdmo3ZTZJOAuL7tK8yGet5tCp8IRMpxcOqSgJ+3WprsNELddUmkkip/DPNYFkeYtG9//3t28r2D1iB7KFoqWY8Id4sqcU9Xn/WLtFtLUqtWqpYXiPIR+jnobxIsxFkg3EZsLFUeyVcdq4AzcPBWkNMyPAn0Y03MTwkUTZZURTEaYmFWnFEN1SWp15pu9YX/GFHMTteAkE2pGgUevHPDAvnRI0ftrQMHfNXUmtSEwf4BH6rvVQ6QyYe+fcuLdDsDCf6ERP1WIFluPRs+/+FrtyLP45xZzC9KjRuVKnZCUmjcJqZG7eLlc3b4yHsCzjt26PC7dur0MTtx6oieOSk79pqasWYDa3rtnnt32f4H77XHHn/IHn70Adu1Z7tUwaTaRAxP7dTa1uIet6wkER7YQ4cO+c57PX391tzWJoP/qr3zxls2cvm6daiuN7d02ub2LkuKofpUcgeRwBgVgxaIaFbWTqCrAocA/eJB/aMTYLvF3I6lt2xR6iFe7KLuF6XNNEmL6B4YsN177/EdL+hMZrsa1Dh2Pvd1vF0Bo35uT/h4ECFTicoo1MRGWy4NPKBBq1A3JRFHPayMlmslO37utL348vft2rmzllFDRvJ5W5/M2D29A7Yp0yJVTnaMxDF+uFxj1WOt3u/UoIp1AIm7UWTAW0ESIuGUlyVVmot//WGz8Xkm5gG2JXEr1oqelfqQn89ZpSC9OZpUJeKfiShvSlPgYcxWTuCemJ62d98/ZD98+WV7443XbWJsXBKs1fbdc49F9Y0VPHRKm+9hNLu9dttDSPg/JujWjwLoo0D1wQhfI781tolRvHbjiuULC7KRZmWvDtv14as2MnbDZuYmLJtfUP2zeGWT7JsWEeJOe+iR/fbYEw/bvv17befubbZuwxpraU2p/qvu5MGzxjyxseFhO3HsmL0sm2lM9ccmAFu3bfcFKE+fOWvvCkSFmVnrUvtvaG63Da3tFlfbN6leWYsBzWOZ8ZGicbxzy9Iv0Wji2FRqSx/9UP/t01BEY8sCRREVVN9fUKyKuWXVnm19PXbf/ftk60n7kM5IJ3443tHrRem4pL5N4ZNJIkDEaV0S3QIR7nicDsogVAy5O4hEnMWcvfzW6/bWwQO2MDZi7bi1CwXb2tZp+wYGrVvGelrEHBOBVsV9FhsqlqVDrFaVtEB3VdT9BkXsKzrgSgIRq8D4JsKqEN/BQVQSERjRpVlYY1HccHJ0QUBa9rlEOUmjgwfesauXrvpksFQ6YwnFuGyBnLjYuQsX7FsymL/z3e/5mt9jwwvWISLZt3evfeaJJ4yNiVkZiDW843ieIMqg6Lc5hAn/mMa92ejB8VYePgpI+DmD6/C3WFI2SHPK2n2lnGVr72y3XtSegT5bt27QtmzdbLv37PaFLp/+zFP2sz/3Zfu5n/tZ++znPmv79++z9RvW+7rYbDjGLoQsIcbcIjZYLun39773Xfv93/1d+8Pf+0N7//0L9vBD99kXvvQl27xlm01MslDMO3bk7YMWk1bA8liDslHXiUnFJTkiDOPCFhaR4X2FlFhxiGkUbMuSiiWsonZqXGbCoH4z/lHlYt8kQIQUmpGqOi0GbfGYjUv1THa02T333WPt7W2qNtEMSwtEo+KyDJ5VrXB+G0HUsIzV9xNCAxYfBh3/4suSFvRA4zcJmg5HQZLZUoymRgywy50Kd212zP4f/+P/YK8efMPyw9etS7ebs3l7cmC9PT+0zTqLVUtKZUqVxEFk7S001SzbhPShUw3nhMAD93GJ02B5pjcIbEsS4+QJ+ya6InVsSdxG389KZOdYnKSUt9NsSXllxFYyUsVkNFPZiUzG99Bp7+627t5+/RaICkW3B1iEZGp6yuZnp6yQW7L/zT/7BfvG179i9+7dbdNTY94QCeYmiQDpNJQW45ytqsbhSONiLwE0qpNrLJYP0LEZWRyfQatUIjN6CcHKO0pDHJQOxWBGcKQ+/o4mUVlFODzjQ4k8fYgtWGeCFUnZLfDCxUvWIpUJrt/Z0eFpQTAwFRgvQ3caozLSxYBwNbO4Pwu2AAZfR07p8jy7QrDWHquwkldmCgfpiFiVD9/2Rb/JH5tOs8AMnr6TZ07b6VNnbPzaiA8m3rhuo/3aP/k1e+qpz6hMUZ+r9Rd/8Rf2w2/+pTUr+/s3bLR7+wdtXSxpKbb7V3uj0i1Jc0EVX5FKx2bToL9JjJZ5SRA/Q4LcUypgMSZzUXlZFC1M6PztG9ftsNTHvGywMUmizQ/cb7/6j/+RPS0m2C3wZ/Qe9WtihmxC1sCiNLcRRJF/82/+zU+URKKfm5IIPzfbAdZNJAVJIcEpCnu+qc4tWUnq06XrV+zPv/NXquxRayoWLSUCWKtC7uzstm0t7ZaSGGZYPdseliICptKuqZxorGwjyewH0nXfmAqMw6AkcY9E4rtwW4zNmBomUQueiwnELU0igmjc8tlFPaZnlAZ/LEjPTmyjUt0mZ2ft+uioXbp6xa5cvmKL84s+h2Wgu8fu3bXVviIueu/ePSKkqK88qta0hjgT24IvIxnRtWsqE4RK/rgBlyNwD8LzL+ucZ3zRRP1mBDnXIHbc9wAjmIdECZSGHvaj0uTP74kAfJcKrvi3+H5EwJ+26zeG7ZSI+LrUKdbmnhAxzcioZ0lk1u0uC9iMGGF+FaBkFdGOzg5J7W5Jly5fohcJxWKNLc0tvrpPVEACTIy7y8Hlp2c8XlF9HT923KeyvHvwoB0+etjOntO3r4+59rB5aJMvXr9v/wPW1dPvzOCtN960I+8ftjk906Z8b9P1dW1qf9dCVHYRGB3ldLD7yHjVE7tj+BrbUsToc/QzFVuPuXqPjaz/VUd6XoCfEX3Nyd4uq4qJjUybaG22oY1DKleLZVQW6hI7gFHsqlCvw9sVPgGI9LEw6vs1lQRSIQuQBQWMugxWVKGQQjNqyEPHD9v3f/iiLSzMWkIEnBJn3r1mje3s6LIBEXpKqVSlVzOuqor7miRUoXCcKABSBMB8B29YRbVI5DzcQoO+m6jAG5Nkwi4KOuSUBXGpVhEKOS0zckGEAPEi0UStnn/m/LPWNF64JcVuEdOD9+2zX/tH/8j27twpwznjxcF4Lkv3L9bKrmPjboVx8H1mfoajtz2QN30DQqezkAUeAUCwvgBfVSPyvgMjkESsiRBIoaBPJGhbUldZVA7uATCXMLFADWFp3Yoi/TwQ3SuvvmYvvPiivfHWAbsoycTaB5fEHIZHRn2B/pHRCZucnLWFeXbFUFkKLDlc01EqdLao6wVJ4axvp5LLSc9QcRLxjFTjvN24Pup7CR07dtpe+v7L9uff/Cv7/ovv2YnjV3wX93iiUZKjahvWrrWnHnvCfv4rX5M91eM2C161P/zPv2+nj5+wpPLbJ+mzqb1TKl3K1xVklR8ARLNQl96tQcmROk5ZMEFqQ894/QX0QB3Qh4fLvqryL4q2iAuis7KAWIsF9cUGBl3SPFoSyUAY6FlVKBzN07hd4ZOpc9AIT0nUFkWpeMKCLIjgdZYQITeAAoCmcPzdQ/ZHf/HH9gd/9geSxHnrkMRplZj9+Qcfsnub22ytGrBZjy5WipZbUqPRY82fjnGpjgnpwxypPAJu9ZzoJx8TAUGk7rnRd6uNPikvqWMA9kDJnE/HLNssg3Z20q7OTNmw7KRF5Tmrd3OKKFRL4nSIdiRVRWrdji1b7YvPP2v//J/9uhpRAFsuSXdW44lI5mSIzxfmLSUVJ9Uo1cdBTMMH86aoQl8R1YGw5IY2xMDWjYCFreZdmqhhoQWkjXuN9DyAoD0BCmoUaiCzf0kzLRWUgLTiObZbAdklpY9jBSkxv7Bos3Pz9p9/7/dke7xrMzNFa20LttWH60bpkBTxEtmmkhVfYz6VI1ARqWJAH0yLkOqo62zJ8ku/9EtigPO+2OUf/dEfyw4K1sVmQCmGfbCxdE51uGxtbXH7/Geet69+6au2ft0mi8vmyUtdv37liv0//2//d7tw8qStkWq2E3u4b40NtjSLsZZUj5IySHkhhTpirhaqK5tDK1dOT2y9g5QLjsKBg6lRYGlSjFpWWsclSaETkrzvSzVflO23kE5Yur3d/uVv/IY99ZlnbMfgemsQ0Kk7mOjtBtEnk0QE8q7vo1vXi+iEUhe69ecoOGOrDtlLL71g42PDwp0MfBW8Q7fuHxqSFIpaQo0vG9IKkkI52UPgjxfhFi6FBFpmefMdksSIrIpL1UR4qDmBHBCRCkwxPYskQv1jlDeqnQtGvYctkBThpGQAY0M0MXoZ2wa9WBXqOrbSWVYF487eu2un1Li9+iDTCKqeTlMiKuO1akXATmPCJaVuuGQj18pkCAr+kCa+bw4NpXs4QSgEUoU5SBj2AM/VNpWFCPBcmumau9GVBmsaYKewCAffADTYUYAGCUOHJhtztbV3yIDu8PPmlhYB12xqatoWFkuWl1oN0MplEWlB9my25NJoTlJnZnpRGsOCbL45m5qcs8mJWZsYn7Hh6+OSUkv20IOPSRIVJXHO2Ksvv6EKRaoKgFEGpiZcZY8nm2zb9vX26CP3Swo9aTu37VIZBMammE3PLdh7AvUhxdzMnHWJ4Hd099r6dLM1q26aKiWp0KoD0RT1jOqoN9UeAWMLNSD9r+qDEoLojFUXQ6ucLo+y2jErxnN1csJWUgkrKL28gNUvzWfd0AZb1zfg88P8YzAPtdXtBJE+9zGBbxH9yYCA0d6Jyo5fpjBBxrABS3ZVHOHCxQvey8www5SOPalma1FFxpwIVSARja/OifqlGBHVRwWARiSf3gE4jIjAbek7WKtCAUuccXY6RhWpbMZb1cTNag6yOsjphC1krb2p0da1t9rW3h7bIv1/c6ei1IlNUin70xlrAURwfUWRrgTuss3nFqViiqAZs6fGduCIkOPKu3f64jkSCNgMi848QEENQPg8Sx1gxwRL8UqKKG3n9ICMookG/FmA4uCjBgPVsCi7BcTgjIBkSJ/nCICSTZvPnT1nr732mmyTY1LNig4cwHX/Aw/aV37+q/bVr33dzzdv2WADAz2yezpd+uAcQcqV9A32sc2pnMxWZdOzgmymXHbBV0OaEiFOTIzpubyPdWQhRpYCc1VW3yFvjMBuV71u27LZnnv2s/blL33R7tmzR5I64eVDYk3Jhjp+/KRVSnRySnpLgndlWkQDMTE7HEeBdMFZA1umvPzn9MCf2hbJU7/sJveSLmBOLIlgfHt+tRdppFTfzWJSjL+M62FsambAXjh3zibHJ9Queg9OFHzltoePl0RQQhj8VCDQMZAGwX2gxUXRmPe5vPjSS/bKD17yefER6ansL7Szt9c2trVZm95P4XJUo5ZWlkSwIhq9h/QhYttgOAZcRhWn55AqfFFN6O70oILrElB/gZ3kufBrePsqLHTiE8iCaRJMOWahkraWVmttbnVbhAXa2VO0oApn/YUNmzbY9l3bLd2asVgqLo7aYOWqICX1jjLDNBLislGBqiYguSQha/oP9QtAhJ4u1vamyQCHr9OtH4HmTMkAlcqh6LYR0kb5gcAzAjdOBNIHgETOAdSVq1ftpR/8wP7kT/7MDX32ke1g5R3ZoGnGEPb02aYtW+zhRx61jRs3+e524Q7kC/MBYPICDGBFWpIX1CdUUVZC4liV6s32M88//5yXb2RkWGA4JgDiZFh0CYxL/JnPPG0/8+Vn7emnH5YKN6B2kdoq+yqVbPZR8SfPnbeXvveiLQvoGTGgtYm07e4dsB59LyYm16h6hQYYEwk4kMRu1/Kn+hA+lD1VLHULDUAkOhIZF+eMWxG7aEl1XlD9XJuatIoAXsETitQW09khcO+/5159BGaod2D2tAev36bwqUHEL6KXyc/hmgEhg/ZrN27IwH3TTh4+ZN2ZZjOpE90q0H0b1suwjFuziCWpCmSVTJ9CrveovFAdo54gNYCDUGJ0AucRgce9dYoOIr6sd7HOeMbrx/OkaxFxOtlPDPnw1T1VgQEHFReUDg1HLeSL4uxZW8guSq1rsGRLxnrX9NkjTz4mO6jJ5RLczncoAAjieEgi9oOld558Ih3c+FfE9a1PBzWi45QI271hzcGKqXBnAIXN4Ws0AES9g6ShHEKR21I8G0opphAwKhpVLSX7CGDSeYmtc1zGepv0/vUbhnxrGDqXmSKP3o+qyr0hqc+7du22e0VE+/ft853+Nm/eKJtnrW9q3N7RqvylpepiQwFqk92Vto1D6+3Bh+5XSVAD865aPvjgfl/Q5amnnrBnnnnaHtL9TZvXWiodkRSbs2pRUqCJ0eEtdvjYSXv59bfs5JFjllC7sYXKBkmhLS3tso9FzEg2qchsgwmA0APcnU8bS210ENXb0pe70jM852JKEfoI7gYgWpbUL4tI6CvKqh6Lahe8dhNiNNt27bJ79+y1lOrSmZnueUG9rW5P+FgQ8TXPtD7Kdz8cARB2iqtfIjK2KXzn4EG7KlHaycLj6KbJhO1TgyKF3CsjFaHC7gK8q4Jh/8RcTbsFIP28CSKu4QGM03egm4EUDL8r9UGqXBB01L/lJnHYOKpYVYSrxEWQvk60jFsaiOEj+YLsAwzzXM6iaUkNcbB0e4s9+MQjykzEh7OEa1WjckRESKJ6l0aB/QdAcfZgK7C3K1PGuSabSMR86uQpB0VnJ52UUZcmrI4KYAERKgbPuVdK5XBAChxIp6C+AzvK+3v0050Xeo/tTtqlko6Mjhmbj5VKZVs7OOhaAODxLSD1biqV8pWNWEZ5zUCvgEPHap8Nruu3DUMDklRrbdOmdYpr/XxoaI0N6bh16wbbtXur7dix2ZKpJqXTZH19HQLNPtt7zw7btn2Tbdgw4NfSaSRyXpItL0kft0yCnTKa7NsvvmQvv/am5ecXXb3qkh20RXleG09aa1kMaVmaCKNSBIiqQIKjivzDKJFojFTwQisGAAJsdQDBvYhqaEDHenpLAlFV7ZsVECclZRdpGNXd+Oysbdq5w+7Zvcc6W9td7Q0AFNDJ7QofCyII1ctT/67nn8i5/yduIMJAQ62I0N5+5x07fOSIzQyPWKu4dkpEvE7c+N516ywtQkpICjWVi1YpFpWmlK9GqREChjsIZKvzHQBEfxAAwi7iczEBKKlIXxBEHHAhPac6KUvtcrquP4uR1RQVB6uV1QoCkJ5FFcTUYUkmQMRw/wWpc/OyC2ItzZYT4PB27N5/jzWxnaS+z6DFqPLAvtmMnljGHQ4YAJTSDFU1CB/vEhIEtYTzV199zdUnNgljz1Eqze8DRBE6zgRA5DaP8o7a2SI1KtyEy5mECsPoADpHF6SaADz2Tl0j0PT29dvBgwwWfd26unusldmeso+QXgAbSUbnarmU16dll0jUN7fErX9AdqHAs1tA2bdvt+2/f689+MC99tDD99kjD++3++7bbVu3DVlvD31HSUmsDtsi+wpwdXaSPjaPpBOdE0uM5Ci6jcT6gfFIQmrmvP3BH/+pHXjvkPW0dZgq2nqkPu/s6rUe1XtGoI+o3mJqI/QIAIRaD501LUu1dIUORqdq0PM+IJkYCQCEBxciBEBeR3p2SeoisRaP2/W5OZtRuWsCzLwY9Xqptzu3bbfBNWu93l2d07f06m0LarG/Rggz4MRcP1VkNO/1G9dsbmHGEnGRroiwRbp2h1QSeo1T4pTYE3BXd//qSN8OapJL6yApBwTprY4fCE5k9cCzqlT0Zjc8pcrRZSWBoHQFHtG721qM05IdkBSI2kVobbirlQ47FFQF7Jy46eTcjJ27etnd6EkByz2BqnhG/sZZ4snTVFr6aAyupnwH4+p0UZlEXWQrRgidbUiwYZDMOdkhlBlVDolVKhUdbBA7UgngILXY/h7JAjBdWqEiKt2EVLiOdkk0Pc+IhyIu+e3b7TNPf8b6+wfs3/0P/87+6I//2N57/5DNyMbD65gS98+0tCkvrZ4v/CS+9BfcnOn35bzAOW/Z7LzlCgui9bxVl0sWTTRaIhW1fHFB1+etUFpUnnM2Nzche2pOJRdjkerQKKbDwvoxCFP1jEaymM3aCy++YMPXr0miqF5Uzg5pIQMCd7fsUZxKPpxLCEGdpfHooPZOahrZ213tR+P5heBAWwfSP/iOq3D+bD2onhjlgvnAtAhmvC5LA8qI7vCyzi3My9QIVOQAnfX3blP4iZKozg8lRRXJBBdh6BQSQhaxwR3FFKwiwMzNTtt3v/tXdvniGYvI1kirIIOJhG0Rh90kwkqKAFZEsKyyif1EZcBJgi/BZcT99RP7ijRRcygvPAfC5R/3q4BFoMFT4wYnqSg9jzrH+RBtiAkgekE6drQRG6TJB67SPI2JuJX1/nylYJP5eSuKDopIM6lxeUmHHbIdBtcMutRifpTedk/jkoAoWnTpxMKPEiMwRScCbC4fy6d7SADm1lyXfcj0g0FJYWwj1rR2G0jPUF4dBBbsqbqqRzklmSkobQ04qQNA5v0ndYIjAkh2OKcdjh07YdMzc3b56jW7yAiMbMFm59mQS1Jf7+H5TCjnqFxNii5bxfWXvZLp34qKEljpRxKMcuoJVPNGXfMhRzQMVKu6QBAkmmRfwKBUL4yMZ5kzdn2/oG//4R/9kY0O37C4ytepAm4V+Le2tnnXRkoqdKJC1wDlcsXANQ3c1ABfyqhfd7yEQRXsdRWc6l5AM6y9BzsLfORNantJJN0bZW+pqjQGBiqzem1bsyRol+27d1+9fYJv3M7gA1CdWD8iKvfKoA5OLAGRL4t4UNv0gKsxDiJdL0htGB25bt9/4ds2fOOyJaSbphU3iTtskR4/GEtYXCBiqE95OQCRV4YK7p/Rf3jjgqkGwae94vQXunzx1DmA6hHpo//1HCobqQUVLj4uMknYUlFvq7LjEbh9kxvySEuG8FQFGlS42WpB4l/qZRKVoNHOX79qDz72uG3btMWlDusrACKamA47zC+9qt/KF/lGRatLFSIGcknSDdczg1vfeOstqXQ93nPe1t7mEgZD3fPpDSoJKhVRP6XSMRJRpRABO9jqfyGgeIi6oFYAKv1DbVKZ5hcW7Swr3hw7a6dOn7ZJAWp4ZNzGJ6etLCBVFiVlFotWyJYsnytZLlu0bK4gCSmpJq6dJ5YqtpgvimtnBcBFncvWkcSrVqR+ilATkt7YLIAowwgAOkQFpCYBKBFP2w3ZaGzWxmBUiVXrSsatW+Xb09NnQ7KFWlR3yVLV4jAGlQC6CQaRqhbFEJwO/LduejuG7a8y61M4n9AMaG2YrwPIn3B/njSOBkmdJZuW6ptXG5fVUNV4k+XVWBlJ5SeeeEpMLOkmEYH0b1f4+FHcHvRJFQTGxVQAjHky4U3MLRFCLpcVeK7ZG2++ZpOTo5I6Zem/NdsgEK2XStFPj7m4LX+VFYa+19/3NKggbxNd1IcInHOoHwl8n2d4lsiz1EkAnuAVT0/AgdPqc7opjimuhIrAYEymI+M4qAkw6OI5gfrG9KxLJhppfHLRHnviMdu4dp33NbDsEzN1GwQMlhf2fiFXDWDMAjMgQjqQUXHTYIXRmDVJXZyambFr12/YhUuX3G4ZHFwnom8X4ZbqqpyemZrSeUwGfBrB5qUJA+X54DE4o75416WRVJbNW7b6MB8m26H3j4yM2umzZ42d2N9/96CdOnrcTh45bocOH/WZrcdOnvLZrTxz6uw5Hc/peNZ36jh95rSdPKlnjh6z92VzjY0MW7sYQn9Pr09SZG4PRE1OmA2LO5tJf2++dcB+/w9+3xams8aegx3Kx0A8Zds7eqy3QRJBQGVRTCZZonI7IxQO0CxgngE9kLazVieDsCb4HudoKDDZAETe0nqOLg+ZBwLSkupjSvb2nLSdeamsOaVfEpB6unrssUcfs1QyLalJ6sG3blf4FCAKas4XoVBhggIrIjl0TgOePXva3n33bRmXk5YS50mLi28UtxxsabcuqQBxKlAAYkks3gnSCYrjvzmGpQuPCtDn6sthDKqSGPx55es33IpeEBqKVme1Uyb7sQghdxuaBDJF2BIjvOeky9eEzmWhLpet2a4dW2zDwID1dnRIjVOaUrckLjwfviZAHTQhVwynXuNpRCVqlNoQ8+E1Ump0/a0Db7t6h8qyYWijcM3wn2CnQFQq1jhwtYTcB/9uBX5AUWEl+FESQLYmOj59SkwBof5oi6zU6JlZgUmVQyfrcpVlf0u+hf60jO7xmWkbGR+za8PDduXaVQH8os9qZQ2MixcveAflRZ0Py56zWtXWrRmw/ffea63NgobqwPcqwjGg7zeofCU12LHTZ+2HP3jZDh98X3amWYvqkuXQdjNaO91mbSpjRNI2WM1JzEw2VSW64oOOg4mWQesDUJxMAVCDNiX4//ov6HANwHTzj7RVd/xV1KazYpQzAtF4SZJW0iin59tbO+zhBx+xFoEd+zCsytsVPiGIFGCTfF2EQCATiHZcsyhVk1OTdvTYETt65JAvNg6AmhU3d/bYutZ2a0MlUOUAIiZzUW2ehv5cjgQ/FEgtPL958JPwkVuRSgzUqvAa/6Mm+ORBvL2ACGNaxB+ofroG8JEY4paNIgQmdpWV16J09prYa3e3gN/XZzu3bvXRDA1qGEoJ569JFUNlC0Cj1HSN8VihLQFouAaQUpLCER0Pi6uHg0HXrx9yo989hMWKCD2t/AWACEsQFobqvsVeOKvfV0CyBp8SMet7zJ3BO0c6qIsJ2V84IhilwBK7eX1rQSraHCCbZ/H/OZuS/TA1veDDgBjxXZAqVBNI4NbtzQLB9u2+hSfbzaDG4khQSV0lJyslEfys1MO/+h6bpL1nC1OzlpEW0N2UtA0tHbard621640Maxu49GbSJCP2pfLWQcSSF6Fm410dUhS8w92L6v8F/+u/HweiQNlusoryvaA2npStO5JbtJzaZVF0AHgeYGS5bKNUkv2MwpRvT/jkIJK+6foq3Nazr//VYN7brr/RsVE7ePAdO336pLjhgldcqypkq3RiJFGzKkiatEBUnxGppEjFa0v/bpFKvYDB5Y+NZCl0efufLjLGjpHhKyz2qEoMHPBSJfQwTgEe4ir9Bqxw0yRbJEe/0eKifgdzZnq6Ou2Rhx/yUQQySNyRwDLC2FUAydU3ve9LJEvl4xw7L7iPE0bSQlwvrvQZIsTepqNjE5JOSevp7ZORGzc6SB1Q5A5DPihMvWQfrhOeCu6gUjLqANcydhUbbg2uXWsb1q/XcY11K+9kj+E97nrXO+SNaRGMwGDagau1ChIolk7HrLM9Y71dHbZ100a7/7577anHH7cvPPdcMCWE5ZNLRZ8awi4bJXF5Vk6dnMvbleFJ+8+//6c2dn3E2jMttiR7a117t23uHbABqfFNUuvjkkKsNcfIDzqwA1UuUOfCMqJF0AdIhzpV4PXrQeWun94CEfVQ/wtBpPdKejCrtCeUv2ti5KhygKg5lbH79t5na/rWiNFkxBDCtG9PEA6cBf74oMZ1KaSKYHwanVg0pzsbpOMyToyOSba4+E+/89v26qs/sOmZcRuoLNs6KbzPbdlp+7r7rbtYtValVVgqWr6aF1ljYIYKmIIOZMR//dgcBc/W37gZnO7qQXVpJRFGKSboCEQxSZaoJA0jImKq7JgqXVmzor5dlYpZkp48K0Zw7MawnRi5bnNKbFEN/dATj9i//Nf/ytYMDshwFrfXNTxppXxBRFQSQYgIRcCoU42KwKZcEYOgnmAuYjYYzzgAstm8b/9/QHbD7PSM/cI/+AV7+qmnbatsGbaWR1o0iLlEZQSL1ChFvYw6Ko0AQBQyKCgOHeb95PNFK2FrYDBHogJHsExVNJawialpuzE8ItVtSpInb4uFivdL4ZJH7UPaxMRVEipTJp30fVhZUjmTSlhLc8ons7W3toh5iDiLeZVfTEntTP9WTWVENT15fsz+4Jsv2Xvvn7DS/JwvOlKeWbBnd++0/evWW7MA1KZvduLhVNlqbNWv8pUkgZgfhioXAEH5kThi8HCyqjq42Z5BPYR1URHoiNhRroEAIHH2CKMcZAMviJHdiCzb4alxe+3aRct2NNuovsOinf/81/+FPffZ52xoaIMYz4cp6G8WPl4SgTE1jqsJ+jiGHawBwnXGqd90Ol67flVE8qaM2uveD9IqdtEtg3mLDOqBVLMqJ1hbjoXhUekgOg9eSx8sVPjTbyn6d/S4V/jqax8RCUw3r8bUXPRnqNEa62pIXAn7SkoCkZtHoldsE1y8S2pE3Lo5ETXTxlncIpVJ2qYtG31q9bIeRrIghWqqj6qOvnqnkvFFB/V1FEbRi4OHQsAmcBowAa5RthIjqk+fOSfpwEbAkkiS0ilf9y3mhO0ZInN6F2bggfz6gfqqg0nfZWAoX0A6JGX7MIgUNYsdugEFUqqtpdnWDw1Zn6TUwIYhG9q0yTZvVpR6tkUSZ5MIauOG9R6H1q2zDZJi/T091tnW5uvCoX1g/6AWuvQTh/fN0pTu+OSkHTh4wr7zwhsCpxhJTZKFjlTla7Cjy3pSacuoHMQktCMmoSdcEi25FFJd0YgEFRBJwpCuiEDhrcw/Cu7lDuogkER4Zfld/9M7TI2hIcqqQ+ygcUnp64uztqR6yAm8aTHKLRs3S8pusc7Oznpd374QFuMnBgAEWLxxqZCAdLxguuCctFRg8lvOJRfi0kc+eycfXDzIdE0cDFUpSAcY6U+3vCe6/ueVxvd05lE/AwDd+g2nCq7XKzFIxCN/FAovEKvIsH+oz0Wpp+1/9cfxrrnkUJ4yLa3W3dOrZ6RdK88z07P25psHvP8FcLntowYK9vZRQ/O+c+Wqyi/1FNe50naVUVzeF46PRiyVkEqnd7aJeB9+6EHbs3OXXb9y1V59+WV78/U3LLuY1fNRn+sTQKTRwefn9Xrz/PoZQcQnwp6bm/WnMlKv2HQLrsCbxEWpMuV81r8/ONBjmzcO2o5tG/TtTbZ39xbbs2Oz7di60bZuXGdDawdsTU+XdUnqNDNOT4BmscRKqSoJWrBiWXUYT5vkm2ygJis3xGwllrGjZy/ZW+8ctuEbk7IbBedITCq0ZH1rmxv1l7Nzlk/qnVRMalVEqlZANdg7TSKBuJhYQhEbiM5w2pQyI2UYsQIubpU5POf/4IyyB29wEC2hGemUDnwfcKz2QgUnMvJ+YW7eO7T9+dscPh5Eakg6qNxY5khYXToRGFuNACIi6ocv++ogCtywZJwYjBVTjSmE1VEn6xAVfu9m4JIO4S0qmhyE6YWR//kLfzECgjUamgQQhpgw7o3Vg1gEpaZrfI+VOnEMuB0D4OJxX6EGNSwh4xNj/Nx5Fmw/Y5PT08GzqLUCR4RpAYpsEhaqOWopMKYGlJokNRLVLKoLOoggC9Yu7v3Q/v323/7aP7Gh9evs5PHj9j//9n90IE2MT8A3yJUbzYDHQaSyBOcciZwpC8pDcwaHhFTPhXl3Q6dTcalfzWoPpnZUJEniMqiTll2YsfzitNpm1mqVRVup5fVMUcRcliles7gkQkL8Ia40YTysrLMiFZjR2M3N7aqXtBUqUsOF02i6zRKt3XZxZNK+9dJr9sbbh6T+tVsxX5Vkjli8rcMi7e02LACfnhqzkXLOppcrtigVq6b6oiz0vTF0CwAlFRl07OMhVUBKF9o9lNdDeNRdp5P6OSG4pXMqTyEckc4QKhg49iL9anRmL8zPW1Wq780kbmOoo+JjggjOwaR4M5AZZX5JwCBzFYnyqsCEMAZASCMK5J2D9YwDoGCsmApGg/HH7VuPKARnfMmjfn7g/EPxVm3Xg37T1xCpBepjRN8EVKgmTPyir8hhJG6lDOooe0aSp6JnWEoLRwHuZlftxBTeO3TYLl29qveWgnUKxPUYcBqVsY2blxHh6NhO9lLFkHi+bgBSQcBqkITgnMUNkUr77r3HvvHVr+p4r02Myqb4vd+z733nu3b+3HlSuBVVR7eAFBQtCNhbUjUlgXynOzVNryQJew4VRbwrYhJskZ9girTnQTIksiSpxF4/SxZtZABoyZYrBY/SwXxxGFYQZUUd6g71iHXflqVaLa3gdYxaornT5vI1e+PgUft//dZ/tDNXRiypa/GEgMvokIao7JWozen7OQFmrFqyA+fP2LnJMZvWeY2RGaIL7BifOyb1mbGSHAMQBaXzDliVF6kV0oIzD4/6ETR6EMkrDyhAyLRFACLFOu25hJMkKubrSwTondsdPhmICBB9PQN+pAA6QD70ryCNWLMAsRreYz9UVCN+B+PAgI0O/O8V4qkFUS8Edwn1azdj8J2bQFZjEKlC7/nWN73Tk+/oti8VWxKISiJ4cVBGBuNGZkp4SdyJKeJZSYys7Im8CHtRjT4uIh/OZS2v+wV9o6RnSvr0oeMn7OzFSzLMiw4spDEqAlIH8EDEvkGwSA2iheQCgpR6h5q1JMaCV0qEFJEt2Nmasacef8Q+9/STtnlonZ07fdp++NIL9vprr9qYJFKJYTEM/VFe6Ueq0qOpVFn1k2t4R1nxhhEY9DcxDTyZaVH9SiOQukIdwompJ2daAldM4E4KPPGGisWQQMsMAi1ZgwDEmm/kGw2CoUfefCpNpao6Vb3VTOrYUsQ9cUdOXrTvvvSmfevF1218Tu9KMpWUhxWpgTXZYnnVyYK+WZZUL4iQry8s2OXZWbshlXWGboRYwkrKb0ltV9F7yyqDD+PRNwEXO25Id1E96be3OuEWDdw61oO+xzUOlDdgO7QLmoCYI1oHBVIslwRk1Y8z8dscPhmIVMFkhAzQSH6EuyvjLIIIYFjwo1QQp1ZlEfHipBIpX6yC91kGCbUQ7gAI8Wp5f03wgQ/GeuUQvILqkXd9uL/SIS04NOApq7LwSvk2KLyuelrKiXiLSCPUFIgtrrwmrBqNW1bpzCkPc6LJxbjsHxH9ZdkR5ybGbF75zoqoWOB+SXk8LQCdOnfBJqZmfBF35vPQSJQxGL4DcAKp0yiQACKODiIRsFrOY1SZ4nd2fsb6ujvsmaefsF/6hW/YhnX9dur4KfvzP/+mvX3gHdlg8yo55YtYFk9gWWmozGwzD2hwUOCIYPETSAYwVUUgEBGA8qFYqpOa6gRQ4ZpuFJCjUuEaKzlJ6IIDKY63UXlimr60T31xxVi+KwASw4pwmkQFJNXPQtFeeeM9++O/fMG++4O3LFc0KyxF2W/a5pW/qOwpVtgp6NslgaciEK00N1usq8smiiW7MDFpl6dnBKK4g6iAh1RlWlLeqT1AxJAiBvkmfKCv2lntE9rKQQiPq0NwDcms4nuZWcYM4CCVAA7tBO0ETF5A0v2PTOpvED55P5ECKoZy7Hlo0rnIWWcNVlhcsAsXLti777xt5TIjlCvunRtq67SBVMZa1fjRohpSDYR3hUUggwridf1PKTkl8gk/J/3giOPAJY5AQk89Q2YAUeAlE6DJC+JbEdutSUmyBFZLIu1ED6kvSkpmUdlEgMstrdLTIzYqYF+QvXP02g27IsNzTjYTc1KqeMuSkqLJhPeNsd0kG1mx/kI6EfcRDCzcQaCxUO8AFKPBcbIgpdg6RFl0OwzVgoGgPFOQWlETAFqVh82bNtmaNQO2uMjg0asC6zkbE8EBgt7ePlu7Zq1LFUYc0N8DeHHIMJLb3dVUHWXnQyqjS2aVkXphHhWSmYmJEoPKiOxV1V9c+SVieK/QHrKBWKKKWseTiPpGx3FzW5eNC9BvvP2+/S+/+/v2vR+8apevjwpxCcu0d/sO4I2RhA1t2W7969db19o+a+5ul+QSE5JEX8wu+nCppIAiDmeLswu+NFlczCDd1mpRSa8CIFc+YQSYAMslAUBRvM3bHtqAHkIJ431ERL8WRJ+g6VH0oHYoSquYrZVtNL/ooxfyagzG/XW3d3mH6+C6Qbd//eXbFD4FiLzF3J3LUSSrfAQ5yQtEDBt55523xM0YZCoiUcFWg4hON3YEcBelQMTgUQdQAKWgUki6nmpAFrf+uOmjn0WMNHnoEHCXuwhCFOB5kybnAY8X7uuCki/ofcBTSiSkr0dtUg13eTFnF2RsXp7P2rQae1ENWZTqyQoybLHCXCYG2rJ6KNMkIIw1A2tksKcsqfs0PKOCATR5g3hXlwXAw9W55iOhuS5CYYQBU71hAiyQ2NoWTBYrCOTnLl2yuYVFX0sB0AQqCuPkYj4dgincbFNPfxQqHd9VUeqg4Ut4DWEwah08ZQKFT/sWIXmtkUe1C9kknVoNrUK/eV6SmpHcZV2fWcgJ0Bft1TcOSAK9ZYeOnrCZOeYzkWdm2mYEhpR19PTauq1bLCPJmmqX5MkklZ7UuVzeqlJ/I1IJE+RHgCsJHAUxrSWVv0rnrVTpilRqbFJnzCoDuzawylPcbXBoJPRTUqdioh8AEUxW/6s8SDFAVFU9FpV2ACKpkNIAGPaTaEpYV3un7d93v4+oZ0iWJ3qbwicHEXXvVE5D4TwIikbIz8/5IvDvvH1ADaOKEgdAEm0ARGmBSE34ARBJVLDDhLdmPQap8ffhY/CHlw8VEPsHtc1HBajyGQcHiACTA0tpiVR92D96fV7Jl3W/lkpbVgQ1LnF+TqrFWUmgS9LVp/TMkqRCScRRUgMvSd1bEcGy1SV9RqnmtIi2bAvZBV/Drr2lzTpF+Cxn5Z2cgBrAKD8ulRQhVkYL4IrmN1WF+ot9yAQ9lsBifYdcIe8T8fr6B8T5O2xscspBdP3adbtw7rzNzjJ/x3zBRZ6j3n0qhMrE6kXUEMOU8CTCWABPRPmPCBAAKOKj1wVCEWuT1DfWt/YoggU8QKtR6hMqVUkSaW4h752zJ8+ct7/67gv20suv2enzFyWdGi3dLOkh4MA+GW3e27fG+jast9aBHrOUVPoY7RAQthpIUd8oSqrU9JVlmByrJslmUl3OidFWpEM2tbBxNeaAbogxpPSdFuUlpnZFmWRCHiEA0ioQqUyQD3XjHa4ASX9V0UJZ6vmsaHA0J0lUB1Fc9dGh+r3/vv0Oori0BH/5NoVPp84p8xSHP68sFYSQm5uzc4DonQMiHBlvgEgFcxBJErWgzhUwZtWQSKG6OvdBANUrRf/7ud4Pr0GFAYjUEOi94nYMoWekNGPgMKdLkn5VNQbrLDNeraLKjbd2WFNHh1UzKbsuoj4+MmKHrl2zM1PTkkYidNls1XSzTRYqNlNasqLarEEASmQEe6XDaAP6ggAB66wxuhmJwFgsFk5k5HWDysZCikWpXKic5JM+H1QsgMW6B4zRq+l7VTGRQP1UKcX1fViQ8pBIpay9u8e279yj55dsYnLSLl68YZcvX7CrDBcaHfVpCSxXzKQ/gAh4naEBHF33vWcFICQQXjDSYaMuZsUGbYKdisBOWgJJ0txusRZJQUmKSalaxxlE+tqb9od/8mf2J3/2F3bp6nWBp0HMosXXeKgKqDVFFnzp6eyydWvXWktHqxWVdlUSg1We6IilQ6Ml1WzpeNpqpaqVciX/RqKlxZrEeGZkN0+KwLN6L6Z2YVUkgC656vuvZlSfohBbUpq1UBI5EQQACt3fAYgAk2hDbU1kNmtxFYhmJJGyejYmhtIhWti/b7+tk+oZT6fqhHV7wseDKPyYjqHblaCyqFSKKkxBatGFC+cdRABoebnqI3mHJEL7V6lzPwoiqDYE0S3QUDGr/whoIkgf+lHYHh6gSE8RWKTeiNCRQg0S5dGUDH8Bo0GEjvPgqiTIyfFROzE2apd0PimboiCiyMeSNq98zctcWKFPpKvfusVd2zp7xGUHfIndZhnLqFY1lYnpFErO5uek/k3NiUjhlSqXdHw2ymLpXUDCRlnBKO9Gt8diAFWcvwHJgHNAxO4jxvVtJapySSXTs1xPsaQU4wxllGPL4O3E/kEiIZ1uDA/7Kj8szE+todoy7g8gAkrULbaNWVL62DWupomwYmI22DsNEX17pcnmRdjDI5N24uRZO3DwsL124F17/e137eCho3ZjbNwqyi/ARI1ELfa2RgVV+9GGjMiuSopmpTIVKlLbJFWwadylrHwllCeWco5IylVVTzgci0oTZ0INbULtl8deEfDwoMXFsNJxfUv1S9qCkAOIhSGDEABJxXJNxm3gOo2E9lCozpVEAzPSNm6BCPUwJu2h0+6XTcQ6dP/lQbQq/AiIwIFCYWHeLp6/YAfffdtVOYDUosKF6hyS6KNBpOggClL1iqlXTvgXsCERmogf3Z8lgon081R1raLIRMGGmK4rIpny+t6MOPGl2Xk7PTlupyfG7LoafVpJLYqgCom0FQSikuJyImMdAxusZ3Cjgygt8LV3dIqYm8WBEyLgGeew5DMtDjsrrs06Aou5ok0KTOws5wsrijgAEbwTAkSSxWQ8MxEMjt4kQLEfUhnwKX8rSCfRyOjElOKk1CjFsUkrFLAp8Sgx1kyEJrVvRsAZGx/346SkKDstTM/M2LwM9YIkPOkUsDkUGa2Nasao9HJlycfW4eFjq8nhsWm7cPmGnTh1zg4ePmFvvvOevX3osB09ecYuXblu41Mznn92zsBec1sOxiVViz1xo+IiTMNukIQuI00EIpZX1oPuAEECY6uhIjY2Mvg2pXaOSktYsXlJ6jzMheFEuMP13oLex1sWF4NKA1i1ZVRtjHvV11Jw8IQUFwAIIKk6b4FIFzhHErlNJMbKVIgRMcxpHXN6FnWuE8fC/Q/aug23H0RSR+GvPynoth7hMXTRgOQZUqNceIlkiF6/Zt/9zrft3/37/14GcVaNl7c1uvfUhi22r7vP1uK6nFnwVX6qTVJpomoYOnNcEonDOZaoDI6Bjut/njNKy6xF2Tt6PC7Vx2fX6rtFNUCDGqRJxArBotKxes+VubydFKcdZ/g/C+YzbECqA0Pj59RQs6gl4viZHun1AlDvwHqpOLI59I2ijOKoc1SpcuWsJMAFGx2+bNncjHXJFqKxVsorPgphbmbK+nu77f59e+35Z5+27VuHbO1An3VJzXEXh74FEUCQOBMWZIONCzQdknYMEmX53x++/Iqk+CW7cWPUxkYnfDpGiyRgX2+POLvZ1cuXdH0UOrWO9jbZZVKHJhddKq5f12Xbd+y0nbt2+cIlzHJNptPuAofhMMOWxVLo6J2QJD599oydP3/eQbiociIhwElcdYhqiuRBZcMhkkmmVVaVolzzZZYh1rTsxrSkOCodDIPBugvKZLy7y3qGhqxXMSHbiWnpMIukiHdZ5xPXRuz6pQuWm58RWCK6rjavZm05O2udKzVbn07Yrp5u2ywNYlASkyWmGwXUJrUnzDqgA6nUYr7B/CPh1sEjlX5JDFo2V9OSpJuY6Ew6bucKi3ZwbNjO6jgm+7tFbbt14zb7F//sX9mjTz9lqc6OgKxuU/gUIEJPRQ0RiMSd4g4glUa354av2/e++13797/531suv6DGy9maJYFoaIvt7+qzNeJOIYgqqsCaQLQkECk1pc8xlEKULeAsgAqWwx/AhZvDpPDC+WpAOsUWYr0EpJA+ZzMMgRG3PrdQsPOLRcuKE7ISUEmEwlpky+mkNcpAT3f1WqazV3p6l4MnnW6X6iSpli9J9Mtwlj3TyLKStbwIuWpTU8NSpS7ZFO7nCt6elLWK0LMLs4ZfozWTsPaWlJS7mjWLINau6bWeLlbLafbR0czxd5VKxI2Kl5JEu3Lthr0tFYoZoUgyRgkszmedrzB4NKlyCa7e98ZgU4YY0ROPlMK9jsOCSXdIOoxz0kCKoOIR0RqwgXBieL+R1Ez60rDbmIvE6I0yfSaqt2CWLetQqFKRpnonGHuIraLvKiccfctN3YebQTY51VVeDBKvZ8v6QevZtsXaB9dJ4kgyyoCJSY1K6M3ifM7mBeIFaQTZqQmriSEl1HqtooN0tWCpiuglEbXtAuMWMYp+7EQxwJQkYMBYAxJlBSiWB8BzCogYrOrRgaS8SBpOp2J1EN2ws2Lo401mbWrf7Zt22L/85//KHnnqSYu3tSpRCnt7wicDESJdj0GoDiJRM+Of4ARkZn5k2F58ARD9W9kQsx8A0T6BCEkUlxoUgiiURIAIjk1xXI37AIj4NiD1uzh73LbAaGajL0Olk/6LOsfuaLPZRRufnrbpxQW7Is40Gk3ZlHTzkpKoxVTRUs/SLF/V22ut3f0WS7VJLUzrCwyRyVgxWxGIiuJaAoPKu7JUULELUuEiIlq2ahy28+cuWHa+KIKPez9QqZiztua09Xa3Wiqubw5fsYW5KXHqFYEsJXAmfYBoW3urCDXqdlNSNiKEPzE5becvXpJtMuZMQvLUJSHbW0L0DKdicRgm18UFHlgJnk8InbTQBvjng2hxbEhdZqF7HApKRkDC6aB6kl1UxZWNhFe9sQdRQvnC3mOzr05x5ZhUoEIxb2MjN6yczanC2MEuWEEnqfrO6HttIuwMTEA5YemwkiTmbHnJHTIF2T/W323JDessvX6d1TLN7u2MNEilE4gahVWThlCRajx99aotjF+z5ZykULLB9KTFJZWSAtNgS9o2d7fbDjG5DjG1dqUt4eNlh5EHIEIShSCSmqy2Zo8qJFJOzGc6GbWzYuRIonOlrE3IXmsXiHZs2Wn/6l/8b+3hJ5+QFtKsRG8fiD7WJmIGJk5jGtolg3PN+hUoXQSTLWTt3LXLMkzfE8EVXYduVeE2NHfYmmSLNeNBkpHMEJNl1g9j7Sm9C5eB57M6D5fYtpJxVKgR3mutBpRyLZ5FX4++oyxkVSmFpOwaqWcFEfKICOfC3IKdGp20i5J243p4SgAqtnXbjDhhWepBY7rFOteut771m6x7YJ0MeHZQg3urbPqumkHcd0kEGhAtdh1T2JlOztQH9gFlq3qIETWFPp28d5rWpL6ttXvvu88efexRa2ltEeFK6glcpXLBctmszc/O2fj4tF25qka9cNVOnz5vJ0+ctutXb4iwijYg+6xFtgy7ZgwmmqwX9UO6fFx1mhSxtksCteCJVDlrUqvEWC0hqeYrqkJbAEWShE3L2DWCaQpIqLTUWwDcImkYTUnSZJg3FLO0ANmr54YG19qD+/b51O+hgTW+gEhO6mTDwqI1l6rWq3T71W5rxADXReK2o6XD7u3ss+1SG9e0tVmrd0Q3ioFJYis/ywKiM1naFLtIUkqaumhB9p2e8x019I53GC9XfR1wcapAwtJnpDovSDIy2rtFal1KJc1IbwsZKg4LNZebFBwD2gFggWoXeOcaJY0abUrq63VsIklbujWYPdwjZv7Qg4/aoGwiRtn4i7cpfOzWKoAHtQAOiK3HnH0kCG1HSZiQNzo9aS+9+rL99m/9li2OTYjL5G2tWMYDnf32YO+gRLX47MKcJVaqVmsSMYg14TxChUGaxUTGSyJMpgfTk075kEhLkjTL4pzjqhAGNS5JNaqIOLK6NymiGpV0G5uZt1lWshEhinkqZxGbjSVtTjEuAu/p77Puvl5Lt7RYRJXn/Un6Dp2NToS0CA2lJsHD5INmveSSeoyIBviASVKgLDvoxrVrNnpj2PIT09acabUtgxvskccesH/5G/+tCKgkFW9cBDJjpdycLUklqckmmJc6M5steszJLrpw5oxNSHo3ijN3i8NuEuEPdLVYT6vUTX2TMXOs0Dq3KLvLF5gsyTCviJFIhVX+lkSQ9H2VxU1RaXHtb9u5w7Zv22YsUpgTEPKKLJDpTpxUozX3ttum/nXW0ZS2gUy3tXRJlRWYWKTk3ddes1dffNGWlLcG1TVzbbdKGmzq6bVBAaZH9lGbgJRWWxWE4oVGAS7aYOezeXvr8lU7NztvNbVLqq/PUr39VpbUqrAoiOonKtU1qnPf8U5tJi5rtYUZW5C6NSvJXVmcsthS0doE9GXZoHFx072tHfZ4e5/tXJYkExOLCOBMZ6noXoW5YnUGHDLeaE0SVjZRUSCdkjp9YnHO3hi+ahfFCCeSMetMd9rOzbvsX/+rf20PPf6Ir/bkRHabwsevgCoCQw1G+iFafXAnGVAp6AyrKmZrRbuoSmH7w9JCzhpKNWuTeO2XurRWalOLVK8GqXKsvbzSKKJkJLEqgu3wg5mJ4iTi8vRus/M3ag1DY3AeNEjq1ATCsiRPVnrzmAj6iozr81LfLmZzNiyuOaE05qU25GWrFKWaVSSFUus2WbMIvL13jTV39FhE3GhZ3K0mg2pJ3xL2BSAdxSEADjM4kSLuXtU3KlJpSlKpiuWqr2hTVJlwa2NjMGEPlYxOxFJWwCnkrLWjTUDNWN9At20YWmM9PZLCfQO2vl9MZGC9bdi804a27LbBtRts9PqwTY9PWlTEt1F181Bvj+3pabc1UnX7iQL7Gqlca6UW9YnQe8SZW6VmxqVOMX4Op0FRzKxReUBKFpVPOpm53y1wbNu82e7ds9v3nd20db1t2bvJNuwatM1rB2z3uiHbKnVWRfAVfd58/XU79e57Nn9t2DrEPjalW+2ezh67p1tE3NZum1Vvaxui1q966yrgpRNjWBIQ1JY5tQ9DayZyjDZEQsreE4CcQkU3HDEDAHqwJkSgUvp0EdW5q6gCCWsWYtcWRBNsi8JIh6FMhw2wTp4SdsAoqpndqcBoF951MtT/eMJ5jqWEc0p7TMzuipj2or6VFSNmSa/+3rX2yMOP2Zp1a52B+8u3KXwsiOjHYHhIMEqBK/rPcw+5YduYlVSR19k94P3DVhBhiPqsWcDokWE/ICJojkudU0VF6DVXFC8hoUBVpLKVNoYwHaXLVKYqnIVq8xLF1XTaiuK8C6qgSQHrqlS3a9NzNrKQtQV9p1ALFsyoKZ0mqTEptk3sH7C+jRutpbNbdgneqiYHTDCqWd9Xg+gfGfBzQESZ6FhlTBpL9zIFvFgs+fRtfjNqoSY1i8U6kgJze0urM5SCpMXU7JTNzs/YolSwJQZ7xmSQ65vNUmVbpTq2tnRKGq61DqkUSdlFB99604YvX7JkIW/butptZ1+P9bW1yM6suQ1Cv0YqmpR91ix9vs06cbunVI9NMuCRCKKChNqEbUpSIp4lSYTlnGw45RdXNE4J+ppa2lss0SKVTlIuJlUORhUXo2Ic25FzZ+xPvv2X9s6RQzY3OaH0RWitkqyS3Nul3q1tb/fVSxMi2AiAVboNqpu82o71+vQ1y6vNCkpvYl5ST5y2AZspkwnWxpY6xwiFsuqbKSaM04uJqH2KjOo6KeJOMu0eySsmxJQRBu1ij6ak5u5s63JbGgeHT89Qi+HiDvqJMCfQHQL72bfjEQ0UBdIFgWhE9t3luVkrivnikWXn+A1iXg/d/7ANrO0Hef9lQQSR02GGfYKn2D/uup0MWJwC0kMZIjM8NmrHBKLFqRlbkRrTLNHfKcN+gA5E6bxRKohp4Q3wTCIeHnEmgYOVcRjCw87kzMIvoveqAWsASFx5RPbHVaknl2VfnJe6eH1OKpzUm1qT1BqlwUgD8Uhr6+4Wt99qg1JrEq3t1pRizk3kFoBoDH0jnKzl5SMn4uwheBgZ4FHgAUiMhMaThbGvhBxEcendrUgHlS2NB7BWthOnTtjbBw/Y+4cP2rAMdAiZBd5T4oJR5bNRDVmqLNvk+Jh958+/aWPXrli/iOjewTU2KKmTVpkT5E+Sb1lSr1YUd9DzrEHeHElYp9SivuZ2W9fRpdjj+z01qQ5KYlpVgbcllnCV+PKlS/bSD1+z19581Y6cPGHT2TmbWZiy6blJmxmfkip5wd587U37y++/YC+89pbqrmTrZefct327re/qtkEBqVeqWbPy06j6WBKBV3MicjxlAgIr9FTEc6qqg7LKVZHmMCKVOs+zooW4mCZjD73jU3VWqgQd0Hj8fCc81TvrLTDnqYVluASivNSvqgg/nI2cyBZsd1ePJLPMAOpEYKS1fHF7/XBJxDVFd24JQIjCkmhpQVKGSYGAqIb2Qr02JW3rxq32wP4HrZdhSv+lQYRYhthV/kAS3fy4yyEX0UBipA6ieTXUsiQEna1tMkz7RWit0ktlxjuIANAyb6hyfMkqGaEYWKzQU1EEQEV9rCAOMqtnbkhlOzU6ZucmJu3anHR9cb5KFJsgaotlGdeq6LQIa3DjkK3fvMU6pZc3SKXIoQ5i96hRgrWdwb4IQ+lTCB8gKnAwLAfQsC4EoGGUQEUGLtO+GQkNyFjRiI5HVD4IICIpjMG8VF4SV6VTFTe7KkhcEMfKyPiwnTl92s6cPGtXLlyx0ZEJm5nP2uT0vI1cu2rvvv6aFeam3Vbc1dtt3cpSk/LRKFBEBBwMclb0ZECmECoJI+NdthVrTLONPasmdaqMvarbbhEtnjM6QpnKwEo+iXTc4iKgour7+sh1O3X8iLSEg3bivcN29OAhu3Tuom9VXxbr6V3Tb5sluYdEtN2MdhZD61T9Z5SnRlzgMtJXlC6TFiTPrazm8o2qVRdFtW9eBDw6M+cOBpasisn2NKmZNTE/39JTdYcccTc1kV9iRNBBUuVfVvr5hVkff8lM5LSe7dZ7O9iIjU5r6MRTAEB6G0mkP3CAJKJfMVAdVfeS/ovKF5LoqtJbyqSNqS1xSfC9O/b4UsLdfV0BDRNvU/h4EJFRKlR5dfoLLimKwBR9oRIdR8fHfT+amdFxgahiGRUuo4LR0Hhy4nAPcR0qD7c2/U6+1JQquaxzxj1VVQkFAWtGhDAq1eTK4qJdEKe9upiXKrdkiybuJukGB6yJswOWlu5e65Yx3Te4TmpLp/eGl9VW9Nqjinp2aTtO1SA+gU8AcRWNhq8fkUQ1NaLPp6lLLX+XqArgz+04EaZJfcU7IUvKYlKvmiRpGxWbRBQo8HncxYwwmJz1ePXqsJ2/eFVG/Hm7cPqUXTpzUuAo2Fo9v6NT6prSjAqUjcWqDGSGeAqwkIiysKy81qRKVt3rWZYIqLjak4pG3NPGNPDmdEoAF6kps7AohkNhO+SlQudnZi0uVS8zX7CmuaLZfFESTPUv6cxSXh2SPBtbO21ru0Ak4m0T42iR5EiK+EwSdoVtNtVutD9lK6iIueiyOxjwFRZlK02LQbD+NSBy93EqKbU87p5Dxhaq5lQWkb7qHkbGljd4L6My8Jd0LMp+yU7KRhTdwHg3SMpvYs0LmJfe411AhCRyoaMYtIj+vI1xFESsLFNgXiAaVv1fU5pV1cu8aIlxfA9KCu3Ztdc6uusdrcTbFD4WRBBQCCAnRidINRQ/nAmoUnQ+PjVp506esvHrI7YkzskifujtPYAoFbeknvVJaqiADqJgYp5gaHk12pI4F7ucLepj17JZHyR6ZnJKQMrJQJR6IJtgWbZBTumWZQs0Kd2uNetsYGjIOqXDJ9taraI8MiarjPtNjUHlwgC8wvQ9QAJoQsnjm/mirul6qK6FgfIGkwB1oqKSX+egIqqVZea8NFpCQG6yaNBvIUBE1WhJqWbxVMJ8Y2BJqtxczi6cv2yHjx63Q2Iyl8+dtSoeMEk0XNqbW9IOolhV3FUGXpwF+CVtmX8kmtH3UIUq0nrYDEAGOHaZ0vZ+HKIkdltzxtIi3KgAhUpVVj4LqgfWpE4IFPf1rLEHOgdsY3uvrWntss50q0rYYBNTWb1vNhjP2Oa2Tl8vO5EvWCyXV9rSFhi4ukJEbRcZy7rPi+/lJIkAEbVQrTXaPM4VPV/SM40OorQtS51l/B7j56Q8O4AALpoA3QfzuXkpIAIF7bA4b4tSc6MyA7ob47azR/mUNGtH4qjevQEAkejM56Epui3EZYhQ32Hl2bJoaE4XkUQ3FhesqjwsKF8t6RZ78vGnbfuWbdbarrLDEKCJ2xQ+kSQKA7ihoxUXt2cESlOA9Galg167eMVuKFbzRR/WDnftymAcy+BX4wIiAISXDqJGCsFj2EadSl+QFLi2sGCnxcUvy1gdlyqTbZRa0NxmNdke4qXO/eIt7d7fs3HbdmtTha9IBVkoFnxAowmI8URajYX3R+nrO/TyY9vgJCgoFgsFH5eGtAEoqHwOEp3TyIwqZhS2T3ZzIHkxHUSZVEw2kVRPqVdi0BJKgYXHyAm8UKgbMQGKYTRRERCCK51stpjyz3LBSOR2qbetUv+6VQ9b2tLWJ0AlV6LWIOOuUYYhQ4ToN2FbkCV0OxFsk+ynuEBHjKE6Ki9MQxf9GFvz04ma7mgTY+lXXOOAFtytcbFg21Ntdn97n+1Zv9m6WzotLlW4qPqYzc5QKstIAkYF9uzl67YyPWsJMZlGST2cJFUxDCQHjY/mxA4aBamzSB1mvi4vRy2n9xcEDKYdMMO1QbbsUjyh+5IkSCK8TwIQU0EcRMtlyxazSm/Zba6ypEZRDDOpdPrFmHZLvewSc2BXRb5Sr3yXQC54+Fn/gxABEOtkMG5uSqABRGOy40pRPH5mvZ299tznnrehdRsso/w57dbTuR2B5H5igNYlKFRZAVh8rTVFVSl3dQ1QiVBEuH0iaMaJ+cQ5VVZBBUIyFEWkLBiPMseIB0Q8NgaciY5b3yRY6lxWDTc6O2vD8wu2oORrMp6XBZiSxPHCcsQWl8R1+9fbus07bWDdZmuIpi1XwP0scIowYkkZqpJuFX0X0DAdmBVMWS30pqNAkgh1DskDD8DxgASCU3ohAZPK44BSDNZRaPSlmFgYhOnHDJpkmAxbpTDwlL1v8E7RRxVhBLOkZqK53dq7+21gcMjWbthond19PlpBxZX00/eVB33ZZwgL5d7/BpWsiOBQeHGyVAXWaiJilbSkS0pSIFaVzl+wBcvJHinKhizpWQasFqzCmMXsolWkAldUfzVJ8IiYUGc0ZWuTrbauqdk6l8Rg8hVLS9frEbDXi7jYN6pBTK9Bxny/6rtH7YhTKKPcJUUeccqOWkU+lXeXKJRV+WVniLjaklnEEJLf02PBaAlsaepUGofeIw3f0wn6ET00iuDpRsgX2Ec2Lz4hMMu+bZf90ioVmaFGqHBOZR8AkOhHJ0GECQtmKoNvUKBfeYG5KAm8LKmI+5xR6Mwi7uvt9U7ov43wsSCCrip4jAL6EqEAnBBCan+pFHCEtMRvr4xTpv9SiYClpMIUFAGRdwqqEuAtDiLnUEpBks09aKqIks7nROTzsmcK0qmXpLItSwqVxMWXUq2WZLrCoLjpmo2Wbu0xqdC2mJd6JmJpkIoXwSukNPOSNMyjYWIca+ExJZudsH19OBEsjU0D0SYAiSO/KdGPHoNn4KCACgmGQ4LVfpAAuM9xkHiK4ograjQ3qJWfmNSI1s4ea+/qtZb2DnHBVmtWmahIn/uvemHGKe5dKli1olSUhggOtawiCVVsomOTnncBqKmsWBLHF0OIFK0aCUBULmdtYXZS9uiwTV2/YdPXh6UeTVp1PmcZgbJzRZKvKHKT+tYwm7eUPtcRS1krknFpxZISdl2xpA119Nhagb9T0qBNKjREHVeZGHAK0wMYgRqliPNDde2DdXVkxAd9aATWZ+dZV5EdRA2eBgzDN0UTkGKoe8JUSeop+8LGxYzaZeN2KV8ZfZPhRR50oCUcRP4DalP6iEWig0jMTZEFk7HNYN4+skHfZppFW2uL958x0DZI7faGTyCJxGXF1VV2DwGIgiN/PmxfREH/R6cIBakCiJjAB3AoGBF7hU2OA0kE59IfFSLg+NAQJYqNFIvTgZhwYqzqOZnRUtGStmZosz3w6JPW2btGkqbBFrLixBU6ShMSPjERt+yPbN5y4sDZLLtlS5pJNQRMSKBgTQIRkvJG5JxGhgkgYVgngaPbQJRP9z4ceQfpE27W5etccy2Z9Il15J8pCPPKg3fSyjZckH3BaAqmQvRITdm+a5e1dXQK9OKcqlcmGTIwldHpdDiqQA4gtn3Jyg5aKOc95qpFcVsBLdkkKRdXy9EKOAhkpOezNjcxbtOjY7YoW7ImqcKa2NWFnOWkFk/Pz0u6z9j1+WlbSsct2tFqy1Ipr0yM2pTy1yD1s2ftGp9esqJvswYBUzkaxBzwnKIzMrGuSap1LJKwRGPCkhHZYPqN8waPIGUpoQKqPmh/Bx3nirCGKPVOjmkH1Tk2HANqV1T+quoxpbrrlArcpZjSk8wtCu0hfcJBdDM4kII/JBGbhLlnV7TKVjnYgz5YWo9Cj8wMbmNdB5XpbyOIuSorPyFCWGxdz/dVl859Iyo890C6c2epJwllduOGId+jlPk09KJjn+RVwTmJbTYWXsYDJ+JjS0UGMCLi4XRlSQqkklLWNUx2FB1xGNUCQ2C6eiWBFJsEJkZzs+wvc1WY++MTv2TAF0Q4eXHevAi4rLQDwIhnOWiCFuAaMSwb54DI20oNEsQg6PZHBsAT9jkpIzBacWDm7mDDKMP6FjNW2akBYtLHxVAUeZbfIhYkppDjjc+uFDlJ31mBvaz0y3qEjZyXpO5g9bOIPqpPQ5NuYJfIyMLZwHLBqIE1EWBcaW9cM2i7N2+17es32rb1Q7Zz4xbb2D/oxD0hEE6nlcaGPptONdjlyqJdLs1bUWAsphqtIJWxnIxKfY5bWd/KCcCLar+CykmHKYuXMNIjIomWaBSzqAlgJVWQVGw2BIiIibCoC8zPwQdxU89613daV51VaXPlFYcJndvBDhQVpYllJQaqOmxRvQCipN7hOgycCMOGh3PkH+k6kECXvlWGpnSjQXZgTqAs6dvxTEbtsWTtbe02uHZQ1a56Fy3TPrc7KNWfHPgmAOIIYfliIWo0fiCJnBhVCMQ1GWbHariy+/QBkVSVHHaEiMq3FlQFsEYa1OdiXt9oqEnJw2UMqCRVfGkouKCOONp8vQCpF+F2iEQW5EACwSFXpJtXxO2rso2Y/8I6AlS0SzwakfyuCiGICDT2R4fgmdURjPE8AOJPF/nfgcVQnMAtLuDWAeR9JIqoeuE0Ep/FKpAFkwqDsRsViACVV9kkOogUlwWcFcCjiHcsAJHISc8CJFG2j1BoUl02C4zt6Yx1Sl3slBo50N5l/W1dIpwmXzzxnEBzujBjZ/Mzdnxm1E7Pjls+1WSldMzHwc3USja3VLa8vuELiSh/bCa8rLiiOq4KTaWC8pgXiEtm8RWBpiFQn1HXYRBRgcgXAdE5XQW+UIvqBRAFeWaQr9pT/7HyUU0qNoOV6eNi76oWMZZWMeOYnmfkAu95fauW3TNHsyioNfwP8hUFuk2EowNJhDqXF9NGsYS5tUqFHujvl5lB9wNv/7j2/uuHD1LXjwnQxs2o3xTKs+J0JQ4lwkB8s+42WyCy8S8riTJlAfG6WJHerjewiSAqABJT4zhHUSOgD7MhblxpQQxJERubEsORmlTZLMnF6p5qBYEJ7r9sZRmQvmmXo1vJABylxVb9gJEqDnJ7O2N4Ruofrrr6M0GhdPSmV15lKyifIiEHEoxkRWWsqvxZ5XmhIsKU/bQim5IdD6pS2VjlhrToI2FOT7hbQqoqrUAPJdmLdqFiUR0Tkg4NQmJR6lspL6IUg4JmvY5F0I1iaJPLZTs0dcNePHXE3r9xxY4PX7Pzk+O+wGJFqtysvncpO28X8lL7lNh0Jm7TLYkgZhI2JQk1Lgl1XcC9JKk5obRzLS1WyKRtXCrcRFHqptokojLEkixmIhCpXDWptIx0h7lg97okUJ1QLvq4llGHZQ/hTs/ofkbXUmIWuPAbAZGeJiBwAseC/+cSKIyoc8x0Xta7s0orK1rLyc7KltjZvGotzc3W29PjjqCAUIJ2vJ3hY0HkpKH/iHy/Thr6P5BCcHpfPgpjUFxkcHBQOn+7c1c2nwVEC6WicwdApJoUY41KpEcDm0hpJjgXWBJKr00N3yxQpZU1hsEwDCQ/O2OLs9NWKRcEIqUhe6AmWwAQUa9Uju9pirELiBRJN9TJb1vkU/5/wAGD8zBwhYYPIjXF0ANGGJJXQASAKooNUn8YsrRQXbbpggxrQKRrAYgCrkvKDKpk4XcAlJaIapau11wSsZXZOEsGcyRtbdGMGIckhVRaVZUlklKHJJGo54IIfFbENCEpc7lasHPZGTs1OeoLzlelfi1L/ZnRM1fmZyWZJuxcbt6OzE3agalhOzg3bu8vTtmJSs6ux9WOvV1WXTtg1TUDlu/ptkmBc1T5HFfZpmpldyVLx1Y5GbURgIcFQtz7SY2o/qAVCAnZnBbhL7GTRS5rUUnTVqmnrXQNRNV2ohXmUoVBTRmAyH/dAlBQ/5LaSrek52cLOVuUdMM7hyaEXdre2uo06buV69u35NntC59ojQVfeEOZDTq6BCAo1DMT2ERSXgJvm/7m5xbs3LnzdubMKTUo06IrLll6Wpolrpsso2dS4pZx1RGGI+SIrVRDBZA0KytO5QpW0DdLeq6symItNHTtuDhfSrquknBXuxJwELFoItOmkUS4U7lPvN3VFcz3J1UBRXZCg+9aHYwOoCuEwZGiAEVIacnz46qM3hLcRQhiOMoXRFQUAS0vzPk4tT6ViR3ccH54+qpjgNikMrJtPXN9WPzdwaSYWBLHltwW39fTzMVplFooIMUTVhIjm8gX7OLYmF2aGLd5SaHG7mardqatobXZtuzda/c98ojte+oJ2/3IQ7Z2y2ZLJ1I2NjJm0/NzNjo3bWOLcza5VLTL+QW7lJ+zGwuLdmNu0YZnF+2q7NdRAWS4VLIRaQdjOe7NOiiTXV0WkzrJmgpociythfOBpmL8YaMAgnXDQGQ6eefGhm1FDLJF5d7a0WmbpXr1S0I3SppEVAfUE3W7JBzWdPRZrKIHRv1Ti3jo8MoVYhGbVg1fVX0O5xYsq2ebVKbFxYI99eTT9uznnrOEbDdX7QFyXXu5XeHjQaQ2xYEA+bheKkIBRDS2F8VBpIwp8kdH4fHjJ+y99w7K8E95nwwSpSMRt24RCiv/pKrS46UfAwAIEwmFzeQLy6uQC8WSLaqRMLgZDVBSA6yI+iJ0Una1W4N0eIYawefJBGKbPiGI1hevJ5A5z2f99DZErwyl6cxD4AmjD0ehXgA1Q2GlEimHrpKwhT9v0xGA7k4bYhMwk7Q6P29tYiyMnmZGrakMUVRWUR2ub0CE6oNEChZ9R00VaUmSy/AMBlwqZmV7FgTGeak0Y7IJLsxO2amRG75Pz+DOrTa4Y7MNbBmyjUNb7OlHn7TPPvoZe/TRx23Pnntt57Zdaptmmxyd8EVRZgtZmymVbbFxya4J6DdYKAUVTgQ5rnijWJb0WXYwsRjIhIA0qecapTa19vZZLJXxKSPs90R3h8hetpFAtVITIxQaVEdimQKCNJTRYYvMzVu7yrlHdss6SdAOlbBhFYhgTgAIMFEHvoeRaxoBzQGiXKxRKmvFLosBTErrKcqMiKp+GNb0uc8+a595+hkBWW2musIr+l8eRAoBXSKJ0NcDQiIPFCOQP0GB8FYxp+XwkSN24O0DAlFa5LZkSVUSAwvXtLdbu9S+hMSsjwpWnTaoUvGu4L3AvVrRc4jmmcVFm1fjrKji2X+1qgple8KOvh6LCkwY3KE6594yvIECMHORUDbJjkv82xqCshNoRAjEQaRrzmDEYR1AkkZ0mQJogE294FBg7en/f3tvGiTncd55Pn1XdXV39YG+0LjvGyBAkAR4kwJJUZQo6lgdFiV7vbY/2OvxRlgbGyM7HOPZ2PCHnW+2Y22vxzO21w6NJUsaS/LKNqmDNynwBEncN9D3VVXdXV197f/3ZGWj2OIBSA1B5CIbifet98w38/k/V2Y+6e5fjGDZAzPZjKUEEmaapqXGVkmiJsQwHESeRThkVU8AUIVKIBIUt56WqpTRvSN63pSkPLN8e2am7KjU3iP9fZISGWtaucz+x9/+Tdt/3712y7132R3777TOxjbrqG+x2toG0VKVNTctsZVLl9uWzVtsSWeH1Mpqy6q2J7TtmZKdJfuobbWk1ZKlVpNeYnmVdVg23RmV/2JmxPolrbB5qxvS1tjaLlUyLc1FEgfqV4aposqhTeEcoc0rUG/HMzbe32uJXM5aVR83SOXqkCStk2on3VQgCloKTJR2n9IWAFUKTUzEg+bQBhgtnktUWt9cwY72I3mnPXQwHf6NDU12790HbM/em9R0KoMKgWPMOdnPG0SRGgH/JRCFjHh1/ZSsQjLZ6vU3Dturr70CwnTFnCWkrNeI0Jkl2SwCSNHRKO5GhcKZCvpw91jpAA4I1LshQCRD0T1VAsykrmPqcFq6OeFqTSKcNUgpmepHSBL3A5xSIwCQn/ByFncXIXvSjn8qIHJJpKbWexjCMkfcCJdCYhAACu4HACRhAdC0sqNe/5CeFZI8lbJJmgWgRkmRenHrhIDg0keZLaoLtiMfRagtX9lCzxsTtx2XHTEmNQoJdETgOdTbbYdFmKMqz5Tsi/Y1q+3ehx+yxq4OKxfIbGrOWlNN1lbTaAlxaiKkonLhEWWSIXOButavtS5Jr4zq+4wkpSjRbtx3p63fstM2bN5lyyS9Ordtt5Z1661OWsHEHLYuTE4MUM/3Ef9SMasqapxoidAK96dbBN2BNi+XjTah8s6MDllaoFmmsm2VJGpS3SQFIHcs6JMhD6QQNMBSpzhZojSi/gESXrlsokIMZNIOnT/rAMqp7Jggu2/YY3fdfpet3bBRz4MYYXSqfuw0qnSREuT2rsmbT/85ePWR0AA0C+GS/ZcfKJZKIOpa1mUbN2/ywtJzDF2zUO6Y1DR6talcboFDMWRGdObP5milcoNUv0YRR12NbA4ZrSI/VVrBJqdkOI4NWV5G8nQ5xiM90xL7Ahnj1Ximq5eOzkWspZIUYFlEqV4o+tFeZCrYSsGeCQqciEblq6iEM6IOC+vK9L0QaRXuPSFiGBzLe6es2l6EElQ4HBkkODGEMi6JnKmpsMGkuG6yws7XlNnZRJmdqpqx1yZG7PnBC/baaJ/1CMQZncNt3Z/P2UtHD9swozUEODqvIfLqytBZOjs2ZYNneyw3mLElja22ds16273nZtt7863WsXSl7LQGa0m32Y4tN9j29Ttt+9rttn3ddtu18Qa7acfNtvvGW2zLnj22bPNGq5DW0Sv75oJssXG1M/19eGC9A1vtwSiGMCVFhCwayGezVi5mWl8jNV/1kNB5V98YbCiNJxCVUqjm+Uztx1NxS6AWXyZUTAl6wovHDIFtAvvSpZ3hIsoRiXeR03uCiKS6DwaxGvQtfS5qaG/r+ayLxAFWrFyhhrjZOwoBEJmYcFnp0YTm9Yl4eg7OASb0BZoMhIPzLSUdv6U+ZU0pGYMzul7crhyDXfxuNDckWyljkwLVlI5hzJfJYK0Skag03mAeZP6qJJowwIUtfyHx8QCIM+jyApC+C6Ig+AnBOPjG2E/EgmJCvU8cnCyrtEERHSACPICIJTJhKDwVTjwJiMQoMpK+QwIQIDpbOWNH5vL2spjKEz2n7eBIr/VU6/6VnVZI19qAuP3Lx47Yn//tX9vrp05YQZKrWjZHjnVRvAe13LpPnrMf/+hZO/zKmx70vaW5zRqbWq0mWa96rFG5kxJErbZ+1UaPU5CYTVjlpNTxGUnOmmZbsWKt3Xj77bZ9/y3WunyZO0aIaTfGKAg+UYTMoFNUWACEux/1ngXJpqVl0MGKGtsuNR/Jy3EHkeot1Gnxf1Vf5NEkr3mkESeUc6KrwZFhJlQ7iHB5p5sabfPmzdbe1q6b9RQeBLiQBoucLv+JgQ6cW6LCoaYQaMQXnfUvVNY/Rh6jW2/ducP7iiQrlKk6c0fBhMT7rCp3VipEQffixWHUAc8h8ARjsVicOM0q1rU13ilnAgwT4cBGfjxnhfFxnyhG3xI2A2GmfFEnyiliK5Pq4PV7FZJ/qbcsn62G9x+AJ251RVHVoMawYVDnXB8vXsOocY5V1qYsr3IPqk6GZSMW9B24a4kVwD7nxlVXWRHFqJjEsCT0gIiuV/snpgv2XF+3/eD0CXv2Yo/NdLTa1nvusgOf/R+sa+tmqxQRZaQqvnn8uD397HN2/NgJj+O9XAzOWppssK/H/uqv/rP95V/+3/bNb33DXnn1FWPNI+Ju1ybrvBtiRmCbnpjR1iybmxS3L1hBzYHNQzBNwiK3LVtmW3bttC3bd1h713KpcWJm01LJC2pnbamRMEAXgOiYvh1JpJf5RMR6fV9rbZ1VT6ktGcalU05b+kOeU4fQRqVE+LzpoATZEYOOboGB3Kj1DA+6Fw8nVZWYb3tXl9NhEm8u1+t9TsGq18VO5fQIv1P2NieFtveP8/U2VdrEbJXVKJfP+aANnRTBSFJNiohrWhtt6bpVtnztKg/hJJYm4q62ody4DcluIQ72hPJUmfTmuaREeZ1VzYioxEl8NqcqvDZRZQ1pVW6SWgmPYEBJYSRnM4M5qxmdsuaZGu8/qVH90DfEPJ6Crs3LcKWSiyS/aJn/ccujcmL4+hQBWf0VkhCoFEQOKi8Tty6vE1dOiNhkh+jbpvVtcJGwjqwIVXWVQDpJOlhDg/XquSfEvU9LIo3IVsnW1dtgTa3nfuWLsi+O5WfsuIjs1eGcPXn6gj19ptuOibCnGtts/U032833fUQS4Q5rW7Xeduzdb5t37LaWjmUecejgk8/aG08+5yO8J2Ykicql+lSLCS2psfLmKptLiaYrZMsxGknlYjzjlCTWXF5qNJNbZeswVwh1MqP6HZqd9OkQSEkGntapLQkyQ3y5huo6S1XUWo0exlg7aAPXPg1YpTadmRUQJ3J66KTV6xgDX1uraq1hutIapiRBpmqsdrrGqsqTNqdzFZKIyblq72CuKpRZqlLPFQNihDuTA4fKJq17YtT6mFqh75CiLzU5ZWu2bbZU2xKbkZqPYl1OWUQj8zS9iAl2+Y5JUPI/vF2Ayg1lcQSC5ZXNijAEIsZP8RhckIz7YsmMMhmKaXHGDdu2SKw2uRSaVkUOZMasd2zChsVNJqqSagSpawJRTVmtCEyNoMby6dCSWMRnrm9IWq1yRbX0ZQEUqcPgyunBrFUO5wWiaktNBRAhxaoBkcTYBN4fKL4EAIuT+b9o8AtEMwLRbIWaiCkLuOHFoctFPOXl9TYzD6KUzqmOnJsComnZIyqzJC72oqXTNiiJcyY/acdzOesXgQxU1Vi36vS87jklbn5MjOcN2U2vDGXt+e4Be+Zstx3JTNhEutU6d+yxfQ993Hbfc7+1r9ts0yK8tVt32tbde23V+o1CRcJOvX7E3njqOTv55pvWP9JvUogFoITddN8+2/+g1LF9O61lWbNVSk1Uw4qdSypmJ9QeKr4aloCQU1Kx8/XEMZddNpu3cVX4tCQBg3tHBwYt0z9s0wJ1czItUKXE8KpVT0hgsRy8kridiS8nG5cBs0wubKyu9lHbTbo2PV0hEFVaulBttWKOVWJGc1WsrsEwoCpL5mXLqZ1rysS4Bb4Z2ZljVXPWOzNmfVNZG1WxWeKFIDfVYr7rtm+xmsYG0aO0IUAselLTqR28GRc1vSuISLzXoRR1GFIsTDjpKR5CAqC+VUrlWLN2rY94zkhnzUgFG5YefGFoyE4PDHgchRmJcmwE1iVF8BlbxK4akeDmjOxtljhmZWsPpi4SZvW1aQGxIEASvSYEe+TFlFEbcUwGfF6N5FWg97jzQD9gLwQpIea1L3Wi8s0KvYCJ4JBCly7nuFQ6yq6Mgoc0w37yYSwiTulZlpeBzcp9xzNZOzoyakeGR+1Q34D9+PRZe/HsBbs4MWUvnjxrhwWiggz+dbtusr13fsj23Ha3LV+3RWZOlQ1l8jaWx7Cutta2Ltmm66Wa1UvVrbHTJ07b17/+j5adGLfKVMJal3bYAx970D73hc/Zhx/6sK2W1kAoMAZ8YlNihDNUhmirLOfpiwYkZSdJxS7IbkFt55ra6ho7/Nobdu7UWdlV1dbUKDBW6B59y7gARogsXNuExfKgmJPjNpUfN0Jv1YtG6ghiQ33gCle7MzU/BHic9RkCs0zzLxBMX+1cVuGBM+kSmQYcurdPgGSgrASW05JIKKitK1b6aHSkPU4NJ1D4IHmR02VRmxPnuxVABYTAeJhMSeUKj8C5fft2X8CKj+F+VkXLigP1MP9dFTtbrYoQjY2LEHGdQ1MQKDGfE3op8106042+Zg1LVYaVwMNK0L7kCfq1lw0/GPcjCSBgCvVOhf3ZE+1Bon+K/h6CxhMiC6PVGQ51oX3K4WqxEgTn83FUvnCNyqs/hj8lGbArgj09Omqv9fbYyxcu2GsXL9qx/gE7PTRqF0bFbXOsqlButTL812/eYbtv3Gebt9xgnZ2rrKZGkk/Sbk7aQXVVHeaG1dU125rVG23z1l2+XEyfgPncwRetV89k1TreXVuRtM7WdmtvaRWDwi0dvgHNgzjdTDdP1rFsCw3Dt0inUJ0jiZMQp9pkoLvPjr951EaHR3whsmRK19O3p2tZdmUK1RpdBODp9+R41gp5MUAdTddJ05D0IBbhVNmU5a1gY9Ifp6Uiu6qsMsyKXmYEOIgLIDMublL16CtACDB9Ixmb1ONx2TNNY4VsoW0bttrWDZutsb7R6REvMOsribtfarxFTO8JogggBwEHtJ3PHCgWigdxCL8Y+3hmVq9c7eOWUOlY8qRc+ikdqQPiHhlVBrGVvQ9IHApJBydk3gmqDrMqMTo76tPWoMatlp7uHbQCUYGxeCJc5uLQ4F42ZZ9+oHs9lt1VToAAbxSzMsmBayNrQsVQDmrkLSAqZh3Uv6BXMMeF5fRRgZnafFqS4qQYxOlsznplZ2VUDzmR3LDU3Ia2pbZ203bbuvNGWytCaWnpFKOVbSlbYUYGSnl5wmqkSkFzVZUpa29bbtu3yTbSfawPdOrceXvltdft7LkLlh9n+veMwCAbAw6v+vSyq3zUa051jDZR24BdKiaov4LsmGlJ3aQYRlLfyrKSx988YgM9/X5vupH45lLf1I6oekgsJPWMqJd4CoCHGHNE+ElIHUsLoMTwQy2eke44qTwh26xAgE96nvBoyIZ055KIiucy5YGANhOq1qFxmQay3QrSSMqQ+tIC1qxYY1vWb7KOlnbZZjIFaAPRDIzLVdWrkN4bRMWMpwRipZ7nU9ynfMrYJeGBSAyTaG+0FRKrHeIOjOguSyY81NKARPrF7IjlylS9iXLL46oWoFgsKiHplBQYavW8Bj2tI5Gylgo1puR0uQzvKjX8rDhUHq6mBsJFHkYLYDxSZYFIr1ZyIGjL9AeiBOHOdRBJ2lZLNXPVoaRiAogCqBxAXrxwnDPMz0rWpqxSXHyqvsFGapI2JOYxInDlGUja1GJlDU3GBOq1W3fYjftus62yg5qaO1QGGfpS4bJZRm8zSlpEU1kr9VjSRFIpVddkGzZvt5aOpVLDUjYmJvSvj//ADr74so9xZCW7ucKsz8M6f/qcz8Ni5u64ADSay7hEScq+SIjYZwSIvICGKtYoLSMpRjXS0+dh0lC5mtKsgtHoI9anaQ/ZiYQwnpx2shdTlfSQFJoTiKoFjEa6MQTOWh334C9OAwIdIMKbIeARu50IURATXRkymVyFmxK4CUByXtIvo3fnBR59mk1OTAtE62zt8rU+qiGwtEAL1UmpzSyV/p4Uf+XpMkGkCtHWQQQVRBopTboQ9zcDLpnfQqA+wjitlV20fvMmK1eFFQSgCb0xJ45wLjNkmTnpyUmpdPq4aVUUzhMmcdXoYdXiwsnCjDXLKCXoOyMdqkS0RLhBFSA+9pg4GwE9aDQhSEQkQhJXDWR+dVIcxAgImPE7IYKj74v5Kqyj6kuUcI2uBT8BMGGfcgEk7fpxKg39nyAjyeYWa1m/wZKrV1tqzVprWLvOKto6LC81pSBgpZcus641G6xt6SoRRL3ULSShnin7Jyl1DocGc37Gx0WwNQzSrZbdUi6VrMGa2pda89Iuq6prsKPEzj5y3Pr7Br1v6NyJM/av3/2e/dVf/Gf7t+/9qy9viZNkTExKaoGPV5SoUknp85KaLWaYrknY0IWLduKNw9Z3vtuXl2wQA6ANUK0Zs84SlPRVSECoXbADBS4BkxEaDaKDTgEzLS2kSsfnpifEfMSmq7B1CCUwqfJPW7UYJGPomP4CfeC4KqsnVHSF9SKx+/oFuiorq0lZQt/ZKsm8dcN2W9WxymYEKMhCbM3pkAaho8VVy0Umj/cEEckBpDdTQa4pxRwT9IAU0pbxYsylr5YKxjwj1sgk2Hpze7vrsjl9xJikTs9ExoamZE+o8mZqyr3Sp1VpdFIStpYYZDViLw365qXJOmsTMaX0/GqJdlzMcMaM1MI884r0G/c6Xhvcn2H4/dVNDMqFa6PSMQ0DVa5GRjYgCr30oWoDiMQgyF5RHAwbEqBi4hwRcspbW226tc3KOqSmiegnkrU2KPuQWHurt+ywps7lVlXboBoU4xFAVMtS22r13jrf2pyAM1VmlVW1eoU4tq6pFIEtXbXGugTKZGOTZaQCHT120t5844gYXpldPHPBDj77Y/vBv33fXpGE6uvr836dvHRCAlIS/D0vSaGmtISkQK2+b07M7OyRo3b22HGp3rJ/GSGtC5hFSx8dcbrzgtKcJAcSAFVuenLMI/swrKlZUqizvs4DRFZKm9BJPV8GS5XatVqKHAseSEuRgiZaQs3XJdoWeI5Azfi4Hkn/i1J5mYs1IUnE/Ng1qzbYxjWbbLnU2KTsozkxYVRBWABewSm8qRDqIqf3BBFSKOTQ9u9qbugC3OCgv7ooETo6Omz9xk22av16nzg1pgZiwa0BcfDeiZwNTzEkhVBYzO4Ut9JHEwmnDMOWzj+J63Y1UofUkSbGeLmkU1WoMUYzI+LI0rlVwZSLIT8YxxjrV1MaBWDQaQo41MhFAPty91LD2A+OhVAGVD9AF6QPwPFNMemHDmAzzuheVnwwqUvlYhpjMtxzkyE+w5Zt233CI8+dUZ3wfSz0RSczx1jusUJSgnrANpzWVoJKIKgWiGSbrltnDS1LxHzK7djxk3bwxy9ZniAvWTGy7Jjlc+M2gddTde4LNssuwiaqEMEjbbFXAREMbLi3104fPWr93T3BG0dEWl0/Npm3crUl3R3SDySC5gRw1UVRClVMTFi96qFNQFxeV29pvada31clRuQjNVRm3kOVeGBQRIl+43yiU5W+qglJR+ZDdY/lbETvRBLlZC9OS7XdJDtxRdcqa5FamRLjISLRnDIePxwlMOnYOb6Y6bIkESm+2nGsj5zPpPmTIhQVmmEI/mBxaObJdC1fYXtuucVDzDI1f0wnWVfz7PCgnRsdsklVTN65l9QAAYkebQ9OqG217KAmAbJdRNUhG4G5NeVSNwguPzLKAsQFlSmAiAIxESwhiXC1koclVoOTeCWSD+B4dYiYsctQ0ZCGEDcVE6UR9zmQBJoIMD+uY3l964ikRFb1NzIxaX2jGRvM5GSoV1tre4e7bOsb0gINU+IFUD0Gyc+Ua1bT0xvcvmL4EwSNNFHhJAqqfBmV1mXLrKVzqU0Upu3o0RP20kFJne4+27h2g33i4U/Yr/9Pv24P3He/LVu2XAQnu0iAYKl6FgTLFwQOfQqMa4RR4odes+GeHrc5miXdYBqEDJtUuzDWD9sDCVaGGigAEWe7kM1IRS9YWmUmVPFStWe97NwEqrDupb1R02FIYZFpWlV1o/dOiiaI/w2dENH0zPCQ9RI7MJEMq/JNSQ5V19pGgYhFBNwLp+NMmRDXcMcCHkY6xSkrpLqYiVZ+z8RL53No+59MxZKhyjHKFmXDCUxSoU3qyS233e5DRKrSDTanxsnLaGVC13kBgXn9E8pMecDugr6kSns4J4K212K48hypPICIUb6E1h2TOucuVAEQQoRAeR9q1dWSRMxLAQyU0ac1iFB95TrAoYQ0xNUeQcRhyjYPIKXSksVzRMkhGhJ9Z2Mi4j4ZzQzkbJL0WKp644UwB2wvGm1KRO5jDSXVmZRISDBGhgMm7ESmlUgsW0a2A6PhEwLg9ht2+1L/RIcdGBi2Z59+zh1Wu3feYA89+JDt2rnL0um09+8woLMqEVzcvJDvJQRZ97lzduT1Q75mEGvYwgyIvYfEokPV1UC9F/c4jiJf8EztbCpHQuBuUJkFO2uRBEmpXRNSuRL6flR47GnURvqWGFfpMQ71m8hH2NOMhhmSWnZOGsiwvrVcdhiLKXetWmu333Gv3br/TmtuaBHaVEEFCXQxHGxsp4vqStEJVpHsg0VOtMd7Jhq9tOEdSG+XlXigZ9ELkV34I+bCuo0bbeuuXe4pQk2ZUsWPiFh6slnrlWhGxZvUh2I3mdQGiIABi7g4K3Rdna5vTdVbSpWC46FcEoFAF1PSz3HVchscB/BiiwFqKi8SrlOB0luOKYXfxR+XkZxoVAa3ZbQFtC6J9E6Ox3PxPez7X9zqGbxvvhzFTLlrqC8xDmKZ06HM8BsGzsyIoM8cO2rDfd06lxOj13NnGZhb0LdifKuetO8KHNMxZF+UVUh1wWUsW2Rc6k9CGsH69Rusq2u5paRKZWRPHHzxJRseHnWv2hqpe0sEMOyzcXF5AvsT7JBIrpFBDg8P26lTJ61HahwhxhjShUz27hc1AC5oOmH1BXoOmhhj7yb0LWMCUd6dRc1Ss1pqagUoCaypOUvOyaaqSIppSq55X5duLK+SClcp9a3cxvXcnCptXPtZ1dP5kREb0DOzqGg6R9z1VevW2779t/rAZ5w7SB8vc4k2oAbwsnKYvJjpikDkZKj/VJ63HoxZxYOQJfe1GwiDE4T0ra1rsLvuPWArZRt1SxwX9IGs9sasySMXLngl4bpkoaeKWpYyFEkIPGUARNuUCKytvt5jMLB2KEPnCX6I2xVXM9MfGMflPdyUQWUJW30kxC0ih15dIlCq4kfEay83ARgHDc9U+QneiGubLc4FjvHoEKtv2t+NtII43f2tk4AHG6m0LDCcpGyLWRGv9Cl38xOHYESG/qsHX7DHv/fP9tLzz1jfhXP6dqlBUm+YHmKzk1KZWVKRcug5lYQxVhkYljOH61htoTplceS0JMcq2UfpdJPPYj1x4pSdO3/BBoeGxYxUXkkKZggTqxyDvBZXtnJcWqavp9eOHzvuNgbfjPoIeAhJzCj9wOlnJRELLh3VIEKYyihmx6zdSn1Xh+igK91sZWMCVWHO6ioSvvYSUzN8gqOMORS7Oews1RnAAUhjqlPs6CMXzltO72AJngExYNTV1WIAm7Zs0avEOBiyQAOgyrAbKtjBTVKr+XYx03s+MZDapUxyklt4kKPa9w5P/aGrS5Q4mEgQEbbR1h07bdO2HR47gWVRJkQ8J9Q4PbmcgCQuVJfy+S9MzqtUBTHJLyUCgKgIAtskPZiAJiw4xezPSeeaodE9ppmuY+t2A5VZkvgZJEJMQVJcSXLpUUz+rJhLnvrTJKTOnIisUtXG0oy1qKV6LuMIs0OyHU8etxeff9b+7f/9tn3329+07vOnxUCkJkki1QAeSZ7p6QnLjQ1bJjPoi0/jWm5Ip1xijmXHbHhoxNZv2GCrV6/xpvnxiy/awZdeknTRswQipCkjMEbF7ZOqZ5w01H+t9k/rmhMnTrg0wiVPvxhqHCNFiIvnkWDFLKhTRmrPyP5hucspSaFZAahK39coaUg4L8J6LalvFDOoljYxbdnRcZWbSLayi0Xr2UkxRzHegt47I0lY1dwsO7rCeqSxMBUd55RJXaxrabK1mzbahs2b3WZk7F8ZKyfQ4696FFdQxeqnyslQJFiWrDaqe1HTZYOIC+N++K+49ZMAiKx9uK0Sge9dEul751y8lllra7tt3rzVtgtIGMxTqqj8HPNpzM6NjFqf7JxJ6eE5OI9Ug4J0YGKvEQwRlzmWTkuqzpKARKoB46kAUV4NBWjRf0PIW3F/5QiQQPjkRUp6Xvz0S0AKv3lPKdAuO4mq5wpTVq1ba/Wt9TUJz7VwfD14RnUzNNBnp0+fsEOvvmTPPP2EvXjwOTtx7E0bGuyV1juhOiISLZPhMKqlVk3lBULZNrofJwDeqrYlrbZi1UprbW+zAWkEh48fs7PdF3ykARMnh2SLEUW2TgTvrmvRXG44YyePnbCenj4HX0K2qcSxawvYQZVSw10Sq90w2xECeFBxhaOKssVWbpAaifrLNIoJaQzj2o7LCJ4oExhrUjabrLepRJ0vYjCRrPOp6HQ4Z6TeXRATuCDVc1Ltytg55EptfZ3desdttmX7FqtPJ0MDQH5gWfuqUW922kcUEQ5ehXRZIIrl8otDucIJP0kpyRz0ErMzfxEub/pRiIdGHOo1a9YJRDJgm5aoEVRZEuF4Xc4KROclnjO6vSAuQ4R/nA2EmUIN8r4nPW+JKjalhmDcVrWOFQQgB5F+Bymk6hJH9SE42oeeFxJ1OFb8cYWJZ4VPi+AJOXx38dvn08Lf75D0QI98hLdKtZwSg0mLCzeKWJvq6nyZ/4Y6JIPqZnLc+vt77IXnn7ann/qhb18/9JJ1XzgjyZS1msoyAaDKh9WUyQjHqC9H/SoLUjpVW+tDsVatXeM2zIkzp+30uXNqizLLiMsPSbUjfjnLkTQQgF+i4bTUvlMnTlpOdhThuBIqk0doUtFZmwmj3Wfv6jd0QrsQBhi1dEa2kHQ7j3Tb2JCWelsRwisrs0zolKTRjGwkq0vbXCotlV4gKqu2EQFnQE/sFdjOMU1EErBb9MG6R/gNKG9DU9puv/N2W7t+bZA+UTMvFsTbX7u47DkFlMiLnS57aRX+L82kt9CNK59KiFARBB+AYQfRRa3OpwkrYy31yjgdYTS3dHMWmsLzoytFOBL5ePCkw7J6AuAhLPGkgJFHQxRx0cnWR+OIU04InBVq2CXNS6xGejQ6L7bIZCEvXV7cmBcrYZuwG35eUuM4Pw+E90hSUuczaUy2A7ZNjcrR3tHh9tC0CJYRDKzxyrn43FBV3Bv3F/6mDEhSSVzUKGWkKusP1YjLE4zdXb9iWngjGc+Wy4/bhZ4L9uaRw3ZBtkImM+pMJK36SEmKEc9PwsmHJrEaRlIqTYPqr1pMCcbz2ssv2+BAvy/YvPOGXZaUKn3y7Bl7/c3DPmph06bNUpWn7Eff/5H19w7I/Ehai5hfdXVCigXquMotsUfkJR8+LUZGkPtqlYFZq1MC8NjQgFVItWuVbbUJN7vat07lqtMzagXSMqlrk/o9otv7VHfdUit7JL3OSIU9dPq0HZQK2S/1flhSNKtnj6CtqK6al7TZtp077cCB+6yluUlMSC3PsB43I1ShLn4B0ZxNSf1jNB60J7g7lALkFye99yJf+kPYgN95DOv9Thuei0RVBBH6MAnAhMO6X8Thowi0T+jfhBqST+kh1lnfgPRVSSOpHbyIsXONdbU6H9TBEM1UIl/PKuj+MqkZ3SKKfnGyGXGlMXEqlnlvaWnVvQldyXD4Ke8/AkQsGTkPGq+3UM7SdGUgmvUtyUEkEBLko719AYhEDBjjlwsiAEfQQw+hjCSF4ehe6gapigsZ9Yn+H59SL3DRqcn7cW2PixmNDA5Z38UeG+zts4mRrIh3VupgwhcbqAFQekdK6jLtSdy7s+dOS1jIXpE0YXGyxpZmO3L0qED0hi1RfTamm62nu1fS7qDKIttU0olxfqhjLFI9J+njowCmpyXtZj2QSDVtrO+ekZqdGxSTHB0RmMutvYHwximf1kKbQgd5Aa1bYD6lch8TaI5K2hwbHbXTssm69T0DAsyoyjyouhyUXZVXuZMMctX3CBFez8xnwpmVUvnr9Q4cGnOzKg/2mSQtRIvzQ0VTW6DUwWYXE0KXAyIIV4X3zG//L5CiTikXT/jhYA94AHkVeIbh57qICKlgCnzRr0FDoNpdOHfRLqrRs1If6KFGJIs0BAY4MINRq924xuMim9O9NuXJlE/sG8hLHVB15ASiCnG0Zkmi2kTKq2iGkQ/ipKzHivs7lImqU3G072UtAc2VgAg258Sv61ldPIAoYW0CEdKX+M945q4URGC9UJhROQUYPcfBpOOuymIYi9CdKOjA1NbnQuoc53kH3rVx2TLD/YOWGRgW8ebcTT6j4wCSa+jETkiqodYx9pDO6hyGen7McuM5a+tot6PHj9sJqW6rVq72VTZOnThtZ8+cs7QAhYe1XOpXnj4dqZygcWoGL9yM7FW1q4CG3YoaN5nJWlYgmpG0bKhNWteSFmtpqNdVjPmb9nlB5wcG7UR/v53Q9rykz3nV23lpH72SmkgelvjHa5tRG46r6lmDqEwAwplB22ak3vV0X/TYhvWSol1LO3RGda76CZ5Qtbe2IX679nWAOg2ur8VLlwUivT3kmDhUPMz/vtVvGsr98nyAiIJhJBTXV63Th+FlhKbUjq4fDw1lrPtin504eVycUNaARPCMJFKB1bBra6ylvt4bhklZU85K9JxErQ2okQbyBRvV8TEcGAJRuqFR+r7UA1UYc/lxtfqQIIEJYnbXM6UtgohEeQORsw3H3i1B9GJz2gZwTMAFdchB1NbmIPJV7n4aSaTmJZcXRyRwBm8S9xP0kCE4VcmEjyKoVma8IB20hIZCilW6GsiqDVVWxsjsoVHrOXPejr55xNU53NdVEKHeVSuuXecjsyUJ+rqtu6fb+gf6rFFc/uzZcz5+DhC9fugNO3H8lNQ4mESnvjMlKT/nICIgP6VmFEOVmGa9rqmX1KsSo5ySFJmQRBmTFEKjaG5qsOWdHbZy2VKXEv2SPCfPnLHXjh+1I5lB65OdNyN7aFLtPS6bbUJMI6vyjkoSZVSXlWrXpKQMwS/PSnsZY3q5EkuzDA8P2QjxFVz93GgNMgWoHz6UFUh84mOsT5Udnn8pVvvipCsHUfHtlw6HE/zPqXlihOhF4DRuiPkVboDo8FCyz3D9aakGvX09HgZrcibvXqUJ6dIJ3cIiU/XKZZI2rEzA6hCzlTU2LEIdFJB6RjOu5qFXs4BWgzJr/WA3MDyH9XJQdSDm6K3z9wME7UcCp+Tzu++SAojo2A2SDRC5JJL90crAUQeR7DEBCFXDh5sUH8z/7wgi/Vem76pmWX08YiIiTgAQxnuhIuKaBThUK7YmYPJVGMSZGT9HPRPM31cdlwLggfAl2pnX1S9uf/7CBbsou+nw4TdU3702LslD8MshESBj4+iTG1V9DkkqsAAZQUZOnTjjE/g6OrssVd+osiX07kqpcGgFlFu2mdoJ8wOHSJXadYoQ0AJQQVJsTnVfKY0imZQ9J77a3X3BTp4+JTuux2c6T+lZZbUNViU7a6qu3i5KAp2SbUzne60AvWn7djvwkYfsc48+ao986lN294futa1bNzvDmtGze3t71A5mGYE1mxv1YKGdXR3WyPw1V+FcLilDbrBzMSRVNplqXKx0eSAqEv38mzk0f5gT8TREVryHwqpRfaEonSGULKGj+GiSc/CaoB4MZ0bs1NnjNjo+4o0yNcG6NXmfmLdEXKhKQOM6FvSaFphG9XtQNtFZqS6TAmiZVDz09XQji4yJC+kdjMGbkFTzpR0BEZKoSNDRmUC5wqHLB1EcFewgUhkiiJYgicThkETBsSAQzb+He8P9YbvwNw0uiSvDn3jkzj05K0II1R/A41nf5usdKRNNiY7fpICXqqm1WpZpnBOzEZVXCkhEyIHn5mWYZ8SYBgf7XX0bzY7YoAz+UREedY9dwSLQOB8Y3EqP/1D/kDMDliZp61jq4JFI1EOrZJuqHEIFI6yrxLDoDC/nvvFJGx8akT02atNSdaV5qp4gZNlxsr0mpNoN50Twet+0vo3O9pzysJhFvxhFRnZfZUeHbdi1y/bdeYfddvfdtu/2223vLbfY+k30Ba2QytZpy5Z16bvmpMWct0mpgZMFHDx6v95FvMMlba0upcvEWJzgkDyqU7KDqFj/i5Uuy7FQ3LmUAULxcNwNh/W/Cu9bpA8cFRakRNDGSiFEtOLfpXoT55DdIynCMJVXXntRXHHAPTtz3uMtHiIiqGMhL6kKxGkj+iehpBjVMDIxbqcvXpBkQsVjndSEL8FfzmgHvRou6xwWSYTk8cpU8XSvXh22yqHw2i+Kx0DY+ga+g0Kq3HMiEhXIG86NVj2K8XLjKgM2F+vUtsue4MmAlnVdpyQFfUYmz9LzS/Ml3gifpAhQpaSniJbBtcTjrtZ1hA6r0paR0+UqX8iqP22JR4DnjfFh9VJx6xJJ2TsE+NBTVSaIimFT/FXVVkmiFSybHba6VI2Nadtz4awNMoxIBMhYRPqhWJqRkR8wgG5Ji8bmZrf1kqpTJBcdu5XE/yuMWfVs3jPB56cFTIb2TMpGycrOGpc6TjwFV8/1jajVeTE0lnphITTWNJoTKIm9jqeNdYVYOHrZ6tW279b99tlPfdIe/vADtm/vjbZ6xXJrbmzwsmEjt7a02No1azy01/DQsKueVDPtMSbzYdPmrZJUHWKmqgtpJZUiOOgRKgQ8EUDkxUoeRjii9O2yJzaUorjlMLvhZyhg2Ooe/vw+MhttxXXQ68UQ5m9kH5wlZfssW9EhPTdro5mMDy0hvC2SR/RrA4Mj1tTaLs4l/Vfnq5lKLaJFlTpx/ox05Xqbk27M0i3NEuXMN4FwAAjXoF7xPly2SA28NtUy0v23/jw4hyQVxikqQnDAq8iASoSalc49rIbKDg2J63JIhK6dhsa0994TpIRgLGvUsCywTB8LjAQdncxiXIShqtJ7q6TawFMAF2B0qaZyEuBerEDgkXqkzES1Ct3HzM4K9im3joetsiQF1/tAXxElI+cBoC/l6FJXUqJaUiohzp6stMI0XsSCCIt2EkjLZ61G5fCOWNUBIz94bkoMzSWpnlcvlSiZSrlaPDKqOhjoVR0oD3Zbru+CTQx3eyjgcamDmYEBy2czNi1AInkY1eozYSV9cDu7Pax3MN9oTPXFSHIG2TIEbLekzAMPPWRf/JVfts9//nP24fsP2LYNGywtu40p6EmkE/SjNgmLUFe4utmYbrL16zdKVR20gQHsoozezeDjhE/P2LRxk2tEeDixhhms6zQK7elZi5neOxZ3kejfkkt2Q770F5K2b72A1ltwjMqGgEQ4CTW4CBsQnTp1RlwTHi3uKQ6TEXchcicDKFk+HeKfFqEw1Ke3f8BmBU6WtISbta1d5UsmYjADZF+rVSBCEmFXUIM4GACSjwcDRNQqCVtHFc0K1xjKTG7wqJwiTu/Qla4+pefBDCqYMyPi6uvv8zVheQYqBnaXqNgByaJkLLKMN9IbTscBDoSOlPJ4BSIqrmVB5jk9e1Z2wtzEmEcHJRYBHaW8d1wEOi4uP5HNhZwbs4lMzr1xY5msDPiMZVV3OV2DxBgXOOD+LITGEvpTsjXnBKJKETigrORbVRbTNUg8CAxJSPtNa5+Y3zgyUCcJujgpQ35mMifbdFyq4riVT2asUr/npALOyGZiKUlUtyrVTZ5oPtOSwrQrtpAYHHXP+DomdbYv7bLN23faLVLT7r7vfrvltltth9Q3nALLly71PsOkaMFXLYdm1NYMIZrGmQFB0Cbib6jQqVS9gweaOX36rI6r3SR9Ojs6beuWrf49Tnbcw716FkLftZJFTJcX0P4qJEgXbdn3JZYYgo8a0d/bZ6MMiNS+STUSteH59tBMjQ0NrqdjNzD/5qJ07zFV06i4cV4V075qjXvvqDymiTMS2UEkAgFIcfIc9oxLCVUu+/TFUNHgmn2qmOwrAAoEqEcsZ+neOBUcANFJPCaCZhQ51y1pbhH4UEWnLSeiHhNR0/gAky0AJHIrw5TYFmQzcIyR6NOUU7o9HaB5STOChpCJ3ZATGAGqZ/ZxSfs+xzhXknWeldKxPfJiMtg4BalbHqUHIAMYbfmNVHbVVWX3ZTH1xQVJOMHL7R4UzZnpMDkP4HNtkATUC4+T6qrmY01dMvUYVrsYdyIN0Y/ErATCSqlira1LbOPGjXbTTTfZHXfcbvfcc4/t3XuTrVu33s8xYhy3NKNbYDJj+j7G8cFsUJn1Oj5A/8iob5WecYgcOXLE18TCK0rJOjs7bNu2bZYQ0Hgm7ezRV7XVaaeBxUzXDER8Df0F6O4MTmV2JJPO0gLKoddes4wAgjrF2DFi0TmxCUDEFEsoT6qyT3b3+ABWHOmTUvdYH6dS3CnOJ6Lzknd4X5HeSEOHLALhmA6yj76tuvUGROQzGpyxf0gWhskw3gu3M9JrcGjQBgcGBdC8A5t7cZmixWBXIBn6e3vDwFjlHK5eAWpMW/bHBbC8AFgQsQEi5gUBIhYpG5MkYXFgjPz5rGeScQ74b93DqHWIkw5liMzPcZ2Oh/uK+wIS0thDdYnyIT6+01m5agQipF6IUEoA+IJAwz5ODqQHfV6od9iLuJMZOcHWR62LOKem5yyTFWjFEBywKg+pSaogEgHv2dDgkK1atdIefvhh+41f/w17QLbOnj17bPnKldIsGvx5zNHCviyofdkOSXU+cviIu94BSa3aAM8bq7SzQjsMDjCh2gGI48eO2VHlrCQ25VgiUG6RJFrS2qrnS6Lqj+t9rpfadLElkRgwpLR46UoexwdDDKgNxKabVMN1Xzhv//SNb9j3vvMdO/Xaq1avVm/QRycEBqIqb9+02Za0tVtuPG9PvvyqjTLGSmI8KwN7xY5d1ihpROPAQUeQCOLa2C2hr0jcUjoCwMFWAsAQFRIE4JTrmpQMdEZUS2f0SWKsis7M0RE17CCdh7qHBau4HyL0cYEisrq6Os8gk05AwMo+7yW7jQRX1/f6FnVS38s5uDrzc2rFjfG2haAnAqg4KTEb4hRwR4GeCSiY5wPIIRCq3GfIInFVPsrk48WUkTpjUhGRTlP0wWmfeObEcktIZcMRUqa6S+LAqU5K7WJKOqquyyl/J7ZgUrZN+QxTUyZ9GgbOn2Sy3to7lgk0LLAcRoBj6GdRObWP/djV1WUf/ehH7TOf+YwtlboWiRomRvm060zg+PHjdvLkSR8pjmTZe+NeD3LTIamyYvkKa2xqdHc+Nh/3h39z3g5f/9rX7W/+9m/tySef8Da5RXbWo48+ah/+8Icd0Lxnvv7Iqr/FTNcURCzd7zaCPpJ+D+IMTEiNOSGu8q1vfN2e+N737MLRI9akxk6o0mtUYcul7+J9oVP18LmL1q9GH5ReMVZZY8u37bDmVWutTqphXg04ImJGDYK7QWmuyqmxqf55AtZxn/0oomawLKOXkXguSSQx6N3nN2oS4/sgduwnODxgVBU6ECEi3OgABDWM66gLiJuGhWDx4iWUAQYxEeDobN1NnUw4oXAN+4AkJcM+oX0PfiKuGxw2eqPem0T9gTCKiXehrkBkfJeDyAE+Y1mpRlmpemMZScXsqE/xzmnLt1/svmhDo1JLpTEl6hqkJyVcEnnoXyc8pOyMpK1U5uyIbLQR78Obk92zZs0G++hDD/s0BMCRkSQACI899rgdPnzY6+TWW2+1T37yk7ruo/49fAOMCPB2d3fbhQsX7NTpU/bSSy+7Css38b133nmng4gO4BapyjAVHzqmxDP8G9WGSLynn37K/uEf/sH+y1/9F2k0lbZhwwa799577Vd/9VcdxDzTp8ZwP222uBi6diDy75AOzpCeKVUqi3zJSnEOzSS2Z5952r73zX+0r/8/f2sJESLBz+vVKFOSQIyTo2M1J3Xi/EjO+iemPCLOym07rWXlGkulG2xCXJNRyVkRflaGuIt/3Q/h0wBO4NrqhwhARCPiZzoF48xQq0YHh21kcFAV5JWk8mI1SGqhFqk8MABoGikBCJAKrmK5GpV3gPBOCL5OxIPe397W6h2FS1parLm52ZrFJZlVyvlUQ8o9fsyhQpcHPACFeTuVWO0LEu+eT6VVHo/rGIfFF9zynFC5sqMjNk5/UV+P9eMUEdE///xzdvClV+2YjPNkXaO1LV1uzW2dUu9qxHCK6p7bdGPWd/GsDfZcMKZc4Nm7df9t9vu//we2csUqq9U3oEKePXvW/uiP/si++c1vuE368Mcfto985CG7/fbbbMmSJc4kqH+k1VNPPmlPPvWkyvCCnTp1ynbs2G4f+tABXf8R6+hoD7NqnVGhKof+PiYCqhF9vB42EHXPvd/5znftD//wP7j0btV7NmzcYF/+3S/bps2bfG4UbYFtpoa6VEeLlK6dY4HWkZWOREHP9VUVih86JWJuEHG1uCiesYsXL/rwDkT3OKqZrsOoZfBpVpXLkPoZqXVVSRZGTrtUE2OVoYzRK8JWZTs3Uob44GDox05oahgf7Kma5RiNggsVxwb2FNwPQkZVo3EaJeXqU7UuUfC+5XEQyB5pFHCXSV3ZpMa7STr/3XfeIe77oH36k5+whz/6kH1M+/ffd8DuklG9d++NtkOG70ZxzLVrVosIl7va0tTcqO+u17skgcR54apeTCFhRuom2ZdvVPlxCFB/QfrAC4Ikcs8H9auN058yQMJ5AOCbBFSCakLQSzs7XdW92NtvRxneIym8pL3TOgSkWqacSDLViJCdIaiyRkaGfdQ30ZgmJKlbpVbjHAg2qN4nAm2SNO3p6VHutnPnz+ldTbZ6zRpfKwgCpz1Pnz4tkH3T/utf/1c7dOiQGEyrfemLX7LPfu6ztm/ffl0nqa1nwvB4LhKVNkSCeXxtHeWP9sSe5ny/1Mgf/ehHLsUgLRga72xTGRvoBlHdwEQBoD90EdM19M4VW9jBFBoacSt6pjWcC9YKDLiO0bOHZZPggWIVcdQ+7KdMviAAqcIERHr758qqrK6hSepcg4AmEKnSffSACCWCiHdS6T4+TRULQUKcJFSSOhwXkgCABoJYsqTFVQriTCM5mnUsLQJD5cKTx0hxiOzmm/baPffebXfddYft2b3Ldu3aYRs3rrdVK1dIp19mXQIYkqi5ucnqG+rcYQFQ3EgXWNx1Tj9SUVqGHIDggCi2Px4ynAThe7wGdR4vY7g2XA9z8k8KSfthDFl4LqDHYEcqMH/o5OmzdujNw9bU0matHUutoanV7SRXf1S3PEo1pTYYtCHZhapBd1q0S63ev3+/dXiHLF5RXa7nDzKavK/Xjh09pnadtZUrV9rOnTu9PWFMgLG3t1fEnVY97bK7777Lbrv1NoFtteo67YwMQLoKpudF9Q2aYYImIPbfMBJPczYkJvvjF34sZgzTnPS27VzaactV97i8feHjDyaIlNA1UOtoZCqMelGe1n9wpGWqBIBA8IwB6fLed6EKwcU9qS3DgGalvwMg6SBu5NapIWZEaARVB0B5qRXOtbAreCWSiMoUcAEQ3BFpBBdDlcKGIbYA4CHWG54hVIJ6AQvixwHA+YSIAm8YhInb9r4D9zqYli9bap2d7ZYWB6ypqRLxoJaJMLCn3EtG1suRIjFjytO+uKH1K7qjkY4UFXXRswiBLdfwAXp18T5d58/V4SDmw/O1x0GvZtUXIwnwYmHjQazDIyN27OQpO/jyKy6FWqTKpcSIZiTRGGwqjdmfw3NHRoYcSLwTF3pba5u+9yZJ0hXOdHgb2gIOBUYTIGVGR0cdRDfeuEegkc3FVXoeAN65c4eDaNWqVQ4uJNi5c+cFwkE7f/68bKYe389KvWb0CR8DEPHiAU7sTh9UqgpggYPXXnvVBgYG3T1O+9J5vG7tOluzdo1LMY5RT6GSFi+p+q9x4ntEWO6tCd0ZnqpkBzAnaWg0Y/dLp/70L33edty4V+KixjIi3HGpUgnEtIgK9Y9KRZLQZwPX8Sd5hYVP9MorPl1t6A1C5giAAECUAffqRRm8PeKUeNno2GX8X6UanQGfxHQr6FhKkmnp8uWWEmBxYkxOFwJAVO7CTEGP5j66XOCmvMjJWFvt8xsvIVJI4KqorhTAAtdVO7ukASgRFMVSz2ee7XOlVBbv71J50OlwYsTsElbn3AvIXbp13nOHaqh7UFUx9vF6MZUCZoNKyCRIqhAXNxkfJseqGKWtaytR38SwsLOQKDhSKFqIR15tKwSqjZs2uiQAMGgQjCQnEfmpq2uZsVr5smVikLIfn33mWfuzP/u/7Ctf+Yr91m/9lv32b//P9pu/+Zv2O7/z7+z3fu/37I//+E9k83zH3jz8pgPIO86VoA++FcaCCry0c6m/L3gGp+zEyZPeIY4KHLPX1SKn8nlO+C75SlLgsu+di5QRkvZ9JDKqXKATP41EqK9P+5z+7Tfsts//8pdsk9SktHRoIYZAtSLAateT8bzx3Eh4iHvvf9Izov0ASJikN+/l0R/vZRvjyfF6CAbwEXNgQJywX5l4BN1qkCFxccbtDWRHrUdceZxJYCp47/CAr/3DANHKBConD1IFAw4fiaknk52keY/+9NsHlAo0Qk1JnXCWa94+cz5Kpdj/EyotZH46IHUueCP9c9x1Dvfm+5HKcHH63YJrXv+8rfU8PduNcD0YCTEmLYAYeGgLNbKbABAj6un4RnLgqfS6U2YMG0wJ1zLT0HEOMGGwp7fHowhxHeprvRgg9zPCnFHlgAuV795773HP2mc+81n7whe+4J49jt2w6wZbJvDRxqjBSLJYX7RvfV29AVwkFe2MRDx79oxdvHDRvX6ozTisipW1qCnU8C9AUps6FyYVacF/E1kGSdAk4GzfvdsOPPig3XjrfmuTmjcKx4GgAJK4I1yNoTQ0JgRB5dJrHnVnaMR1Y/32d+iYi3g/QeYqpEGobLgwKySEnLcMowikb2eVR+g7Gs/ZhBqLONED0vOz+TGbmpNk0OuYwu0DXPUowOLZj0lK6HgIL8WWa/214aMvs43dViBDFPH+mDjkuXg+HHKc8u1RysHFIS6kR6j8MledCadFByrAyek7c4zOUF1PY0sKQG4nqU0AWJ9AENUrB6HKhJoIUXfIFoHg6WKggzqWi3qmHICa5VhQ926++SY78KED9uCHH3QQ3X//fXbgwAHZmHdJFbzRvW1t7W0OBGeCtKneR/uhTuMCR7Ix8sX7onRuRKoqkmhkeMTbdF6dW+QUqOtaJL7FiSYQjv73FOkoMu74GzUDN+oj4kwPP/KIbZcujQpF7G5sjZpEtWVz0vVF6HAikttZ8ynus42ZVPr70nH4OWXCnMUbGDMjkJnWPI7DQkQ1rWsK2g4xMkHEgkeQMoXgGCKst/zxvEs5/mZL9nfHH4uUF36Z21vFDBFSRYEQcbTMuq00MDjgIzNwAGCPsBaUj0MUaOKjuR61CpsHz1lgWuENECyjDNraWl1VRL0aGR1xsPp9qMRSgdNShTdv3mR33nmXPfDAAz5f6NbbbrU9u/fYpk2bvJ9o1erVHgG2RfZXqr7eNQ7e5SPktcUBReK5SD+6DlKSrJSF8XYAie/xUuuagOLFTdcORDFFjl3ybRFA8yCSKsZYOBqkTsYpq0zcdtcdds+BD1mHjPjyoh0CNyRwIA2k2zxBLjGFJtYfz4z7xb2YuA/w6ZW+dUmhY575rYaY0RYAMUQGLxbHBoeHBaIwSc9j79Fgem6ATkj+7LfJADWWM5Zp0f70AkoSSkMOb+PNjGbgGKPLkUhIcBwxdHjjwmY/TmokQ6hIGVRk2oIEiLgOCR8lPoReL4JHnUulat3WQhJlMwxryrudhiQKccyrHVxeMoELW4Z2pIiqSi+T72jLUCzsQGwbt6GL59z9rWNIIVz39fV1fg6w4ZDC6cAjrla6piACPKg1bCFakje0PngeSPrN1lUQcbhxcbU6NdD2nTvs4U88YqvWrBIhl7vKQOxnSBLvEKkUQJ4cGeywjdnPKEVCDlsywAlAChnwAJhpnUP6sEZoObaDyjUgEI2KaxMM3h8T/vMEkHjN/KuKyZ/v74rp0j2LmXhqAJHeJGoKncciMqS4TmAXMqLCHRI65mpZsVSofXG0BPaU2xYCCXYNDANOz0gFhu5wvx7q70ANp/8H0OHJG5ZUY9AsxB/vB3z0JzFW8sknnrDHHnvMRzs8+cST9sSTT9gzzzxjBw8etDffeMPOnT1b7CukzKFMJJ6NzcXYQdQ4PKrYYYARdZfrAL8nAZ2yLXYqPv1apACgWSHE7YdiozmAtHUAqT1YfY/JZxUieI77aAA1ELMcb7v9Nuvs6nTD3eeuCEw8iwl5sarYQjIxsVeaS/d+Iumw368tEslJTweYRTA9rRKrbB4/QmAaGRIxDY9anrgS2F262r9jQY5vQ0pIjs3/9iMOal21iNmlUbEGAA7rP/lWxwARPo3q6kpLYqjD2f2Y7lEGQBBgcKnzrTgziuqTvhnuPyJJhEcTDx1OGyQS0gOg0A8EEaMKjjLinlgPAhHPoc5QE+lIf/2N1+35F15w0DzzzNP23PPP29NPE1fvKffcPa/fL7/ysh07dsxHWvA82sXLoOcBRpwUgAYJSB8e0okvx1bC0aFPUX2obB8kEAXixrhGLdIe6NGH8q1+Uu05v1X2FQNUAUR1wZ1JiKea2oSxlAgdlXwJA0NxyAqW/rz56tJDS4EUTvCbatb/EG/xd0xRSC3cMs19ekpvmZIkYthEsXz5EeITDFhGnJl44JSVyvXPKuZ5yar3+Dn/C28lX9pbxMy7fY/6U0GV477P0tXJGkmipIgNUOEaZ8tYQt+6WhTGqRHJlu9icTN+Q6iEHKYzHLWOY7wQdQwQ4lSgFXBSIK0AjauIup8OUbx1/CYxAoROblQ7QAsoe/VchvS89OJLPhrh8ce/7+A6c+aM225CqttJSDXUPACCFMJzR9koBwBqqG/w8lAR1MVip2sGIhIVjPHNn4fM0u/iiZDjIbb6fAaK4tEhRjS1wdQEpA+zOJltCqV6uKwSSQQLmt8vVqH/r4MQtqPD009Wr9tGvg3FCI4KOLR0eXr0VX1VFVU+LZsyEn43N5rzmZTl8ze9NUcw+axLf1oxF8+93T0/U+bpIq4gjciAKOwzVhAQoaIlElLnBBpGmUcwBZvDK9/BxOe7Z0yJkRP8BhDDwyMOFOYQYQsirSBk+qAY6sN10yJy1HEI3u0g5eaWZlu/fr3t27fP7rv/fnv4Yw/bJz7xSXtEavovff6X7Etf/KI9qvylX/6Sfe6zn7MH8czuudEHlQI45mllRzMOREDiQAkfrcQ+C5MlLOkjJaRmqx78gxc5XTMQAaAAorg33+phszCTVEmxwFQF7k5UO2ZPOhQBkdQVvGMh6Sq/t7TiQuUuTE7ExX1SfGUp+ZFQIQJwEgI10XSkLlQnOWMT2Y2ng00AACNdSURBVHFllpeXrHEQLcy6zPXCADK39YqZ/aubeIFyCaBQ31DZmLoOc8LRAIC4Bunj16m40B1c3m0RXaufrpKROc4ICB+5AcBUPzpR7C+q9ZUlAF6UPkH1yrsNRWJUAYNyVyxfbitXrbTVq1fb2jVrPfA+g0e3bt1qO3bssO07tvukvqVdSx2cFIJV/XgmYAdAlAX3POoeo+ORhHjq8BQ6Q/BE6Rc3XTMQkS7Bhw8sNrLnkl0/pR3fF0immAck0151ge4Ll6FhPVAj6pwIwfssdPlbU7HyIGZPb1+ZkdY578B5y+Ui/DJiWotABJwqSSRivSWrE+LMlbKH8jaRGzefNhbL7lk3xy3Hixnh6yoe+/H4YqfSZ6oe/avYep0CItP3iBmJEbnU4Zwq1/90zu0ifrPvUgaS4ZrwG2Bh60C4frD4XHYZtpUoggj1ipHb9NkwlIfMuD1c37jRCQ3AUKEhHefYEOP09JvQyPH5OIwADmogXjdGzHuZik4GXPADA/3ujYMu8NYxFo/OZK67WumagihQZsykEkoqPUWmcbSDKoA8og8Ar0zwHvFbOjben2nWKuLK4nM8lT4X0Ba3/uxwLthQl66Zv6fkEDksGRMM8riPE4FHMTt1PJdzV630Sl1QvPktiRu5upi45O0uW6xU8iooe07vdreHJMas9lV7Eh50YFbqXKgD6C2O3fN6EgfAa0e/EB2uTHhkeUlsIEY9YL9gozDlfTyXlVrLNPVxbyMewVAj5g8hHRhBgVTwUGa630eK6DwOI+Z+YVsBAtRDnovTol+25tAwgMq4bcVgUweitgCTDmK0D6Qb4+/wGGIL0WfEwGHCVrM+k3/YVUjv+dSgZy5+Cs0n1Uh8mz9XgVwV0PtgLDiBYua3I4MG0PlZccBZ6dfapiQRWMunSgRQV6MtjgUBCl/DHEtRKhPvzvujykOeLVPj+28RiK6LHsJZznMcsaEt9oPeKEnBFrCg6mAz8Fzm/jPchXV9ZMAmqjyA4OBwvxpU+rc/o4g8zzq0IIMl4ml7TG1agrzgmsXIVBnkTMgxk/02J+k5M8faQowJTFl1ok5Vi+u6xtsASc4qD4hIXySMcqkO3d2vH+WVCT2Xvh3JXF0/KCKnH4hZxEganA3MyWI6CbfCTJAaeUkQtAnGN7pGIRD5qIWGBnez4yFkDhWgguzQMBi1HSJF8W5sXkJwTXnkILQPjtHZjov78JHD1tPX66MsoKPNUgWXyn5y2gmcIdTJIicxckT1O+erlfR0YUOqkf+hANEXwcdSe7qgFETeoFRCAFGZKJ87AZ+qWJnVysssLfWuSuQyU5iQrYInrSBCx9UpgDAcBxBAGPNgoq9HHFX75Dgsx/Us3ROM8BIg4R52uwEuyvCigoOKxbRqa6stN4a7t987fK24Qp0/KwIJitKnMBJ9RlsHEFtlCN0FFNcsYg4AkqqjF0t+Mo7KZglHproLIKrToZSV6Rjj4QCKR0uCCekK1YzXCUTsbYNzoLpW5wES7v0KDy4z0NcnKcTU8wkr5Cdd0gAUOlTxRnKM6SxIHDpNmUrh1zGgVNdOSvIgubgHMLrUkWZB/x8BYpj35KBBuqsYPuRJ4GCMH2BDHXziqaest69fZQ7x0W/YfYPbUEhR7vF8FRJVfc0SQKKC4998ih/8E5lKYxCl1AL9EYFnVJwPFQrcMc8Ejw3LsiB86NAheEghj/4sqeE95eKELpngaiF8lUfDUcWHFLaR7kPGhtBWx6EjsA5/8c48uKXsCZwbjJTIMURG7yLKkFDmz/LEzcUtbwAwbGPyY2F30RPKJhmW4Kqc5+I+Kp2AQbBDko/+ph5VfraE8/KM6qXzYQwatQ3phI8aQBINDrnNwggF5mExEQ47hAGhuK05x4hv7B4AguRCJXvjjTe8k/WVl1+2F154wZ599ll79dVX7elnnrEffP/79rjyE08+aa++9pqHQmZKBA4MQIIHkJmugOvsuXM+0pshPnS4rly1yjZu2uQrRTCA1lXVYl7sdA2j/Vx5Qpd2/3/R00IjvfLKKz6vn4akgmiwVGOLtXetsEnp7b6qtoBCv0iMw+ycA2A4KSHtgWQgibfPxT8XFcG5wLv5FUJszXk8aPpWOtrb7Ka9e90z5CPEdd4R51cra9+Jl58lqfT9i5kgGWrLAcDTVQ8MvSGjWqWStc69X1Y9MpiU6en1siPof3OCo86K9UMXA06QSUkbVm8nuCQr801OjPk4t61bt3m9jGZGnagPvXbIfnyQyLZhVjLTS1588aD98Ac/tB/88Ac+KgHQvPjii96hCogO6vyPlV87dMhOnTnjo7yxkxh/hw2Gpw1HQQDmlLf79wW07373u0b/Ed6/jo4Od5sTlqu9vd2HKTFyIqbF1rCcnt4PKXIRABQ69cz7CkJfhPR8neM4FYvKwILISCHUsBpJCzKLWxHhlAWTIXxffc9BcImA58Hydplz6DmolfoNZ0e9Katgrg1RWaWyjGD85nwEeIBoaX77FM+88xU/W/qJt4MNbcj0/8AIGhi0yW/qVnVJnbjUBUi6hm1w4sBEihKr2A6MVACAh14/ZC/8+AV77PHH7dvf/o59+zvf9ukIMD6uhdkhYR7//uMOmielfj0jEL0kKfS6JBJBU1Db8OghTQADE/Zwe7OPt422BgQ4IYjnwLCgJ554wl7WM/ACco7hRjfffLPfg4MhTIdRe+k7IgNezKS6oZZ+8VME0LQ4GvtwPLjR3/3d39nXv/51++EPf+i/mRiWbG6zpWs3WkGQ8cGMSlwP2fCb4Sp8NMdQTXim69rzpBVSAEFpAmKoMmosPQf7KCGjt1xq4cWzJz2Ix67tW+wr/9v/atu3bPSp5LiALyXtA0AgrF3eGDOl48kL3/izJr4ea5AtkgiQjEr1YpgSQWKIgXDk+An76te+Zv/8r//qgeqXyI7w2H5iSERExX3vS3jiwZuasd4LPXrGoM3ks5Yol90kG5TFlNetW+uesXPnz7uXDLWN2cD0F/nwGzE9VC8S0gQJg6uaWl2+Yrlt2bLF+4U2a8uqfU0tzQ4IgANzJNP23AcgAQ6ZmA2ohgCVTIw7FCxGdYd2V90KYLQzqVQqLUZ634CIyqESIleJoPr2t7/t4ZL+5V/+xTvt0Jcn58pNyoZqi6g5SZdWdLpReTgv4JzBQEWyEITwEojeKj0CgXtyog+kLrKCFbtEq64UZxaI+rvPW/e507Z5/Rr73f/lt+2OW/dZW2uLPxHOHpIeQtn1HFexwiv8Hc75lYuHFi3x7AgiQd+jGo0MDtsoIFI9EDWJNVu/LXXo7wWkSTGHtq4uS9bXhxnDug8blACV9I8xpInV+DIC4tzUuNUn1R5z9N0x8DcEMIFwiWIUgUFgFJ7B2kGAhrZELSNYCcN6SFyz64YbbNPGja5O1jem3evmz5QqRz8RLm+AydTxcyozQHUQqk5hoEid2267zePN3X///Q4cMrTiHbC6BvqJwFqs9L4BEQCi8qmICCAqDwn093//9w4khsFTSZOzZZbNF2xOjQ4XI4gGBqaLdvqZRBAY0z54VBVKpCGW4oCEI4jmtyWEDvGz6tosfnEkkWwCH20kEI0O9tn50yds5bJO+7Vf+aJ94mMP2bKuDpdY4e6YwrND9p++jQAqvm7REs9G7sZ3IElYlhKHzNz0nNWn6u1ib489rnr8s7/8SwdR58oVvrgxfUIobL7Snh5QyberrgZ6+i03Mip1eUxMhLh9/iUeh2KtpBHqF9MgOjs7bfmyZe4EoL2I4IMmQLvRTt/4xjd8TNzRI0ecwdF+qHHYZUzFJwg+Nk6UILQ/gMJBgTQCYAw4JaO6IcWYyEfcBt4NgAAM76ZDF+BCP7x/MdP7yrFAolKoTIBExcOZEO14dKhs9yLRF6GGR98nOOS0GgKvHe7TEF8OVUwfr8rEaEa/j963kJFQ/jrfD1v+Qx0MAMA+gER9I4nk47hUFkLtLlvaaTu2b3PuyulLTygCp7gfjhd/6b/F5Y8/mRxEqhMcA5MTLBOpOhQxY4dgoGOf0A+TbiYMcJXXMwTIdcR9C3XJspZZ38fVT+c23jsW1tqxc4d97nOfs48/8ojdc+89tkVEDZgw7lvbWh0gREHtlKQDMEgmtILBoSEfvkXHKqogy7qclIQiqCNSB9CgJmIHASrKhDoIcNatW+cZ4CB9du/e7e+DPqLEYR/aiFLo/7cg4sMjV6FxSVQKlcMSJ4j26MVRrXl8OLcxdG0AUAATAejpBMQ2cGOZB80DKP7F/ZBCnYejTlM64F45ysRhcUz6IoiQSrvx7t27b/AgjYA0pHB/yPwftyU5HLpKiW/VC0S0vjBWPoAIOweOTh3+SAb6WH7cJQeDe4magwrlMcXFIAi4z4oUrFABM6quZvJdSnU+7lGZbr31NrvzrrskBTq8bejjQY1C2ickBfD40TbefiqKx6ST1Nq5a6dt2LDRA5wwuLRDTAhbCJAgUQAfKjnAASBIHEIFM3X8jjvusI997GN23333+f0kaASpw7t5F7SDFhKZAmVbzPS+cizEorKlQuBK7BOK9qWXXrInn3zSTp085ZyLQOo+t4Xr1WKhJ14VTOvRqIlaX38nKQM6VVdvZdLZXV0jq9KjysU/3yrjEGABZkLsMvLZF+wSeAipS4zri7KJymUfbNu03p0Lu0UctQlsBi+2P/Hd0mJzyJiwiHgzWhc2zegA6tyoM5JETdJyAscbhw/bV/7gD6x7oM/SLJYmtYflUBhOw6xiYpVXaVslCT87OeULbrEW0dQ0HaHjrkYRgHH3nt3uSOBbGMRK+7haVTTmAd8lYq6SFJvy9yPFs5I0AJJhPHSwsqwL1wJyEsSPRxaAsAUYgAuQATDeEz2BvBemGwEDrSBdyVy3mOl9AyIqPVYMDYQEwqikIjmOuKe/AUP1jPIbh163/r5+H6YfwwjjjtaOCEMNqwasFgHBIQESYaBYGYFee+wlQMf4Mrxp3jvuvyssz/IjOh+iBM1K2iGapsWls9bfc1FgyllLY4P9H//xP9it+262tDg1o05ISD7KWgoWvguJ5sf88OIDSXJS/6vupIrq4z1EMjYRKlpNVY3AMmknVGf//vd/z06dP2c1dSlRbIUPnyFEGLYQHIg45fXJlOwq+odqVHeyN1M1ltb3YswTmadNEoQEURHZVh/sde6ZpO/1sF2SdIyDDKJcl+k4dRx/I9kBA+oldQbhx0ydcQ4aiPRABiAkgARosIcBEddHWonXLGa6purcleA3El6sMCqPSoqVCGfySJs7dtiunbtsw9q17lEaHRm27osXvQceo5Kh+e6qRUrRGOKwAJABk9hM/o6SYkH/qGSMdI5hpPz0nBpxKgx2ZSU3Br8yyW1CXLWn+4LdcfttHn2TYI+4uYs4mgdR+J4wwQ26YQjLFVRH8f7LS8HNLxAVmQKr6hXE6eMAUbDFUKWnnn5aDCdEmSXcFj39LPXik/B0D0ErG8T5WepSVGwdne1274fusQc/8qDtv3W/dS3t8pEb1FFMEDAfNl9evl316QAruc7PX/pZvEZ1ruui9KCt/Zyu5TfHOR/BFRP70AZbro20UnrNYqb3nWOBSplvkJIEcUZQ0qeRUoNvd915n91y882+Zg3ca0S6P4DhGYCJof0u8nUv3CssxSJdWgRGk7kDQYDjN4MoIbgQm7tWIBWH9LbHUSGOKaBOjOd89MJ+6ewrV65w50KYbn2p7LH8/r/ey8jmSzC7vPR2dfBOKSi1fIveofexsp0HDNE30XnKeWadMoqA+HqsSLhDqugtt9zsMd/ul6q2SvYG30qQf+xK1k69ed9N9vkv/JKHs8KG8eAlKhfMiTf6d3k5g2rnkuZykn+a/rv8T7ym6X0FonniW0BAETy+1TlcsnWSAKxeR98RHiGMVIbGo0+Ha4UNgSr0DxX7oeC4ytgKnMPrBHAgGp/xaagYSKs5S1SVGwuPsU4P6hyubga8ToiTZyT9dt+w09asXuXDgCAeihzyW8vO70hoV5IWPuedEl/nJM27+dOugwijW9+ElAVEqDs//NEP3a28bsN6u+vuu2zPjTfarht22dYtm92Rcv7cWTt25IgeOmsrlnXZ3ltusgP332d1DfWuHkeJF9pBINKzKSd1zLGgFntB3j2TLvP7fhHSlbG/X5AUQbMwxUZDuqC60XhwQ4LSsyr1pz71SXtUnPMjUj927tjuXqS6Whb61/MEhDgcCJc1C2LlMiM2LEN7eLDPsiODVmA91NEhyw71WYbl7IcHbDw77HYQ9zPEyKWS8mB/vxvLgdiDLIiZxDfwh9oSKCeeuTpp/t1FQvVikdloSz0RzYclYLYINARTJCj/hg3rPCD/yhXLPCIQ6xqhthJfnNBUSGUS3jw6rT1YiT+/qPYWv99tWt+7vPx+Su9LEJGcCIuZBosZINGYjOWi2Sqk1pVJd0bKEFAd79Gv/9qv2e/8u9+2L33xUdu/7xZfrSFRzfIh9Csx3m7GaipRCWt8OzuVl3QZ9GXrhwd6bKS/27rPnrD+7nM23McQmH4bHeq3MYGO8Xqob329uk6qkbvBUZlEGUxg87L7/+Eb4g92r1aCqIsywv938MxLBX6rjIDIbT5dq+9nZihSl6nfo/ouRmejwlYRGShJpymBSiSJBY4AnuBKxo5x20P7HHMngHKMn/1BTO97EMX9UhDh9WHoCAayWttVM4YDwTXxxhEHmp71u+6605cl/LVf+1X7tKTUfqknS2Us14hQmE4xN1OQujPrE/yqyvFuSdrMTtlsYczGM0NWGBv17ehgrwB1QVJpRACij6rOBgUsVlDAoQHNogLBpRkFAGGFHMoPkbFqwdVMvCkASVn1BJGTVXMOHK83fTcOBuwjlnmBOgALalpjU9pa25ZYk7YwhfGxsBgzXjRAg10Z24BEm+A9I3HuaowU+EVJ70sQRfCQSvcjiOCojP0qU+Oh0rGkCG5rnXQqgkPSv8AI4X0ynh968EF75OMP28cf/pj2H7BbZTCvX7fawSA5ZNPiuGQHlYBUISBJh7Myoq5OEpxkROregE1NjAlwZZbWu0cEIBaeIqzxJbDjDQzjzGLmDGCKgFrsxFMvZf1Bx+AGgi7ZD5IoAIHyMk/H4ymIKTDfKin1jbWVWBKTBbQI2Uz8A1/Kk8cU7yvNMXmb4Lz5gKb3FYi84UtSaUORaCy/RpzSEwa9uCSZsXGAB66vi5yoPLyWVBZWqNu7d4994dEv2P/+H//Qfu8r/1620+dt29ZNkkTMFRr2dU4ncqO6adKqy2atRphMVJYZa5m6c0GSC3WwWupMrdQdvIC9Pd0ecMOHFemdZLcZnMgofygmaeG3LHbSG1U6/leKdcSWqtJ+BFGt1Lb6dL1sHgLAMEJE9qFAQ0KlY7IdjAE1j64Bhup4B6euQ/JwLe9A8kfpRLq6X3dt0/vSO0eK3C4SZ8x+Tjih/8e9Yuj+alD3QnGPztPAUXf34TsiICIIEX6JDAExcJKhOwc+dK/de/fdkk632A27dlqX1L0lAl1HR5svL9m1tNNX81u1cqV35sGlc9msD6NhOceNGza6d9DXGlVCNfI+EvYFaLh9LDtM4HJT/Nb3SnwvA1ABkONF/7NyBl7H0Eelo6ojZuU+8+xzNiSGUVtXZ9v1rQDI45prW5tIipmMytbrtRPHjnrZ2/V923butMaWlmJUn0qvV+qcN/tgU32TawMwkiv4Pn2gl/f9kN63ICpNkQjjeZi6q3DFfokAHkCnH7oEInZw0diurojEkFC6gEOE4oIbt8kGcM/U8uVS/VbY2tUrbfWKZdqusPVr19iG9Wt9VYNt27ba1i1bnOgI89TXKzVOak4cIMmsz7CuaXAwAFwvj4ModCJeCYBIVwIiAEQmicR97OA8iHSMZxHB55nnnrXBkSF9e4PdLPsQ4FM3SBjCXxHRh3gKr770ssdQaF6yxNZv3CwwhVhwwYESKpktIaxgWBTVj3ob+en3zNQVu++HdGUt9wuWSoFTmjgUGjQY7EFtgx8LJBDr/C3BFolcsipRY9UiBrx5JM7R+Czpv2z1Gttyw2678/4H7GOf+JTyJ+3Bjz5sH334EXvkk5+2j+v37j17nbDykmZ05OayOTt37mwIziHAUK4YOTQWge07fcdiJJ6K9GGQUqU+hvFzdLqS+TYc8u5o0FVMDZmb1e9pqaUV1VJXVR/l1bL9pKhOzVmqts5aW9utsjphUzNzNjya8dmlYTkbovdg8zGKHqZE3eIsgTGVFyWufn4A06KDyLn+ZeafJkFsAKGUg5NLiZBdGg2dnr4PhocQtB2dH9UtUG640G0BBlOiYhUlV3iArtV95Yzv0rv8nHKhwHKTZZZqaLZUusWSdWlLiLhS9Wnr6OryFbVnRGDEO8PN/vRTTwcvlgAtynLCAtyBuHgVBbl6iacDoCrJILJqy2r0TYT39TVc1QyifVe5mOVLvO2pPB7IWctn8zaZyzuIpPxaur7JOju69G1NVp2otYl8wUFEhB9GhSOpokufekcF9Ckp+l6ffuLlee8/QH+ltfJ29PVO+UrS292/MC86iH6e6d04OIffmrmWE+H8fHrrRQtyAE7I4TcjuInbZuLSFeLI5UTJqajyOAstS9qsQ6oNEwBxp/sEsr4+N8CRRqQ4hUJP0yP5PzQUNsbVSh73W8CPsSNcEuGt1NYlUTFj08xOzdrk2KTNaYskStemrVkMo0oSqVKZ0e8szV8hIBKNdHh41KdLIH1wY3sfkegUqcR36T89GWAFaPh3v0e+0uTvuYbpfQ2ia5FinwhEH6UgCZWQYUUsechQI67Ba8WMSqZmMKyGxP0LwR852s8zhTIEFYs385sy8x3Yc4wj5HxYmqTWywf4mb3K1APGyREvAQcKTILpCnFAMNdSPzwrMofS7/2gpesgusIEoUEoGNsRDBANREdgjDVr1nj/E2BhfBogIh4AM3AjUNiSrxVhuUTQuy9NGAxlQZJQLgCPPcekvHFUtcm8vmXSv4l+oo72DmN5GxwUvb091t3d7Spr6ffwnIVA+qCm6yD6KVIEQSkQ2DK4lZmXrF4A2OI1TF8HRCQIisz1ruJoG/d/bon3odItcK8jSSB6VlbAcxmnGoRbwpAelkRBOvHbY3NPc31Yd4jEt/HNpPh9/Oa5H9R0HURXmCKBQBwkfrMPsUF0SKMNGzb4/CaOcY6Jgqg9EBISjMRxiCxy6fi8q5Mocyg3W17l83WKqiUJUOFsAFhhpHqZe9qQQkwd4T5XZavCeq0Oen07TgNUOb6LuohMghS/ke3V/b5rm66D6AoThEKOxBETAOI30oi+IQINAiSO4cEiEAjqXZzq7ESoFNWdCM6rknj2W54PcaPOVfi+H9FvyhvHuFEebB6cI4yl4xgZhwH3xmsATyx/BFD8Fq7hOwFf/N4PYroOoitMkUBKiQJiIUFQgIkRCjgYMMAhKkLhsjYpAQYXgu/nASJ/9ILnRwIPRQn7hD6G4D0un8pFwBW+hUwMA+y7M2fPePwKlj7BdmKpSbY4Ufh+pC9ApB5KJd0HOV0H0RUmiKKUMOJ+BALEA3iQRsz2RPJgMxClEwcDhFWaIhivLoiC9Aw/lFVkPG/zNpEOoc5h7zACnuDzx08ctzcPH7ZXXn7Fw/R+9av/zf7iL/7C/vqv/8aD0GMDMdQH1Y64b3w3IIr1U1ovkVF8UNN1EF1higSykOghFI5DTAyBwUsHiCAsMiodQAJE3BtB9/Pg1gFE7PgvZUkevRPgBESxkV0ne4d1VwH9U089Zf/8z9+1b/33b9m3vvUtD9X8j//4j/bYY/9m3T3dPsYQ6bRq1UqXuszV4pvid8X6iceon3jsg5aug+gKUymHjQniQJ0hoc6QISycDJE701dEaC/2kU5knoEkuupAuoSgSwnsuG0z/9PLQXlYJuVrX/u6/fmf/7n9jSQPUUr7+nr9XGO60VpaWlT+aV/xm7C9O3fudK8k5yNgImjid31QAURadBBRaVcr/yIkiASCiGoYibLFjkaIB+AgiRh4SgcsxElfCl46AkxyPUDjOInnxUx6u29eeK70nnfNs0HaMRCUxG+d8EG4LE3PyHPKTZljeUI4q0qPUpqqS/mgWvqB6Cvi+yj7nXfeYb/8K7/iEU8ZaIsExjHBM2KmnDybfe4hvW0Zf8Yc6+Ry85Wkt7t/Yb4uia4w0WikWIFxHyJhGxsWu4iInHS8AjDAg3MBiRSlVnxWTAt/k0rfQSrl9DFzLIL7J58h1ZHjDh6kp7Y8ijJXl4ScqqyQGlrnQAAQqGfsNzU1+0j1Hdt32P79++2++++zjzz4Efv4xx+x+w4csE2bN7tHMoKFLWUtzRwjf1DTdRBdYSoljoUpEnEknNjxCjGivjGBDbsIrh5tpYWJ+0sBEZ9HjgDivoUAiileW5rjPYxK57ejSFjCA6fHu6s7UZMQ8NPuJAAUgIgyI40+85nP2mclcX7jN37dvvzlL3t+5JGP2wZ92/V0HURXnCJXhRgjkZcSMsc5D1fG8Ka/CCmE9MEVjGeL36UAis+D2PF6ed+MjHu23MfxeB2SA0nBNkqReD8plulSKvNorcwNYqkSXUwhEWneb8XAWF99W+XBNc0zeR/vRnqx5tCjj37B7pcEImj8sq5lHogexsBg2uvpOoh+5lQKJLYQc7QBsBUYvQBxYnsAEEIdYx8BDq4rBWApSCJQuCYChG18F9eWZs7F/JbET53XCQFnzmPoEaWVSKeMj2PmKmIJdQ4phEcRhwjSMjcWxsNxbMmSVrehiF8ByOI09+vpOoh+prQQQDFFwob4Nm3a5GBCIgGc119/3Y4dO+b2EaOf6cDkOPdDsIAGAC3ssIzvijmCb+HxmOI1TFFgwWeCUjKEh/cxzZuxfIzWRtowLYL3pGpT7ghxr+LUtEsjpCdbgBb7lQBRmBN1PZGug+hnTAuJGCIjAyKkD3bR9u3bnThRn5BCLPb7gx/8wNctPXHixPwI6MDhL9k6pb/JPJ/nQvBINZ5HBoTB5rlkM0U3OudQDVEhCe6Ppy2Tzfh9AIi+ISbQcS9SS6V3UOGV410T4xM+0oLn4OGrSSaKy6SwAMAHN4LPlaT3zaoQv2gpgiZKAxJEFwFE4hxj5lga/qtf/aov/8J5ABVXeANkePFYDIu1ebCjkARkpBdARK3jme/0vphj4poIIkJ0FSYLNqst9+Gm9ucIbICXgbF0ntIZDMCRkjg/iNU9ODTo6/78yR//iZcZycib6V9ybx+gw866zBTLvdip9NuvRboOop8ixSorJehSYo6NyjmkwOHDh+1P//RP7bHHHnNJwX1RcgAUPGF0YLKgVVxvJwIJoHEMMEXDn1wKrtL3xWcjqcgEIwEQUwISw3lQ4wBSPj/h6uToaMY7UlmRzmfgcs/0jAcyYY2gB+6/3/7P//SfBKImjxuBuxz76TqILqXrILrCFKuLbWnVLQRQTEgDXNuA6J/+6Z9cNULacB0qEgmbg8y1MXEe0EQPH65mgMY+xwBXdDxEyUd5ABDPBQxskUQTY+O+2gUAOn/uvA2PhM5T7B3AyHg53sdEO7xuAIRyNgk4H/7wg/blL/+u3s16uAE8FYT/it95BfR7tUhtYZ3/vNN1EF1hWih93m4bE9cieQBHXOUcIAEAVCMS21J7Jz6fzPM4FqVNPB6v5djCdy68LvStivBl5+DqpizMJeIugAZQuQ7A1RLpSMfdplL+9Kc/bR9/+GHbt2+fP5ehPgRaqU3V+btEPeiUYf8ykpfnKqSFdfDzTlcFRJf7yGv98T9N4tvIpWV/p+8AEGTSkSNH7LnnnnOHAhKBjDSAeCFstt43U3x+vK80RVUwnmcbUyzDT2z9fwKkVFqNAMNxt2l0L4FGADEZqQa4sX1Y7a69o8MeeOAB27NntzVLCvmyM3o/9wM8fz/g1H1XkkrLvFgpfuu1SosOoit53LX++KudqAuIDakBQFDrGITKdHFsEBZrxg4BTHjPGBLE9RBrzKVgKa0vpAXHHRQlmVS6HxOSCE8c6p9u9Odi3zCIFPAwvCedbvCFiBnKs3nTJlu5cpWlG9N+PRP0iMkQQcP7SYDvaqT3Dx2Z/X/teoVy01QUhAAAAABJRU5ErkJggg==;" vertex="1" parent="1">
                    <mxGeometry x="380" y="105" width="85.66" height="100" as="geometry"/>
                </mxCell>
                <mxCell id="14" style="edgeStyle=none;html=1;strokeColor=#000000;" edge="1" parent="1" source="6" target="3">
                    <mxGeometry relative="1" as="geometry"/>
                </mxCell>
                <mxCell id="6" value="Actor" style="shape=umlActor;verticalLabelPosition=bottom;verticalAlign=top;html=1;outlineConnect=0;strokeColor=#000000;" vertex="1" parent="1">
                    <mxGeometry x="130" y="240" width="30" height="60" as="geometry"/>
                </mxCell>
                <mxCell id="12" value="" style="edgeStyle=none;html=1;entryX=-0.019;entryY=0.864;entryDx=0;entryDy=0;entryPerimeter=0;endArrow=none;" edge="1" parent="1" source="6" target="11">
                    <mxGeometry relative="1" as="geometry">
                        <mxPoint x="160" y="264.2857142857142" as="sourcePoint"/>
                        <mxPoint x="337.1500000000001" y="195.03999999999996" as="targetPoint"/>
                        <Array as="points"/>
                    </mxGeometry>
                </mxCell>
                <mxCell id="11" value="&lt;font color=&quot;#000000&quot;&gt;Call&lt;/font&gt;" style="text;html=1;fontSize=24;fontStyle=1;verticalAlign=middle;align=center;" vertex="1" parent="1">
                    <mxGeometry x="190" y="190" width="100" height="40" as="geometry"/>
                </mxCell>
                <mxCell id="16" value="&lt;font color=&quot;#000000&quot;&gt;Registry&lt;/font&gt;" style="text;html=1;fontSize=24;fontStyle=1;verticalAlign=middle;align=center;" vertex="1" parent="1">
                    <mxGeometry x="670" y="30" width="100" height="40" as="geometry"/>
                </mxCell>
            </root>
        </mxGraphModel>
    </diagram>
</mxfile>